<svg width="15.99999848mm" height="12.9999994mm" viewBox="0 0 6299212 5118110"  version="1.1" xmlns="http://www.w3.org/2000/svg" xmlns:xlink="http://www.w3.org/1999/xlink">
<desc>
Origin 0 0 Bound 3937007 3937007 6299212 5118110
</desc>
<g fill-rule="evenodd" fill="rgb(207, 224, 229)" stroke="black" stroke-width="1" transform="translate(0, 5118110) scale(1, -1) translate(-3937007, -3937007)">
<path id="N" d="M 7012010.00 6631285.00 L 7035320.00 6621295.00 L 7059185.00 6603535.00 L 7074170.00 6585775.00 L 7083050.00 6568570.00 L 7089710.00 6549145.00 L 7093595.00 6525835.00 L 7044755.00 6522505.00 L 7039760.00 6542485.00 L 7031435.00 6560245.00 L 7017560.00 6576340.00 L 7008125.00 6582445.00 L 6980375.00 6592435.00 L 6950960.00 6595210.00 L 6914330.00 6590770.00 L 6892685.00 6583555.00 L 6880475.00 6575230.00 L 6866600.00 6554140.00 L 6863270.00 6537490.00 L 6864935.00 6525835.00 L 6872705.00 6509185.00 L 6883250.00 6499750.00 L 6916550.00 6485875.00 L 6954845.00 6475885.00 L 7029215.00 6455350.00 L 7050860.00 6445360.00 L 7074725.00 6428155.00 L 7091930.00 6408175.00 L 7103030.00 6379315.00 L 7105250.00 6352675.00 L 7098035.00 6320485.00 L 7087490.00 6299950.00 L 7074725.00 6284965.00 L 7048640.00 6264430.00 L 7031435.00 6256105.00 L 6992030.00 6245560.00 L 6954290.00 6243340.00 L 6904340.00 6249445.00 L 6875480.00 6258325.00 L 6863825.00 6264430.00 L 6837740.00 6283855.00 L 6820535.00 6304390.00 L 6814430.00 6315490.00 L 6803330.00 6346015.00 L 6800000.00 6373210.00 L 6847730.00 6377650.00 L 6855500.00 6344905.00 L 6865490.00 6327145.00 L 6884360.00 6309385.00 L 6901565.00 6299950.00 L 6927650.00 6292180.00 L 6960950.00 6288850.00 L 6994805.00 6292180.00 A 88495.45 88495.45 0 0 1 7045865.00 6321595.00 A 55223.25 55223.25 0 0 1 7049195.00 6380425.00 L 7032545.00 6396520.00 L 7010345.00 6408175.00 L 6952070.00 6424270.00 L 6888800.00 6442030.00 L 6863825.00 6453130.00 L 6839960.00 6471445.00 L 6825530.00 6490315.00 L 6816650.00 6515845.00 L 6814430.00 6535270.00 L 6821090.00 6569680.00 L 6830525.00 6588550.00 L 6849395.00 6609085.00 L 6867710.00 6621850.00 L 6891020.00 6631840.00 L 6934865.00 6640165.00 L 6974825.00 6639055.00 L 7012010.00 6631285.00  z"/>
<path id="N" d="M 5749968.00 8754072.00 L 5781636.00 8744972.00 L 5804204.00 8732232.00 L 5827136.00 8711848.00 L 5842424.00 8690736.00 L 5847520.00 8679452.00 L 5856984.00 8650696.00 L 5859532.00 8625944.00 L 5857348.00 8605560.00 L 5847884.00 8573528.00 L 5837328.00 8554236.00 L 5814760.00 8528392.00 L 5793648.00 8513832.00 L 5769988.00 8503640.00 L 5741960.00 8497452.00 L 5720848.00 8497088.00 L 5688452.00 8504004.00 L 5664792.00 8514196.00 L 5639676.00 8533124.00 L 5624024.00 8550960.00 L 5613104.00 8570252.00 L 5602548.00 8602284.00 L 5600000.00 8626672.00 L 5602184.00 8647056.00 L 5611648.00 8679452.00 L 5622204.00 8698744.00 L 5644772.00 8724588.00 L 5665884.00 8739512.00 L 5685176.00 8747884.00 L 5717572.00 8755528.00 L 5749968.00 8754072.00  zM 5727036.00 8734780.00 L 5695732.00 8728956.00 L 5672072.00 8718036.00 L 5648412.00 8697652.00 L 5635308.00 8679088.00 L 5623660.00 8646692.00 L 5621476.00 8623396.00 L 5627300.00 8591728.00 L 5638220.00 8568068.00 L 5658604.00 8544772.00 L 5676804.00 8531668.00 L 5709200.00 8520384.00 L 5732496.00 8518200.00 L 5764164.00 8524024.00 L 5787824.00 8534944.00 L 5811120.00 8555328.00 L 5824224.00 8573528.00 L 5835872.00 8605924.00 L 5838056.00 8626308.00 L 5834416.00 8651788.00 L 5823496.00 8680180.00 L 5812940.00 8695104.00 L 5792192.00 8714760.00 L 5778360.00 8722768.00 L 5749240.00 8732596.00 L 5727036.00 8734780.00  z"/>
<path id="N" d="M 7487340.00 8679816.00 L 7503720.00 8669988.00 L 7512092.00 8658340.00 L 7516824.00 8642688.00 L 7517916.00 8576076.00 L 7519736.00 8521476.00 L 7527380.00 8500000.00 L 7494620.00 8500364.00 L 7488432.00 8522204.00 L 7461860.00 8504368.00 L 7440384.00 8497816.00 L 7413812.00 8496360.00 L 7389060.00 8502184.00 L 7374500.00 8511284.00 A 54294.01 54294.01 0 0 0 7398888.00 8599008.00 L 7440020.00 8606288.00 L 7486248.00 8616116.00 L 7486612.00 8627036.00 L 7482608.00 8643416.00 L 7475328.00 8652516.00 L 7457856.00 8659796.00 L 7434924.00 8660888.00 L 7414176.00 8656156.00 L 7403984.00 8647420.00 L 7394884.00 8626672.00 L 7365036.00 8631404.00 L 7365036.00 8632496.00 L 7374864.00 8656884.00 L 7385056.00 8668532.00 L 7406168.00 8680544.00 L 7430556.00 8685640.00 L 7460404.00 8686004.00 L 7487340.00 8679816.00  zM 7485884.00 8591364.00 L 7476784.00 8588452.00 L 7425096.00 8577896.00 L 7405804.00 8572072.00 L 7396340.00 8563700.00 L 7393064.00 8554964.00 L 7393428.00 8541860.00 L 7401800.00 8528028.00 L 7412356.00 8522932.00 L 7429100.00 8520384.00 L 7449848.00 8523660.00 L 7465500.00 8531304.00 L 7478240.00 8544772.00 L 7483700.00 8557148.00 L 7486248.00 8580080.00 L 7485884.00 8591364.00  z"/>
<path id="N" d="M 7749245.00 4682950.00 L 7786985.00 4676845.00 L 7807520.00 4669075.00 L 7827500.00 4653535.00 L 7840820.00 4636885.00 L 7849145.00 4619680.00 A 105175.79 105175.79 0 0 0 7830275.00 4509790.00 L 7819175.00 4500910.00 L 7798640.00 4489255.00 L 7776440.00 4480930.00 L 7748690.00 4474825.00 L 7769780.00 4462615.00 L 7787540.00 4447075.00 L 7813625.00 4415440.00 L 7887440.00 4300000.00 L 7824170.00 4300000.00 L 7773665.00 4380475.00 L 7736480.00 4433200.00 L 7715390.00 4454845.00 L 7703735.00 4462060.00 L 7680980.00 4469275.00 L 7601060.00 4470385.00 L 7601060.00 4300000.00 L 7550000.00 4300000.00 L 7550000.00 4684060.00 L 7749245.00 4682950.00  zM 7601060.00 4641325.00 L 7601060.00 4514230.00 L 7715390.00 4514230.00 L 7756460.00 4518670.00 L 7775330.00 4526440.00 L 7790315.00 4538650.00 L 7797530.00 4550305.00 L 7804190.00 4571950.00 L 7803635.00 4588045.00 L 7799750.00 4601365.00 A 52066.46 52066.46 0 0 1 7760900.00 4635775.00 L 7737035.00 4640770.00 L 7601060.00 4641325.00  z"/>
<path id="N" d="M 6393884.00 8682364.00 L 6413904.00 8673264.00 L 6428100.00 8661616.00 L 6441932.00 8638684.00 L 6449212.00 8614660.00 L 6451032.00 8583356.00 L 6314532.00 8582992.00 L 6317080.00 8566248.00 L 6326180.00 8543680.00 L 6334188.00 8534580.00 L 6354208.00 8524024.00 L 6372772.00 8521476.00 L 6394248.00 8527300.00 L 6405896.00 8537128.00 L 6418272.00 8558968.00 L 6450304.00 8554964.00 L 6443752.00 8538948.00 L 6429192.00 8517836.00 L 6413904.00 8506552.00 L 6391336.00 8498544.00 L 6369860.00 8495996.00 L 6346928.00 8498908.00 L 6320720.00 8509100.00 L 6306160.00 8520384.00 L 6298880.00 8530576.00 L 6288324.00 8553872.00 L 6283228.00 8581536.00 L 6283956.00 8605560.00 L 6292692.00 8639412.00 L 6302520.00 8656156.00 L 6313076.00 8667076.00 L 6332004.00 8678724.00 L 6354572.00 8685640.00 L 6393884.00 8682364.00  zM 6366220.00 8661252.00 L 6344016.00 8655064.00 L 6330184.00 8644144.00 L 6319628.00 8624852.00 L 6316352.00 8608836.00 L 6418636.00 8608836.00 L 6417544.00 8616844.00 L 6409900.00 8638320.00 L 6400800.00 8648876.00 L 6384420.00 8658340.00 L 6366220.00 8661252.00  z"/>
<path id="N" d="M 8390060.00 8682364.00 L 8410080.00 8673264.00 L 8424276.00 8661616.00 L 8438108.00 8638684.00 L 8445388.00 8614660.00 L 8447208.00 8583356.00 L 8310708.00 8582992.00 L 8313256.00 8566248.00 L 8322356.00 8543680.00 L 8330364.00 8534580.00 L 8350384.00 8524024.00 L 8368948.00 8521476.00 L 8390424.00 8527300.00 L 8402072.00 8537128.00 L 8414448.00 8558968.00 L 8446480.00 8554964.00 L 8439928.00 8538948.00 L 8425368.00 8517836.00 L 8410080.00 8506552.00 L 8387512.00 8498544.00 L 8366036.00 8495996.00 L 8343104.00 8498908.00 L 8316896.00 8509100.00 L 8302336.00 8520384.00 L 8295056.00 8530576.00 L 8284500.00 8553872.00 L 8279404.00 8581536.00 L 8280132.00 8605560.00 L 8288868.00 8639412.00 L 8298696.00 8656156.00 L 8309252.00 8667076.00 L 8328180.00 8678724.00 L 8350748.00 8685640.00 L 8390060.00 8682364.00  zM 8362396.00 8661252.00 L 8340192.00 8655064.00 L 8326360.00 8644144.00 L 8315804.00 8624852.00 L 8312528.00 8608836.00 L 8414812.00 8608836.00 L 8413720.00 8616844.00 L 8406076.00 8638320.00 L 8396976.00 8648876.00 L 8380596.00 8658340.00 L 8362396.00 8661252.00  z"/>
<path id="N" d="M 8106504.00 8684548.00 L 8131256.00 8676176.00 L 8150912.00 8661980.00 L 8165108.00 8639776.00 L 8172752.00 8616116.00 L 8174936.00 8590636.00 L 8170204.00 8555692.00 L 8163652.00 8537492.00 L 8152004.00 8521840.00 L 8132348.00 8506552.00 L 8113784.00 8499636.00 L 8089396.00 8495996.00 L 8071560.00 8498180.00 L 8046808.00 8506188.00 L 8027152.00 8520384.00 L 8013320.00 8543316.00 L 8006040.00 8567704.00 L 8004220.00 8599736.00 L 8008952.00 8625580.00 L 8018780.00 8650332.00 L 8031884.00 8666348.00 L 8051904.00 8678360.00 L 8077384.00 8686004.00 L 8106504.00 8684548.00  zM 8050084.00 8643052.00 L 8040256.00 8623396.00 L 8035888.00 8597552.00 L 8037344.00 8571708.00 L 8045716.00 8545864.00 L 8053724.00 8536036.00 L 8073380.00 8524024.00 L 8089396.00 8521476.00 L 8108688.00 8525844.00 L 8121428.00 8533124.00 L 8131256.00 8544044.00 L 8139628.00 8564064.00 L 8143268.00 8592820.00 L 8139628.00 8619756.00 L 8132712.00 8636500.00 L 8124704.00 8646692.00 A 50026.22 50026.22 0 0 1 8050084.00 8643052.00  z"/>
<path id="N" d="M 7120428.00 8680180.00 L 7133896.00 8670716.00 L 7141904.00 8656884.00 L 7147000.00 8636136.00 L 7147728.00 8500000.00 L 7116788.00 8500000.00 L 7116788.00 8615388.00 L 7113876.00 8641596.00 L 7105868.00 8652516.00 L 7091672.00 8659068.00 L 7077476.00 8659068.00 L 7062552.00 8654336.00 L 7051632.00 8645964.00 L 7045808.00 8636864.00 L 7039984.00 8615752.00 L 7039256.00 8500000.00 L 7008316.00 8500000.00 L 7008316.00 8618664.00 L 7006496.00 8635044.00 L 7000308.00 8649604.00 L 6991572.00 8656520.00 L 6975920.00 8659796.00 L 6960268.00 8656884.00 L 6945708.00 8647784.00 L 6935516.00 8631768.00 L 6931512.00 8611020.00 L 6930784.00 8500000.00 L 6899844.00 8500000.00 L 6899844.00 8682728.00 L 6927508.00 8682728.00 L 6927872.00 8657248.00 L 6945344.00 8675084.00 L 6959904.00 8682728.00 L 6982836.00 8686732.00 L 6999944.00 8684548.00 L 7016688.00 8677632.00 L 7026152.00 8668532.00 L 7034888.00 8654700.00 L 7038528.00 8659432.00 L 7057820.00 8676540.00 L 7078932.00 8685276.00 L 7098224.00 8686368.00 L 7120428.00 8680180.00  z"/>
<path id="N" d="M 6795376.00 8684548.00 L 6820128.00 8676176.00 L 6839784.00 8661980.00 L 6853980.00 8639776.00 L 6861624.00 8616116.00 L 6863808.00 8590636.00 L 6859076.00 8555692.00 L 6852524.00 8537492.00 L 6840876.00 8521840.00 L 6821220.00 8506552.00 L 6802656.00 8499636.00 L 6778268.00 8495996.00 L 6760432.00 8498180.00 L 6735680.00 8506188.00 L 6716024.00 8520384.00 L 6702192.00 8543316.00 L 6694912.00 8567704.00 L 6693092.00 8599736.00 L 6697824.00 8625580.00 L 6707652.00 8650332.00 L 6720756.00 8666348.00 L 6740776.00 8678360.00 L 6766256.00 8686004.00 L 6795376.00 8684548.00  zM 6738956.00 8643052.00 L 6729128.00 8623396.00 L 6724760.00 8597552.00 L 6726216.00 8571708.00 L 6734588.00 8545864.00 L 6742596.00 8536036.00 L 6762252.00 8524024.00 L 6778268.00 8521476.00 L 6797560.00 8525844.00 L 6810300.00 8533124.00 L 6820128.00 8544044.00 L 6828500.00 8564064.00 L 6832140.00 8592820.00 L 6828500.00 8619756.00 L 6821584.00 8636500.00 L 6813576.00 8646692.00 A 50026.22 50026.22 0 0 1 6738956.00 8643052.00  z"/>
<path id="N" d="M 7284592.00 8684912.00 L 7308252.00 8676540.00 L 7322084.00 8665256.00 L 7334096.00 8647420.00 L 7340284.00 8629220.00 L 7309708.00 8625216.00 L 7304612.00 8639048.00 L 7294420.00 8652152.00 L 7279132.00 8659796.00 L 7264572.00 8660888.00 L 7242732.00 8654336.00 L 7229992.00 8643780.00 L 7223440.00 8631768.00 L 7217616.00 8609928.00 L 7216524.00 8582264.00 L 7221984.00 8553144.00 L 7230720.00 8537128.00 A 50002.93 50002.93 0 0 1 7282044.00 8524024.00 L 7297696.00 8532760.00 L 7308980.00 8551688.00 L 7312620.00 8566976.00 L 7343196.00 8562608.00 L 7334824.00 8537128.00 L 7320992.00 8517108.00 L 7306432.00 8506552.00 L 7287504.00 8498908.00 L 7267120.00 8495996.00 L 7245644.00 8498908.00 L 7225988.00 8506188.00 L 7207060.00 8520384.00 L 7195776.00 8538220.00 L 7188132.00 8560424.00 A 137650.19 137650.19 0 0 0 7195776.00 8645964.00 L 7210700.00 8665620.00 L 7225988.00 8676540.00 L 7250740.00 8684912.00 L 7284592.00 8684912.00  z"/>
<path id="N" d="M 8576428.00 8684912.00 L 8600088.00 8676540.00 L 8613920.00 8665256.00 L 8625932.00 8647420.00 L 8632120.00 8629220.00 L 8601544.00 8625216.00 L 8596448.00 8639048.00 L 8586256.00 8652152.00 L 8570968.00 8659796.00 L 8556408.00 8660888.00 L 8534568.00 8654336.00 L 8521828.00 8643780.00 L 8515276.00 8631768.00 L 8509452.00 8609928.00 L 8508360.00 8582264.00 L 8513820.00 8553144.00 L 8522556.00 8537128.00 A 50002.93 50002.93 0 0 1 8573880.00 8524024.00 L 8589532.00 8532760.00 L 8600816.00 8551688.00 L 8604456.00 8566976.00 L 8635032.00 8562608.00 L 8626660.00 8537128.00 L 8612828.00 8517108.00 L 8598268.00 8506552.00 L 8579340.00 8498908.00 L 8558956.00 8495996.00 L 8537480.00 8498908.00 L 8517824.00 8506188.00 L 8498896.00 8520384.00 L 8487612.00 8538220.00 L 8479968.00 8560424.00 A 137650.19 137650.19 0 0 0 8487612.00 8645964.00 L 8502536.00 8665620.00 L 8517824.00 8676540.00 L 8542576.00 8684912.00 L 8576428.00 8684912.00  z"/>
<path id="N" d="M 5769624.00 8687824.00 L 5780908.00 8676176.00 L 5790008.00 8658704.00 L 5769260.00 8653972.00 L 5768532.00 8655428.00 L 5757612.00 8669988.00 L 5744144.00 8677996.00 L 5728856.00 8680180.00 L 5708472.00 8674356.00 L 5697552.00 8665256.00 L 5689180.00 8649968.00 L 5685176.00 8625216.00 L 5686632.00 8610292.00 L 5693184.00 8591000.00 L 5699372.00 8583356.00 L 5715388.00 8574256.00 L 5731040.00 8572072.00 L 5751424.00 8577896.00 L 5764892.00 8590636.00 L 5771444.00 8605196.00 L 5792556.00 8599008.00 L 5787824.00 8586632.00 L 5776176.00 8569888.00 L 5759068.00 8558604.00 L 5738320.00 8552780.00 L 5722304.00 8552780.00 L 5696096.00 8560060.00 L 5684084.00 8568068.00 L 5674620.00 8579352.00 A 88981.66 88981.66 0 0 0 5664064.00 8645600.00 L 5670616.00 8665984.00 L 5680080.00 8679088.00 L 5697552.00 8692192.00 A 76470.02 76470.02 0 0 0 5769624.00 8687824.00  z"/>
<path id="N" d="M 4412565.00 6421545.00 L 4407570.00 6369930.00 L 4400355.00 6347175.00 L 4391475.00 6332190.00 L 4372050.00 6312765.00 L 4358730.00 6304995.00 L 4327650.00 6295560.00 L 4299345.00 6293340.00 L 4263270.00 6300555.00 L 4243845.00 6308880.00 L 4226640.00 6322200.00 L 4218315.00 6334410.00 L 4208880.00 6356055.00 L 4203330.00 6378810.00 L 4201110.00 6408225.00 L 4247175.00 6414330.00 L 4251615.00 6381030.00 L 4260495.00 6358275.00 L 4269375.00 6349950.00 A 63062.30 63062.30 0 0 1 4339305.00 6348840.00 L 4350960.00 6361050.00 L 4357065.00 6373815.00 L 4361505.00 6407670.00 L 4361505.00 6684060.00 L 4412565.00 6684060.00 L 4412565.00 6421545.00  z"/>
<path id="N" d="M 7789096.00 8750796.00 L 7811664.00 8746792.00 L 7833868.00 8735872.00 L 7849156.00 8718764.00 L 7856072.00 8703112.00 L 7859712.00 8678360.00 L 7854616.00 8651424.00 A 63373.83 63373.83 0 0 0 7812028.00 8609200.00 L 7784000.00 8603376.00 L 7701008.00 8602284.00 L 7701008.00 8500000.00 L 7667520.00 8500000.00 L 7667520.00 8751888.00 L 7789096.00 8750796.00  zM 7701008.00 8722040.00 L 7701008.00 8632132.00 L 7768712.00 8632132.00 L 7783636.00 8633588.00 L 7805840.00 8640140.00 L 7813848.00 8646328.00 L 7823312.00 8663436.00 L 7825496.00 8678360.00 L 7823676.00 8691100.00 L 7816032.00 8706388.00 L 7805112.00 8715488.00 L 7789460.00 8720948.00 L 7701008.00 8722040.00  z"/>
<path id="N" d="M 6128528.00 8661616.00 L 6140176.00 8671808.00 L 6160560.00 8682728.00 L 6176940.00 8686368.00 L 6200236.00 8684912.00 L 6218436.00 8678360.00 L 6229356.00 8669624.00 L 6239548.00 8655792.00 L 6244644.00 8633224.00 L 6245736.00 8500000.00 L 6214796.00 8500000.00 L 6214796.00 8619392.00 L 6210428.00 8639412.00 L 6202784.00 8651060.00 L 6188588.00 8658340.00 L 6174028.00 8660160.00 L 6155464.00 8655428.00 L 6141268.00 8644872.00 L 6133260.00 8632496.00 L 6129256.00 8613932.00 L 6128528.00 8500000.00 L 6097588.00 8500000.00 L 6097588.00 8751888.00 L 6128528.00 8751888.00 L 6128528.00 8661616.00  z"/>
<path id="N" d="M 8145219.00 5286997.00 L 8149800.22 5263964.20 L 8153138.00 5255906.00 L 8149800.22 5247847.80 L 8145219.00 5224815.00 A 81242.46 81242.46 0 0 0 7995095.00 5224815.00 L 7990513.78 5247847.80 L 7987176.00 5255906.00 L 7990513.78 5263964.20 L 7995095.00 5286997.00 A 81242.46 81242.46 0 0 0 8145219.00 5286997.00  z"/>
<path id="N" d="M 8697640.00 8682728.00 L 8728944.00 8682728.00 L 8728944.00 8658704.00 L 8697640.00 8658704.00 L 8698732.00 8536036.00 L 8702008.00 8530212.00 L 8710380.00 8526572.00 L 8728944.00 8527300.00 L 8732220.00 8500000.00 L 8721300.00 8498180.00 L 8699824.00 8498180.00 L 8682716.00 8502912.00 L 8671796.00 8513468.00 L 8667792.00 8529484.00 L 8666700.00 8658704.00 L 8643768.00 8658704.00 L 8643768.00 8682728.00 L 8666700.00 8682728.00 L 8666700.00 8727864.00 L 8697640.00 8746428.00 L 8697640.00 8682728.00  z"/>
<path id="N" d="M 7601636.00 8682728.00 L 7632940.00 8682728.00 L 7632940.00 8658704.00 L 7601636.00 8658704.00 L 7602728.00 8536036.00 L 7606004.00 8530212.00 L 7614376.00 8526572.00 L 7632940.00 8527300.00 L 7636216.00 8500000.00 L 7625296.00 8498180.00 L 7603820.00 8498180.00 L 7586712.00 8502912.00 L 7575792.00 8513468.00 L 7571788.00 8529484.00 L 7570696.00 8658704.00 L 7547764.00 8658704.00 L 7547764.00 8682728.00 L 7570696.00 8682728.00 L 7570696.00 8727864.00 L 7601636.00 8746428.00 L 7601636.00 8682728.00  z"/>
<path id="N" d="M 7975100.00 8685640.00 L 7996940.00 8676540.00 L 7985292.00 8648512.00 L 7971460.00 8653608.00 L 7957264.00 8653972.00 L 7944888.00 8648148.00 L 7935424.00 8635408.00 L 7929600.00 8609200.00 L 7928872.00 8500000.00 L 7897932.00 8500000.00 L 7897932.00 8682728.00 L 7925960.00 8682728.00 L 7926324.00 8655428.00 L 7929600.00 8661252.00 L 7945616.00 8680544.00 L 7961268.00 8686368.00 L 7975100.00 8685640.00  z"/>
<path id="N" d="M 4965307.00 7437747.00 L 4971648.00 7422440.00 L 4971648.00 5470000.00 L 4965307.00 5454693.00 L 4950000.00 5448352.00 L 3950000.00 5448352.00 L 3934693.00 5454693.00 L 3928352.00 5470000.00 L 3928352.00 7422440.00 L 3934693.00 7437747.00 L 3950000.00 7444088.00 L 4950000.00 7444088.00 L 4965307.00 7437747.00  zM 4928352.00 7400792.00 L 3971648.00 7400792.00 L 3971648.00 5491648.00 L 4928352.00 5491648.00 L 4928352.00 7400792.00  z"/>
<path id="N" d="M 8241912.00 8490172.00 L 8239728.00 8464328.00 L 8234632.00 8446128.00 L 8224440.00 8434844.00 L 8212792.00 8429020.00 L 8196048.00 8426108.00 L 8172024.00 8429748.00 L 8178212.00 8455956.00 L 8187676.00 8453772.00 L 8197504.00 8454136.00 L 8206604.00 8460324.00 L 8210244.00 8475612.00 L 8210972.00 8682728.00 L 8241912.00 8682728.00 L 8241912.00 8490172.00  z"/>
<path id="N" d="M 4653990.00 6300000.00 L 4606815.00 6300000.00 L 4606260.00 6599700.00 L 4600155.00 6594150.00 L 4561860.00 6567510.00 L 4512465.00 6543645.00 L 4513020.00 6589155.00 L 4546875.00 6608025.00 L 4581285.00 6634110.00 L 4604595.00 6658530.00 L 4623465.00 6685725.00 L 4653990.00 6685725.00 L 4653990.00 6300000.00  z"/>
<path id="N" d="M 8095010.00 4300000.00 L 8047835.00 4300000.00 L 8047280.00 4599700.00 L 8041175.00 4594150.00 L 8002880.00 4567510.00 L 7953485.00 4543645.00 L 7954040.00 4589155.00 L 7987895.00 4608025.00 L 8022305.00 4634110.00 L 8045615.00 4658530.00 L 8064485.00 4685725.00 L 8095010.00 4685725.00 L 8095010.00 4300000.00  z"/>
<path id="N" d="M 7333355.00 6250000.00 L 7286180.00 6250000.00 L 7285625.00 6549700.00 L 7279520.00 6544150.00 L 7241225.00 6517510.00 L 7191830.00 6493645.00 L 7192385.00 6539155.00 L 7226240.00 6558025.00 L 7260650.00 6584110.00 L 7283960.00 6608530.00 L 7302830.00 6635725.00 L 7333355.00 6635725.00 L 7333355.00 6250000.00  z"/>
<path id="N" d="M 6730615.00 4690615.00 L 6743296.00 4660000.00 L 6743296.00 4243300.00 L 6730615.00 4212685.00 L 6700000.00 4200004.00 L 6669385.00 4212685.00 L 6656704.00 4243300.00 L 6656704.00 4660000.00 L 6669385.00 4690615.00 L 6700000.00 4703296.00 L 6730615.00 4690615.00  z"/>
<path id="N" d="M 5705779.00 6680504.00 L 5712120.00 6665197.00 L 5712120.00 6195197.00 L 5705779.00 6179890.00 L 5690472.00 6173549.00 L 5675165.00 6179890.00 L 5668824.00 6195197.00 L 5668824.00 6665197.00 L 5675165.00 6680504.00 L 5690472.00 6686845.00 L 5705779.00 6680504.00  z"/>
<path id="N" d="M 8463739.00 6680504.00 L 8470080.00 6665197.00 L 8470080.00 6195197.00 L 8463739.00 6179890.00 L 8448432.00 6173549.00 L 8433125.00 6179890.00 L 8426784.00 6195197.00 L 8426784.00 6665197.00 L 8433125.00 6680504.00 L 8448432.00 6686845.00 L 8463739.00 6680504.00  z"/>
<path id="N" d="M 6845779.00 7330504.00 L 6852120.00 7315197.00 L 6845779.00 7299890.00 L 6830472.00 7293549.00 L 6360472.00 7293549.00 L 6345165.00 7299890.00 L 6338824.00 7315197.00 L 6345165.00 7330504.00 L 6360472.00 7336845.00 L 6830472.00 7336845.00 L 6845779.00 7330504.00  z"/>
<path id="N" d="M 7945779.00 5554684.00 L 7952120.00 5539377.00 L 7945779.00 5524070.00 L 7930472.00 5517729.00 L 7460472.00 5517729.00 L 7445165.00 5524070.00 L 7438824.00 5539377.00 L 7445165.00 5554684.00 L 7460472.00 5561025.00 L 7930472.00 5561025.00 L 7945779.00 5554684.00  z"/>
<path id="N" d="M 6845779.00 5554684.00 L 6852120.00 5539377.00 L 6845779.00 5524070.00 L 6830472.00 5517729.00 L 6360472.00 5517729.00 L 6345165.00 5524070.00 L 6338824.00 5539377.00 L 6345165.00 5554684.00 L 6360472.00 5561025.00 L 6830472.00 5561025.00 L 6845779.00 5554684.00  z"/>
<path id="N" d="M 7945779.00 7330504.00 L 7952120.00 7315197.00 L 7945779.00 7299890.00 L 7930472.00 7293549.00 L 7460472.00 7293549.00 L 7445165.00 7299890.00 L 7438824.00 7315197.00 L 7445165.00 7330504.00 L 7460472.00 7336845.00 L 7930472.00 7336845.00 L 7945779.00 7330504.00  z"/>
<path id="N" d="M 6067012.00 8722040.00 L 5984020.00 8722040.00 L 5984020.00 8500000.00 L 5950532.00 8500000.00 L 5950532.00 8722040.00 L 5867540.00 8722040.00 L 5867540.00 8751888.00 L 6067012.00 8751888.00 L 6067012.00 8722040.00  z"/>
<path id="N" d="M 6673800.00 8722040.00 L 6590808.00 8722040.00 L 6590808.00 8500000.00 L 6557320.00 8500000.00 L 6557320.00 8722040.00 L 6474328.00 8722040.00 L 6474328.00 8751888.00 L 6673800.00 8751888.00 L 6673800.00 8722040.00  z"/>
<path id="N" d="M 8241912.00 8715852.00 L 8210972.00 8715852.00 L 8210972.00 8751888.00 L 8241912.00 8751888.00 L 8241912.00 8715852.00  z"/>
</g>
</svg>
