<svg width="15.99999848mm" height="12.9999994mm" viewBox="0 0 6299212 5118110"  version="1.1" xmlns="http://www.w3.org/2000/svg" xmlns:xlink="http://www.w3.org/1999/xlink">
<desc>
Origin 0 0 Bound 3937007 3937007 6299212 5118110
</desc>
<g fill-rule="evenodd" fill="rgb(0, 93, 124)" stroke="black" stroke-width="1" transform="translate(0, 5118110) scale(1, -1) translate(-3937007, -3937007)">
<path id="N" d="M 4724400.82 4724395.48 m -536733.43 0 a 536733.43 536733.43 0 1 1 1073466.87 0a 536733.43 536733.43 0 1 1 -1073466.87 0M 4724409.71 4724406.07 m -397100.93 0 a 397100.93 397100.93 0 1 1 794201.86 0a 397100.93 397100.93 0 1 1 -794201.86 0"/>
<path id="N" d="M 6070483.50 5925218.05 m -327780.38 0 a 327780.38 327780.38 0 1 1 655560.76 0a 327780.38 327780.38 0 1 1 -655560.76 0M 6070471.41 5925200.73 m -183522.27 0 a 183522.27 183522.27 0 1 1 367044.53 0a 183522.27 183522.27 0 1 1 -367044.53 0"/>
<path id="N" d="M 6070483.50 6925218.05 m -327780.38 0 a 327780.38 327780.38 0 1 1 655560.76 0a 327780.38 327780.38 0 1 1 -655560.76 0M 6070471.41 6925200.73 m -183522.27 0 a 183522.27 183522.27 0 1 1 367044.53 0a 183522.27 183522.27 0 1 1 -367044.53 0"/>
<path id="N" d="M 7070483.50 6925218.05 m -327780.38 0 a 327780.38 327780.38 0 1 1 655560.76 0a 327780.38 327780.38 0 1 1 -655560.76 0M 7070471.41 6925200.73 m -183522.27 0 a 183522.27 183522.27 0 1 1 367044.53 0a 183522.27 183522.27 0 1 1 -367044.53 0"/>
<path id="N" d="M 8070483.50 6925218.05 m -327780.38 0 a 327780.38 327780.38 0 1 1 655560.76 0a 327780.38 327780.38 0 1 1 -655560.76 0M 8070471.41 6925200.73 m -183522.27 0 a 183522.27 183522.27 0 1 1 367044.53 0a 183522.27 183522.27 0 1 1 -367044.53 0"/>
<path id="N" d="M 4450002.54 6950006.49 m -373186.19 0 a 373186.19 373186.19 0 1 1 746372.38 0a 373186.19 373186.19 0 1 1 -746372.38 0M 4450001.18 6949997.74 m -224312.26 0 a 224312.26 224312.26 0 1 1 448624.51 0a 224312.26 224312.26 0 1 1 -448624.51 0"/>
<path id="N" d="M 8070483.50 5925218.05 m -327780.38 0 a 327780.38 327780.38 0 1 1 655560.76 0a 327780.38 327780.38 0 1 1 -655560.76 0M 8070471.41 5925200.73 m -183522.27 0 a 183522.27 183522.27 0 1 1 367044.53 0a 183522.27 183522.27 0 1 1 -367044.53 0"/>
<path id="N" d="M 4450002.54 5950006.49 m -373186.19 0 a 373186.19 373186.19 0 1 1 746372.38 0a 373186.19 373186.19 0 1 1 -746372.38 0M 4450001.18 5949997.74 m -224312.26 0 a 224312.26 224312.26 0 1 1 448624.51 0a 224312.26 224312.26 0 1 1 -448624.51 0"/>
<path id="N" d="M 7070483.50 5925218.05 m -327780.38 0 a 327780.38 327780.38 0 1 1 655560.76 0a 327780.38 327780.38 0 1 1 -655560.76 0M 7070471.41 5925200.73 m -183522.27 0 a 183522.27 183522.27 0 1 1 367044.53 0a 183522.27 183522.27 0 1 1 -367044.53 0"/>
</g>
</svg>
