<svg width="19.99999556mm" height="17.99999956mm" viewBox="0 0 7874014 7086614"  version="1.1" xmlns="http://www.w3.org/2000/svg" xmlns:xlink="http://www.w3.org/1999/xlink">
<desc>
Origin 3750000 11250000 Bound 3937007 3937007 7874014 7086614
</desc>
<g fill-rule="evenodd" fill="rgb(27, 144, 179)" stroke="black" stroke-width="1" transform="translate(0, 7086614) scale(1, -1) translate(-3937007, -3937007)">
<path id="N" d="M 10828494.00 7813853.00 L 10824277.37 7845880.00 L 10222417.02 7845880.00 L 9238269.00 6861731.00 L 9199997.59 6845880.00 L 6872417.05 6845880.00 L 6554120.00 6527582.05 L 6554120.00 5822591.83 L 6592674.00 5817516.00 A 358049.65 358049.65 0 1 0 6407326.00 5817516.00 L 6445880.00 5822591.83 L 6445879.00 6550000.00 L 6461731.00 6588269.00 L 6811731.00 6938269.00 L 6850002.41 6954120.00 L 9177582.02 6954120.00 L 10161731.00 7938269.00 L 10200002.41 7954120.00 L 10824277.37 7954120.00 L 10828494.00 7986147.00 A 332833.73 332833.73 0 1 0 10828494.00 7813853.00  zM 6499998.90 5471655.70 m -203916.30 0 a 203916.30 203916.30 0 1 1 407832.60 0a 203916.30 203916.30 0 1 1 -407832.60 0M 11150001.18 7899997.74 m -224312.26 0 a 224312.26 224312.26 0 1 1 448624.51 0a 224312.26 224312.26 0 1 1 -448624.51 0"/>
<path id="N" d="M 5751982.16 8231689.08 m -673205.18 0 a 673205.18 673205.18 0 1 1 1346410.35 0a 673205.18 673205.18 0 1 1 -1346410.35 0M 5751967.28 8231661.12 m -438746.88 0 a 438746.88 438746.88 0 1 1 877493.75 0a 438746.88 438746.88 0 1 1 -877493.75 0"/>
<path id="N" d="M 9220013.16 8231689.08 m -673205.18 0 a 673205.18 673205.18 0 1 1 1346410.35 0a 673205.18 673205.18 0 1 1 -1346410.35 0M 9219998.28 8231661.12 m -438746.88 0 a 438746.88 438746.88 0 1 1 877493.75 0a 438746.88 438746.88 0 1 1 -877493.75 0"/>
<path id="N" d="M 10828494.00 6813853.00 L 10824277.37 6845880.00 L 9505259.08 6845880.00 L 9321111.00 6661731.00 L 9282839.59 6645880.00 L 7972417.03 6645880.00 L 7544120.00 6217582.03 L 7544120.00 5822591.83 L 7582674.00 5817516.00 A 358049.65 358049.65 0 1 0 7397326.00 5817516.00 L 7435880.00 5822591.83 L 7435879.00 6240000.00 L 7451731.00 6278269.00 L 7911731.00 6738269.00 L 7950000.00 6754120.00 L 9260424.08 6754120.00 L 9444573.00 6938269.00 L 9482844.41 6954120.00 L 10824277.37 6954120.00 L 10828494.00 6986147.00 A 332833.73 332833.73 0 1 0 10828494.00 6813853.00  zM 7489998.90 5471655.70 m -203916.30 0 a 203916.30 203916.30 0 1 1 407832.60 0a 203916.30 203916.30 0 1 1 -407832.60 0M 11150001.18 6899997.74 m -224312.26 0 a 224312.26 224312.26 0 1 1 448624.51 0a 224312.26 224312.26 0 1 1 -448624.51 0"/>
<path id="N" d="M 8780092.00 5292622.00 L 8756419.90 5261772.10 L 9239663.00 4778529.00 L 9760751.81 4778529.00 L 9770540.00 4852880.00 A 496370.60 496370.60 0 1 0 9770540.00 4595938.00 L 9760751.81 4670289.00 L 9217245.00 4670288.00 L 9178976.00 4686140.00 L 8679881.90 5185234.10 L 8649032.00 5161562.00 A 358075.76 358075.76 0 1 0 8780092.00 5292622.00  zM 8469998.90 5471655.70 m -203916.30 0 a 203916.30 203916.30 0 1 1 407832.60 0a 203916.30 203916.30 0 1 1 -407832.60 0M 10250000.71 4724406.07 m -397100.93 0 a 397100.93 397100.93 0 1 1 794201.86 0a 397100.93 397100.93 0 1 1 -794201.86 0"/>
</g>
</svg>
