<svg width="19.99999556mm" height="17.99999956mm" viewBox="0 0 7874014 7086614"  version="1.1" xmlns="http://www.w3.org/2000/svg" xmlns:xlink="http://www.w3.org/1999/xlink">
<desc>
Origin 3750000 11250000 Bound 3937007 3937007 7874014 7086614
</desc>
<g fill-rule="evenodd" fill="rgb(40, 190, 190)" stroke="black" stroke-width="1" transform="translate(0, 7086614) scale(1, -1) translate(-3937007, -3937007)">
<path id="N" d="M 10249993.92 4724398.99 m -496384.78 0 a 496384.78 496384.78 0 1 1 992769.55 0a 496384.78 496384.78 0 1 1 -992769.55 0M 10250000.71 4724406.07 m -397100.93 0 a 397100.93 397100.93 0 1 1 794201.86 0a 397100.93 397100.93 0 1 1 -794201.86 0"/>
<path id="N" d="M 8470007.76 5471665.57 m -358049.65 0 a 358049.65 358049.65 0 1 1 716099.31 0a 358049.65 358049.65 0 1 1 -716099.31 0M 8469998.90 5471655.70 m -203916.30 0 a 203916.30 203916.30 0 1 1 407832.60 0a 203916.30 203916.30 0 1 1 -407832.60 0"/>
<path id="N" d="M 5751982.16 8231689.08 m -673205.18 0 a 673205.18 673205.18 0 1 1 1346410.35 0a 673205.18 673205.18 0 1 1 -1346410.35 0M 5751967.28 8231661.12 m -438746.88 0 a 438746.88 438746.88 0 1 1 877493.75 0a 438746.88 438746.88 0 1 1 -877493.75 0"/>
<path id="N" d="M 9220013.16 8231689.08 m -673205.18 0 a 673205.18 673205.18 0 1 1 1346410.35 0a 673205.18 673205.18 0 1 1 -1346410.35 0M 9219998.28 8231661.12 m -438746.88 0 a 438746.88 438746.88 0 1 1 877493.75 0a 438746.88 438746.88 0 1 1 -877493.75 0"/>
<path id="N" d="M 7490007.76 5471665.57 m -358049.65 0 a 358049.65 358049.65 0 1 1 716099.31 0a 358049.65 358049.65 0 1 1 -716099.31 0M 7489998.90 5471655.70 m -203916.30 0 a 203916.30 203916.30 0 1 1 407832.60 0a 203916.30 203916.30 0 1 1 -407832.60 0"/>
<path id="N" d="M 11150007.97 6900012.05 m -332833.73 0 a 332833.73 332833.73 0 1 1 665667.47 0a 332833.73 332833.73 0 1 1 -665667.47 0M 11150001.18 6899997.74 m -224312.26 0 a 224312.26 224312.26 0 1 1 448624.51 0a 224312.26 224312.26 0 1 1 -448624.51 0"/>
<path id="N" d="M 11150007.97 7900012.05 m -332833.73 0 a 332833.73 332833.73 0 1 1 665667.47 0a 332833.73 332833.73 0 1 1 -665667.47 0M 11150001.18 7899997.74 m -224312.26 0 a 224312.26 224312.26 0 1 1 448624.51 0a 224312.26 224312.26 0 1 1 -448624.51 0"/>
<path id="N" d="M 6500007.76 5471665.57 m -358049.65 0 a 358049.65 358049.65 0 1 1 716099.31 0a 358049.65 358049.65 0 1 1 -716099.31 0M 6499998.90 5471655.70 m -203916.30 0 a 203916.30 203916.30 0 1 1 407832.60 0a 203916.30 203916.30 0 1 1 -407832.60 0"/>
</g>
</svg>
