<svg width="72.99999878mm" height="38.99999566mm" viewBox="0 0 28740157 15354329"  version="1.1" xmlns="http://www.w3.org/2000/svg" xmlns:xlink="http://www.w3.org/1999/xlink">
<desc>
Origin 3750000 19500000 Bound 3937007 3937007 28740157 15354329
</desc>
<g fill-rule="evenodd" fill="rgb(207, 224, 229)" stroke="black" stroke-width="1" transform="translate(0, 15354329) scale(1, -1) translate(-3937007, -3937007)">
<path id="N" d="M 4900025.00 13852395.00 L 4923890.00 13845180.00 L 4936100.00 13838520.00 L 4952195.00 13825755.00 L 4969400.00 13801890.00 L 4979945.00 13775805.00 L 4983275.00 13760265.00 L 4936100.00 13756380.00 L 4931105.00 13771920.00 L 4921670.00 13791345.00 L 4910570.00 13803000.00 L 4890035.00 13813545.00 L 4866725.00 13816875.00 L 4843970.00 13811325.00 L 4829540.00 13803555.00 L 4806230.00 13777470.00 L 4795130.00 13755825.00 L 4790135.00 13739175.00 L 4784585.00 13705875.00 L 4782920.00 13668690.00 L 4799570.00 13688670.00 L 4823435.00 13706430.00 L 4839530.00 13713090.00 L 4865615.00 13718640.00 L 4887815.00 13718085.00 L 4916120.00 13710870.00 L 4943315.00 13695885.00 L 4956635.00 13683675.00 L 4972730.00 13659810.00 L 4984385.00 13631505.00 L 4989380.00 13593765.00 L 4987160.00 13572675.00 L 4978835.00 13538820.00 L 4967180.00 13516620.00 L 4948865.00 13493865.00 L 4930550.00 13479435.00 L 4912790.00 13471665.00 L 4881155.00 13463895.00 L 4865615.00 13463340.00 L 4841195.00 13467225.00 L 4811225.00 13477215.00 L 4787360.00 13492200.00 L 4769045.00 13511070.00 L 4754060.00 13540485.00 L 4744070.00 13572120.00 L 4736855.00 13614855.00 L 4735745.00 13667580.00 L 4742405.00 13724190.00 L 4752395.00 13764705.00 L 4769045.00 13801335.00 L 4786250.00 13821870.00 L 4808450.00 13837410.00 L 4832315.00 13849065.00 L 4851740.00 13854060.00 L 4900025.00 13852395.00  zM 4866170.00 13677570.00 A 79906.48 79906.48 0 0 1 4811780.00 13654260.00 L 4804565.00 13645380.00 A 93786.43 93786.43 0 0 1 4790690.00 13579335.00 A 95558.65 95558.65 0 0 1 4821770.00 13518840.00 L 4835645.00 13509960.00 L 4860065.00 13502745.00 L 4878380.00 13503300.00 L 4902245.00 13512180.00 L 4915565.00 13521615.00 L 4930550.00 13543260.00 L 4937765.00 13563795.00 L 4941095.00 13592100.00 L 4938320.00 13614300.00 L 4932215.00 13634835.00 L 4919450.00 13654260.00 L 4897250.00 13670355.00 L 4877825.00 13676460.00 L 4866170.00 13677570.00  z"/>
<path id="N" d="M 27078865.00 14752395.00 L 27102730.00 14745180.00 L 27114940.00 14738520.00 L 27131035.00 14725755.00 L 27148240.00 14701890.00 L 27158785.00 14675805.00 L 27162115.00 14660265.00 L 27114940.00 14656380.00 L 27109945.00 14671920.00 L 27100510.00 14691345.00 L 27089410.00 14703000.00 L 27068875.00 14713545.00 L 27045565.00 14716875.00 L 27022810.00 14711325.00 L 27008380.00 14703555.00 L 26985070.00 14677470.00 L 26973970.00 14655825.00 L 26968975.00 14639175.00 L 26963425.00 14605875.00 L 26961760.00 14568690.00 L 26978410.00 14588670.00 L 27002275.00 14606430.00 L 27018370.00 14613090.00 L 27044455.00 14618640.00 L 27066655.00 14618085.00 L 27094960.00 14610870.00 L 27122155.00 14595885.00 L 27135475.00 14583675.00 L 27151570.00 14559810.00 L 27163225.00 14531505.00 L 27168220.00 14493765.00 L 27166000.00 14472675.00 L 27157675.00 14438820.00 L 27146020.00 14416620.00 L 27127705.00 14393865.00 L 27109390.00 14379435.00 L 27091630.00 14371665.00 L 27059995.00 14363895.00 L 27044455.00 14363340.00 L 27020035.00 14367225.00 L 26990065.00 14377215.00 L 26966200.00 14392200.00 L 26947885.00 14411070.00 L 26932900.00 14440485.00 L 26922910.00 14472120.00 L 26915695.00 14514855.00 L 26914585.00 14567580.00 L 26921245.00 14624190.00 L 26931235.00 14664705.00 L 26947885.00 14701335.00 L 26965090.00 14721870.00 L 26987290.00 14737410.00 L 27011155.00 14749065.00 L 27030580.00 14754060.00 L 27078865.00 14752395.00  zM 27045010.00 14577570.00 A 79906.48 79906.48 0 0 1 26990620.00 14554260.00 L 26983405.00 14545380.00 A 93786.43 93786.43 0 0 1 26969530.00 14479335.00 A 95558.65 95558.65 0 0 1 27000610.00 14418840.00 L 27014485.00 14409960.00 L 27038905.00 14402745.00 L 27057220.00 14403300.00 L 27081085.00 14412180.00 L 27094405.00 14421615.00 L 27109390.00 14443260.00 L 27116605.00 14463795.00 L 27119935.00 14492100.00 L 27117160.00 14514300.00 L 27111055.00 14534835.00 L 27098290.00 14554260.00 L 27076090.00 14570355.00 L 27056665.00 14576460.00 L 27045010.00 14577570.00  z"/>
<path id="N" d="M 10472575.00 15929610.00 L 10516975.00 15920175.00 L 10533070.00 15913515.00 L 10556935.00 15900750.00 L 10584130.00 15876885.00 L 10605775.00 15850245.00 A 228417.11 228417.11 0 0 0 10634080.00 15771990.00 L 10637410.00 15724260.00 L 10631305.00 15675975.00 L 10622980.00 15646005.00 L 10606330.00 15613815.00 L 10580245.00 15580515.00 L 10610770.00 15561090.00 L 10644625.00 15544995.00 L 10629085.00 15510030.00 L 10591345.00 15528345.00 L 10546390.00 15557205.00 L 10539730.00 15553320.00 L 10505320.00 15541110.00 L 10471465.00 15534450.00 L 10447600.00 15533340.00 L 10406530.00 15539445.00 L 10373785.00 15549990.00 L 10356025.00 15559425.00 L 10323280.00 15586620.00 L 10302190.00 15612705.00 L 10290535.00 15633240.00 L 10277215.00 15673755.00 L 10271110.00 15710940.00 L 10270555.00 15745905.00 L 10275550.00 15781980.00 L 10284985.00 15817500.00 L 10294975.00 15839700.00 L 10318840.00 15873000.00 L 10343260.00 15896310.00 L 10366015.00 15910185.00 L 10400425.00 15922950.00 L 10434280.00 15929610.00 L 10472575.00 15929610.00  zM 10448155.00 15886875.00 L 10413190.00 15879660.00 L 10389880.00 15870225.00 L 10366570.00 15854685.00 L 10353805.00 15840255.00 L 10337155.00 15810840.00 A 203786.00 203786.00 0 0 1 10325500.00 15697620.00 L 10333825.00 15660990.00 L 10346590.00 15633240.00 L 10360465.00 15614925.00 L 10384885.00 15596610.00 L 10405975.00 15586065.00 L 10423735.00 15580515.00 L 10453705.00 15576630.00 L 10478680.00 15578850.00 L 10505320.00 15586620.00 L 10482565.00 15598830.00 L 10454815.00 15608820.00 L 10468135.00 15645450.00 L 10478680.00 15642120.00 L 10516975.00 15624915.00 L 10540840.00 15609375.00 L 10542505.00 15610485.00 L 10563040.00 15639345.00 L 10574695.00 15667095.00 L 10583575.00 15702615.00 L 10585240.00 15739245.00 L 10578580.00 15785865.00 L 10569145.00 15813615.00 L 10557490.00 15833040.00 L 10542505.00 15850800.00 L 10521415.00 15868560.00 L 10492555.00 15880770.00 L 10467580.00 15886320.00 L 10448155.00 15886875.00  z"/>
<path id="N" d="M 10844425.00 15919620.00 L 10868845.00 15909630.00 L 10892710.00 15890760.00 L 10904920.00 15875220.00 L 10914910.00 15853020.00 L 10919350.00 15825825.00 L 10916020.00 15803625.00 L 10905475.00 15780315.00 L 10889935.00 15763665.00 L 10866625.00 15748125.00 L 10877725.00 15744240.00 L 10903255.00 15730920.00 L 10919350.00 15715380.00 L 10925455.00 15705390.00 A 108451.92 108451.92 0 0 0 10933780.00 15623805.00 L 10922680.00 15596610.00 L 10907695.00 15574965.00 L 10891045.00 15559980.00 L 10869400.00 15547770.00 L 10837765.00 15536670.00 L 10808350.00 15533340.00 L 10778935.00 15537225.00 L 10751740.00 15546105.00 L 10731205.00 15558315.00 L 10716775.00 15571635.00 L 10700680.00 15595500.00 L 10689580.00 15624360.00 L 10686805.00 15641565.00 L 10733980.00 15647115.00 L 10737310.00 15633795.00 L 10748965.00 15606045.00 L 10761175.00 15589395.00 L 10781155.00 15577740.00 L 10798915.00 15572745.00 L 10812235.00 15572190.00 L 10837210.00 15577740.00 L 10856080.00 15587175.00 L 10864960.00 15594945.00 A 91755.55 91755.55 0 0 1 10888270.00 15652665.00 L 10885495.00 15670980.00 L 10879390.00 15688740.00 L 10866625.00 15705945.00 L 10852195.00 15716490.00 L 10834990.00 15723705.00 L 10812790.00 15727035.00 L 10779490.00 15722040.00 L 10785040.00 15763665.00 L 10797250.00 15763110.00 L 10828330.00 15769770.00 L 10846645.00 15778650.00 L 10854415.00 15785310.00 A 63277.52 63277.52 0 0 1 10871065.00 15826935.00 L 10866625.00 15848580.00 L 10859410.00 15863010.00 L 10846090.00 15875220.00 L 10826665.00 15884100.00 L 10807795.00 15886875.00 L 10784485.00 15882435.00 L 10769500.00 15875220.00 L 10756180.00 15862455.00 L 10744525.00 15840810.00 L 10738975.00 15818055.00 L 10691800.00 15826935.00 L 10693465.00 15834150.00 L 10705120.00 15865230.00 L 10720105.00 15889095.00 L 10731205.00 15900195.00 L 10746745.00 15910185.00 L 10775605.00 15921840.00 L 10798360.00 15925725.00 L 10844425.00 15919620.00  z"/>
<path id="N" d="M 31025585.00 15359620.00 L 31050005.00 15349630.00 L 31073870.00 15330760.00 L 31086080.00 15315220.00 L 31096070.00 15293020.00 L 31100510.00 15265825.00 L 31097180.00 15243625.00 L 31086635.00 15220315.00 L 31071095.00 15203665.00 L 31047785.00 15188125.00 L 31058885.00 15184240.00 L 31084415.00 15170920.00 L 31100510.00 15155380.00 L 31106615.00 15145390.00 A 108451.92 108451.92 0 0 0 31114940.00 15063805.00 L 31103840.00 15036610.00 L 31088855.00 15014965.00 L 31072205.00 14999980.00 L 31050560.00 14987770.00 L 31018925.00 14976670.00 L 30989510.00 14973340.00 L 30960095.00 14977225.00 L 30932900.00 14986105.00 L 30912365.00 14998315.00 L 30897935.00 15011635.00 L 30881840.00 15035500.00 L 30870740.00 15064360.00 L 30867965.00 15081565.00 L 30915140.00 15087115.00 L 30918470.00 15073795.00 L 30930125.00 15046045.00 L 30942335.00 15029395.00 L 30962315.00 15017740.00 L 30980075.00 15012745.00 L 30993395.00 15012190.00 L 31018370.00 15017740.00 L 31037240.00 15027175.00 L 31046120.00 15034945.00 A 91755.55 91755.55 0 0 1 31069430.00 15092665.00 L 31066655.00 15110980.00 L 31060550.00 15128740.00 L 31047785.00 15145945.00 L 31033355.00 15156490.00 L 31016150.00 15163705.00 L 30993950.00 15167035.00 L 30960650.00 15162040.00 L 30966200.00 15203665.00 L 30978410.00 15203110.00 L 31009490.00 15209770.00 L 31027805.00 15218650.00 L 31035575.00 15225310.00 A 63277.52 63277.52 0 0 1 31052225.00 15266935.00 L 31047785.00 15288580.00 L 31040570.00 15303010.00 L 31027250.00 15315220.00 L 31007825.00 15324100.00 L 30988955.00 15326875.00 L 30965645.00 15322435.00 L 30950660.00 15315220.00 L 30937340.00 15302455.00 L 30925685.00 15280810.00 L 30920135.00 15258055.00 L 30872960.00 15266935.00 L 30874625.00 15274150.00 L 30886280.00 15305230.00 L 30901265.00 15329095.00 L 30912365.00 15340195.00 L 30927905.00 15350185.00 L 30956765.00 15361840.00 L 30979520.00 15365725.00 L 31025585.00 15359620.00  z"/>
<path id="N" d="M 21682575.00 16059610.00 L 21726975.00 16050175.00 L 21743070.00 16043515.00 L 21766935.00 16030750.00 L 21794130.00 16006885.00 L 21815775.00 15980245.00 A 228417.11 228417.11 0 0 0 21844080.00 15901990.00 L 21847410.00 15854260.00 L 21841305.00 15805975.00 L 21832980.00 15776005.00 L 21816330.00 15743815.00 L 21790245.00 15710515.00 L 21820770.00 15691090.00 L 21854625.00 15674995.00 L 21839085.00 15640030.00 L 21801345.00 15658345.00 L 21756390.00 15687205.00 L 21749730.00 15683320.00 L 21715320.00 15671110.00 L 21681465.00 15664450.00 L 21657600.00 15663340.00 L 21616530.00 15669445.00 L 21583785.00 15679990.00 L 21566025.00 15689425.00 L 21533280.00 15716620.00 L 21512190.00 15742705.00 L 21500535.00 15763240.00 L 21487215.00 15803755.00 L 21481110.00 15840940.00 L 21480555.00 15875905.00 L 21485550.00 15911980.00 L 21494985.00 15947500.00 L 21504975.00 15969700.00 L 21528840.00 16003000.00 L 21553260.00 16026310.00 L 21576015.00 16040185.00 L 21610425.00 16052950.00 L 21644280.00 16059610.00 L 21682575.00 16059610.00  zM 21658155.00 16016875.00 L 21623190.00 16009660.00 L 21599880.00 16000225.00 L 21576570.00 15984685.00 L 21563805.00 15970255.00 L 21547155.00 15940840.00 A 203786.00 203786.00 0 0 1 21535500.00 15827620.00 L 21543825.00 15790990.00 L 21556590.00 15763240.00 L 21570465.00 15744925.00 L 21594885.00 15726610.00 L 21615975.00 15716065.00 L 21633735.00 15710515.00 L 21663705.00 15706630.00 L 21688680.00 15708850.00 L 21715320.00 15716620.00 L 21692565.00 15728830.00 L 21664815.00 15738820.00 L 21678135.00 15775450.00 L 21688680.00 15772120.00 L 21726975.00 15754915.00 L 21750840.00 15739375.00 L 21752505.00 15740485.00 L 21773040.00 15769345.00 L 21784695.00 15797095.00 L 21793575.00 15832615.00 L 21795240.00 15869245.00 L 21788580.00 15915865.00 L 21779145.00 15943615.00 L 21767490.00 15963040.00 L 21752505.00 15980800.00 L 21731415.00 15998560.00 L 21702555.00 16010770.00 L 21677580.00 16016320.00 L 21658155.00 16016875.00  z"/>
<path id="N" d="M 14032575.00 16309610.00 L 14076975.00 16300175.00 L 14093070.00 16293515.00 L 14116935.00 16280750.00 L 14144130.00 16256885.00 L 14165775.00 16230245.00 A 228417.11 228417.11 0 0 0 14194080.00 16151990.00 L 14197410.00 16104260.00 L 14191305.00 16055975.00 L 14182980.00 16026005.00 L 14166330.00 15993815.00 L 14140245.00 15960515.00 L 14170770.00 15941090.00 L 14204625.00 15924995.00 L 14189085.00 15890030.00 L 14151345.00 15908345.00 L 14106390.00 15937205.00 L 14099730.00 15933320.00 L 14065320.00 15921110.00 L 14031465.00 15914450.00 L 14007600.00 15913340.00 L 13966530.00 15919445.00 L 13933785.00 15929990.00 L 13916025.00 15939425.00 L 13883280.00 15966620.00 L 13862190.00 15992705.00 L 13850535.00 16013240.00 L 13837215.00 16053755.00 L 13831110.00 16090940.00 L 13830555.00 16125905.00 L 13835550.00 16161980.00 L 13844985.00 16197500.00 L 13854975.00 16219700.00 L 13878840.00 16253000.00 L 13903260.00 16276310.00 L 13926015.00 16290185.00 L 13960425.00 16302950.00 L 13994280.00 16309610.00 L 14032575.00 16309610.00  zM 14008155.00 16266875.00 L 13973190.00 16259660.00 L 13949880.00 16250225.00 L 13926570.00 16234685.00 L 13913805.00 16220255.00 L 13897155.00 16190840.00 A 203786.00 203786.00 0 0 1 13885500.00 16077620.00 L 13893825.00 16040990.00 L 13906590.00 16013240.00 L 13920465.00 15994925.00 L 13944885.00 15976610.00 L 13965975.00 15966065.00 L 13983735.00 15960515.00 L 14013705.00 15956630.00 L 14038680.00 15958850.00 L 14065320.00 15966620.00 L 14042565.00 15978830.00 L 14014815.00 15988820.00 L 14028135.00 16025450.00 L 14038680.00 16022120.00 L 14076975.00 16004915.00 L 14100840.00 15989375.00 L 14102505.00 15990485.00 L 14123040.00 16019345.00 L 14134695.00 16047095.00 L 14143575.00 16082615.00 L 14145240.00 16119245.00 L 14138580.00 16165865.00 L 14129145.00 16193615.00 L 14117490.00 16213040.00 L 14102505.00 16230800.00 L 14081415.00 16248560.00 L 14052555.00 16260770.00 L 14027580.00 16266320.00 L 14008155.00 16266875.00  z"/>
<path id="N" d="M 8642575.00 14419610.00 L 8686975.00 14410175.00 L 8703070.00 14403515.00 L 8726935.00 14390750.00 L 8754130.00 14366885.00 L 8775775.00 14340245.00 A 228417.11 228417.11 0 0 0 8804080.00 14261990.00 L 8807410.00 14214260.00 L 8801305.00 14165975.00 L 8792980.00 14136005.00 L 8776330.00 14103815.00 L 8750245.00 14070515.00 L 8780770.00 14051090.00 L 8814625.00 14034995.00 L 8799085.00 14000030.00 L 8761345.00 14018345.00 L 8716390.00 14047205.00 L 8709730.00 14043320.00 L 8675320.00 14031110.00 L 8641465.00 14024450.00 L 8617600.00 14023340.00 L 8576530.00 14029445.00 L 8543785.00 14039990.00 L 8526025.00 14049425.00 L 8493280.00 14076620.00 L 8472190.00 14102705.00 L 8460535.00 14123240.00 L 8447215.00 14163755.00 L 8441110.00 14200940.00 L 8440555.00 14235905.00 L 8445550.00 14271980.00 L 8454985.00 14307500.00 L 8464975.00 14329700.00 L 8488840.00 14363000.00 L 8513260.00 14386310.00 L 8536015.00 14400185.00 L 8570425.00 14412950.00 L 8604280.00 14419610.00 L 8642575.00 14419610.00  zM 8618155.00 14376875.00 L 8583190.00 14369660.00 L 8559880.00 14360225.00 L 8536570.00 14344685.00 L 8523805.00 14330255.00 L 8507155.00 14300840.00 A 203786.00 203786.00 0 0 1 8495500.00 14187620.00 L 8503825.00 14150990.00 L 8516590.00 14123240.00 L 8530465.00 14104925.00 L 8554885.00 14086610.00 L 8575975.00 14076065.00 L 8593735.00 14070515.00 L 8623705.00 14066630.00 L 8648680.00 14068850.00 L 8675320.00 14076620.00 L 8652565.00 14088830.00 L 8624815.00 14098820.00 L 8638135.00 14135450.00 L 8648680.00 14132120.00 L 8686975.00 14114915.00 L 8710840.00 14099375.00 L 8712505.00 14100485.00 L 8733040.00 14129345.00 L 8744695.00 14157095.00 L 8753575.00 14192615.00 L 8755240.00 14229245.00 L 8748580.00 14275865.00 L 8739145.00 14303615.00 L 8727490.00 14323040.00 L 8712505.00 14340800.00 L 8691415.00 14358560.00 L 8662555.00 14370770.00 L 8637580.00 14376320.00 L 8618155.00 14376875.00  z"/>
<path id="N" d="M 26702575.00 14759610.00 L 26746975.00 14750175.00 L 26763070.00 14743515.00 L 26786935.00 14730750.00 L 26814130.00 14706885.00 L 26835775.00 14680245.00 A 228417.11 228417.11 0 0 0 26864080.00 14601990.00 L 26867410.00 14554260.00 L 26861305.00 14505975.00 L 26852980.00 14476005.00 L 26836330.00 14443815.00 L 26810245.00 14410515.00 L 26840770.00 14391090.00 L 26874625.00 14374995.00 L 26859085.00 14340030.00 L 26821345.00 14358345.00 L 26776390.00 14387205.00 L 26769730.00 14383320.00 L 26735320.00 14371110.00 L 26701465.00 14364450.00 L 26677600.00 14363340.00 L 26636530.00 14369445.00 L 26603785.00 14379990.00 L 26586025.00 14389425.00 L 26553280.00 14416620.00 L 26532190.00 14442705.00 L 26520535.00 14463240.00 L 26507215.00 14503755.00 L 26501110.00 14540940.00 L 26500555.00 14575905.00 L 26505550.00 14611980.00 L 26514985.00 14647500.00 L 26524975.00 14669700.00 L 26548840.00 14703000.00 L 26573260.00 14726310.00 L 26596015.00 14740185.00 L 26630425.00 14752950.00 L 26664280.00 14759610.00 L 26702575.00 14759610.00  zM 26678155.00 14716875.00 L 26643190.00 14709660.00 L 26619880.00 14700225.00 L 26596570.00 14684685.00 L 26583805.00 14670255.00 L 26567155.00 14640840.00 A 203786.00 203786.00 0 0 1 26555500.00 14527620.00 L 26563825.00 14490990.00 L 26576590.00 14463240.00 L 26590465.00 14444925.00 L 26614885.00 14426610.00 L 26635975.00 14416065.00 L 26653735.00 14410515.00 L 26683705.00 14406630.00 L 26708680.00 14408850.00 L 26735320.00 14416620.00 L 26712565.00 14428830.00 L 26684815.00 14438820.00 L 26698135.00 14475450.00 L 26708680.00 14472120.00 L 26746975.00 14454915.00 L 26770840.00 14439375.00 L 26772505.00 14440485.00 L 26793040.00 14469345.00 L 26804695.00 14497095.00 L 26813575.00 14532615.00 L 26815240.00 14569245.00 L 26808580.00 14615865.00 L 26799145.00 14643615.00 L 26787490.00 14663040.00 L 26772505.00 14680800.00 L 26751415.00 14698560.00 L 26722555.00 14710770.00 L 26697580.00 14716320.00 L 26678155.00 14716875.00  z"/>
<path id="N" d="M 24042575.00 15019610.00 L 24086975.00 15010175.00 L 24103070.00 15003515.00 L 24126935.00 14990750.00 L 24154130.00 14966885.00 L 24175775.00 14940245.00 A 228417.11 228417.11 0 0 0 24204080.00 14861990.00 L 24207410.00 14814260.00 L 24201305.00 14765975.00 L 24192980.00 14736005.00 L 24176330.00 14703815.00 L 24150245.00 14670515.00 L 24180770.00 14651090.00 L 24214625.00 14634995.00 L 24199085.00 14600030.00 L 24161345.00 14618345.00 L 24116390.00 14647205.00 L 24109730.00 14643320.00 L 24075320.00 14631110.00 L 24041465.00 14624450.00 L 24017600.00 14623340.00 L 23976530.00 14629445.00 L 23943785.00 14639990.00 L 23926025.00 14649425.00 L 23893280.00 14676620.00 L 23872190.00 14702705.00 L 23860535.00 14723240.00 L 23847215.00 14763755.00 L 23841110.00 14800940.00 L 23840555.00 14835905.00 L 23845550.00 14871980.00 L 23854985.00 14907500.00 L 23864975.00 14929700.00 L 23888840.00 14963000.00 L 23913260.00 14986310.00 L 23936015.00 15000185.00 L 23970425.00 15012950.00 L 24004280.00 15019610.00 L 24042575.00 15019610.00  zM 24018155.00 14976875.00 L 23983190.00 14969660.00 L 23959880.00 14960225.00 L 23936570.00 14944685.00 L 23923805.00 14930255.00 L 23907155.00 14900840.00 A 203786.00 203786.00 0 0 1 23895500.00 14787620.00 L 23903825.00 14750990.00 L 23916590.00 14723240.00 L 23930465.00 14704925.00 L 23954885.00 14686610.00 L 23975975.00 14676065.00 L 23993735.00 14670515.00 L 24023705.00 14666630.00 L 24048680.00 14668850.00 L 24075320.00 14676620.00 L 24052565.00 14688830.00 L 24024815.00 14698820.00 L 24038135.00 14735450.00 L 24048680.00 14732120.00 L 24086975.00 14714915.00 L 24110840.00 14699375.00 L 24112505.00 14700485.00 L 24133040.00 14729345.00 L 24144695.00 14757095.00 L 24153575.00 14792615.00 L 24155240.00 14829245.00 L 24148580.00 14875865.00 L 24139145.00 14903615.00 L 24127490.00 14923040.00 L 24112505.00 14940800.00 L 24091415.00 14958560.00 L 24062555.00 14970770.00 L 24037580.00 14976320.00 L 24018155.00 14976875.00  z"/>
<path id="N" d="M 19092195.00 18491285.00 L 19115505.00 18481295.00 L 19139370.00 18463535.00 L 19154355.00 18445775.00 L 19163235.00 18428570.00 L 19169895.00 18409145.00 L 19173780.00 18385835.00 L 19124940.00 18382505.00 L 19119945.00 18402485.00 L 19111620.00 18420245.00 L 19097745.00 18436340.00 L 19088310.00 18442445.00 L 19060560.00 18452435.00 L 19031145.00 18455210.00 L 18994515.00 18450770.00 L 18972870.00 18443555.00 L 18960660.00 18435230.00 L 18946785.00 18414140.00 L 18943455.00 18397490.00 L 18945120.00 18385835.00 L 18952890.00 18369185.00 L 18963435.00 18359750.00 L 18996735.00 18345875.00 L 19035030.00 18335885.00 L 19109400.00 18315350.00 L 19131045.00 18305360.00 L 19154910.00 18288155.00 L 19172115.00 18268175.00 L 19183215.00 18239315.00 L 19185435.00 18212675.00 L 19178220.00 18180485.00 L 19167675.00 18159950.00 L 19154910.00 18144965.00 L 19128825.00 18124430.00 L 19111620.00 18116105.00 L 19072215.00 18105560.00 L 19034475.00 18103340.00 L 18984525.00 18109445.00 L 18955665.00 18118325.00 L 18944010.00 18124430.00 L 18917925.00 18143855.00 L 18900720.00 18164390.00 L 18894615.00 18175490.00 L 18883515.00 18206015.00 L 18880185.00 18233210.00 L 18927915.00 18237650.00 L 18935685.00 18204905.00 L 18945675.00 18187145.00 L 18964545.00 18169385.00 L 18981750.00 18159950.00 L 19007835.00 18152180.00 L 19041135.00 18148850.00 L 19074990.00 18152180.00 A 88495.45 88495.45 0 0 1 19126050.00 18181595.00 A 55223.25 55223.25 0 0 1 19129380.00 18240425.00 L 19112730.00 18256520.00 L 19090530.00 18268175.00 L 19032255.00 18284270.00 L 18968985.00 18302030.00 L 18944010.00 18313130.00 L 18920145.00 18331445.00 L 18905715.00 18350315.00 L 18896835.00 18375845.00 L 18894615.00 18395270.00 L 18901275.00 18429680.00 L 18910710.00 18448550.00 L 18929580.00 18469085.00 L 18947895.00 18481850.00 L 18971205.00 18491840.00 L 19015050.00 18500165.00 L 19055010.00 18499055.00 L 19092195.00 18491285.00  z"/>
<path id="N" d="M 6882195.00 18221285.00 L 6905505.00 18211295.00 L 6929370.00 18193535.00 L 6944355.00 18175775.00 L 6953235.00 18158570.00 L 6959895.00 18139145.00 L 6963780.00 18115835.00 L 6914940.00 18112505.00 L 6909945.00 18132485.00 L 6901620.00 18150245.00 L 6887745.00 18166340.00 L 6878310.00 18172445.00 L 6850560.00 18182435.00 L 6821145.00 18185210.00 L 6784515.00 18180770.00 L 6762870.00 18173555.00 L 6750660.00 18165230.00 L 6736785.00 18144140.00 L 6733455.00 18127490.00 L 6735120.00 18115835.00 L 6742890.00 18099185.00 L 6753435.00 18089750.00 L 6786735.00 18075875.00 L 6825030.00 18065885.00 L 6899400.00 18045350.00 L 6921045.00 18035360.00 L 6944910.00 18018155.00 L 6962115.00 17998175.00 L 6973215.00 17969315.00 L 6975435.00 17942675.00 L 6968220.00 17910485.00 L 6957675.00 17889950.00 L 6944910.00 17874965.00 L 6918825.00 17854430.00 L 6901620.00 17846105.00 L 6862215.00 17835560.00 L 6824475.00 17833340.00 L 6774525.00 17839445.00 L 6745665.00 17848325.00 L 6734010.00 17854430.00 L 6707925.00 17873855.00 L 6690720.00 17894390.00 L 6684615.00 17905490.00 L 6673515.00 17936015.00 L 6670185.00 17963210.00 L 6717915.00 17967650.00 L 6725685.00 17934905.00 L 6735675.00 17917145.00 L 6754545.00 17899385.00 L 6771750.00 17889950.00 L 6797835.00 17882180.00 L 6831135.00 17878850.00 L 6864990.00 17882180.00 A 88495.45 88495.45 0 0 1 6916050.00 17911595.00 A 55223.25 55223.25 0 0 1 6919380.00 17970425.00 L 6902730.00 17986520.00 L 6880530.00 17998175.00 L 6822255.00 18014270.00 L 6758985.00 18032030.00 L 6734010.00 18043130.00 L 6710145.00 18061445.00 L 6695715.00 18080315.00 L 6686835.00 18105845.00 L 6684615.00 18125270.00 L 6691275.00 18159680.00 L 6700710.00 18178550.00 L 6719580.00 18199085.00 L 6737895.00 18211850.00 L 6761205.00 18221840.00 L 6805050.00 18230165.00 L 6845010.00 18229055.00 L 6882195.00 18221285.00  z"/>
<path id="N" d="M 8349148.00 18558378.00 L 8382454.00 18547458.00 L 8400472.00 18538176.00 L 8426680.00 18520158.00 L 8450704.00 18497772.00 L 8473636.00 18466104.00 L 8484010.00 18443718.00 L 8495476.00 18406044.00 L 8498752.00 18378744.00 L 8498206.00 18350898.00 L 8488378.00 18307764.00 A 196032.33 196032.33 0 0 0 8432140.00 18222588.00 L 8417398.00 18211122.00 L 8392828.00 18196926.00 L 8357338.00 18183276.00 L 8322940.00 18176178.00 L 8299462.00 18175086.00 L 8258512.00 18181638.00 L 8225206.00 18192558.00 L 8203366.00 18203478.00 L 8169514.00 18229686.00 L 8146036.00 18256440.00 L 8135662.00 18273366.00 L 8125288.00 18295752.00 L 8113822.00 18333426.00 L 8110000.00 18370008.00 L 8112184.00 18394032.00 L 8120920.00 18431706.00 L 8136208.00 18467196.00 L 8146582.00 18483030.00 L 8177158.00 18516882.00 L 8208826.00 18539268.00 L 8220838.00 18544728.00 L 8252506.00 18556194.00 L 8286358.00 18563292.00 L 8349148.00 18558378.00  zM 8304376.00 18532170.00 L 8266702.00 18527256.00 L 8239402.00 18517974.00 L 8214832.00 18504870.00 L 8182618.00 18476478.00 L 8161870.00 18446448.00 L 8149312.00 18413688.00 A 151916.02 151916.02 0 0 1 8150950.00 18317592.00 L 8163508.00 18288108.00 L 8178796.00 18266814.00 L 8197906.00 18247158.00 L 8225206.00 18227502.00 L 8260150.00 18213852.00 L 8289088.00 18208392.00 L 8315296.00 18207846.00 L 8356246.00 18216036.00 L 8385730.00 18228594.00 L 8398834.00 18237330.00 L 8426680.00 18262992.00 L 8446336.00 18290292.00 L 8459986.00 18325236.00 A 151916.02 151916.02 0 0 1 8457802.00 18421332.00 L 8443060.00 18454092.00 L 8420674.00 18482484.00 L 8398288.00 18502140.00 L 8383546.00 18510876.00 L 8364982.00 18519612.00 L 8333860.00 18528894.00 L 8304376.00 18532170.00  z"/>
<path id="N" d="M 10892416.00 18459552.00 L 10928452.00 18454092.00 L 10955206.00 18442626.00 L 10970494.00 18430068.00 L 10980322.00 18412596.00 L 10985782.00 18389664.00 L 10987420.00 18246612.00 L 10990696.00 18206754.00 L 11001070.00 18180000.00 L 10951930.00 18180546.00 L 10950292.00 18185460.00 L 10943194.00 18214398.00 L 10934458.00 18206754.00 L 10902790.00 18186552.00 L 10884226.00 18180000.00 L 10852012.00 18174540.00 L 10826350.00 18175086.00 L 10793590.00 18183276.00 L 10772842.00 18195834.00 L 10765198.00 18204570.00 A 79797.29 79797.29 0 0 0 10815976.00 18330696.00 L 10901152.00 18344892.00 L 10939372.00 18354720.00 L 10939372.00 18376014.00 L 10933912.00 18395124.00 L 10925722.00 18406590.00 L 10913164.00 18414234.00 L 10896784.00 18419694.00 L 10873306.00 18421878.00 L 10854742.00 18420240.00 L 10831264.00 18414234.00 L 10821982.00 18408228.00 L 10812700.00 18395670.00 L 10802326.00 18370008.00 L 10757008.00 18376014.00 L 10761922.00 18392940.00 A 84338.14 84338.14 0 0 0 10808878.00 18446448.00 L 10828534.00 18453546.00 L 10867300.00 18459552.00 L 10892416.00 18459552.00  zM 10939918.00 18317592.00 L 10903882.00 18307218.00 L 10859110.00 18299028.00 L 10822528.00 18290292.00 L 10809970.00 18282102.00 L 10804510.00 18275004.00 L 10801780.00 18268998.00 L 10798504.00 18253164.00 L 10801780.00 18237876.00 L 10812700.00 18222042.00 L 10818160.00 18218766.00 L 10835632.00 18212214.00 L 10853650.00 18210576.00 L 10877128.00 18213306.00 L 10901152.00 18222042.00 L 10922992.00 18240606.00 L 10932274.00 18254802.00 L 10937188.00 18272274.00 L 10939372.00 18300120.00 L 10939918.00 18317592.00  z"/>
<path id="N" d="M 12574642.00 18457368.00 L 12598120.00 18450270.00 L 12622144.00 18437166.00 L 12625966.00 18432798.00 L 12642892.00 18412050.00 L 12654358.00 18388572.00 L 12658180.00 18373830.00 L 12612862.00 18366732.00 L 12611770.00 18371100.00 L 12600304.00 18395670.00 L 12589384.00 18408228.00 L 12579010.00 18414780.00 L 12558808.00 18421332.00 L 12538606.00 18420786.00 L 12511852.00 18411504.00 A 69537.72 69537.72 0 0 1 12482914.00 18377652.00 L 12475270.00 18352536.00 L 12471994.00 18316500.00 L 12476908.00 18273366.00 L 12485644.00 18247704.00 L 12492742.00 18236784.00 L 12507484.00 18224772.00 L 12524956.00 18216036.00 L 12547888.00 18212214.00 L 12563722.00 18214398.00 L 12578464.00 18219312.00 L 12593206.00 18228594.00 L 12599212.00 18235692.00 L 12611224.00 18257532.00 L 12616684.00 18280464.00 L 12662548.00 18273912.00 L 12660910.00 18266814.00 L 12649990.00 18235692.00 L 12634156.00 18211122.00 L 12623236.00 18199656.00 L 12603034.00 18187098.00 L 12579010.00 18178362.00 L 12556624.00 18174540.00 L 12534238.00 18175086.00 L 12501478.00 18182730.00 L 12479092.00 18193650.00 L 12457798.00 18211122.00 L 12447424.00 18225864.00 A 189041.71 189041.71 0 0 0 12424492.00 18323598.00 L 12430498.00 18367278.00 L 12439234.00 18395124.00 L 12456160.00 18420240.00 L 12473086.00 18436620.00 L 12484006.00 18443172.00 L 12503116.00 18451908.00 L 12535876.00 18459552.00 L 12574642.00 18457368.00  z"/>
<path id="N" d="M 10636888.00 18457368.00 L 10660366.00 18450270.00 L 10684390.00 18437166.00 L 10688212.00 18432798.00 L 10705138.00 18412050.00 L 10716604.00 18388572.00 L 10720426.00 18373830.00 L 10675108.00 18366732.00 L 10674016.00 18371100.00 L 10662550.00 18395670.00 L 10651630.00 18408228.00 L 10641256.00 18414780.00 L 10621054.00 18421332.00 L 10600852.00 18420786.00 L 10574098.00 18411504.00 A 69537.72 69537.72 0 0 1 10545160.00 18377652.00 L 10537516.00 18352536.00 L 10534240.00 18316500.00 L 10539154.00 18273366.00 L 10547890.00 18247704.00 L 10554988.00 18236784.00 L 10569730.00 18224772.00 L 10587202.00 18216036.00 L 10610134.00 18212214.00 L 10625968.00 18214398.00 L 10640710.00 18219312.00 L 10655452.00 18228594.00 L 10661458.00 18235692.00 L 10673470.00 18257532.00 L 10678930.00 18280464.00 L 10724794.00 18273912.00 L 10723156.00 18266814.00 L 10712236.00 18235692.00 L 10696402.00 18211122.00 L 10685482.00 18199656.00 L 10665280.00 18187098.00 L 10641256.00 18178362.00 L 10618870.00 18174540.00 L 10596484.00 18175086.00 L 10563724.00 18182730.00 L 10541338.00 18193650.00 L 10520044.00 18211122.00 L 10509670.00 18225864.00 A 189041.71 189041.71 0 0 0 10486738.00 18323598.00 L 10492744.00 18367278.00 L 10501480.00 18395124.00 L 10518406.00 18420240.00 L 10535332.00 18436620.00 L 10546252.00 18443172.00 L 10565362.00 18451908.00 L 10598122.00 18459552.00 L 10636888.00 18457368.00  z"/>
<path id="N" d="M 9092680.00 14364110.00 L 8938945.00 14364110.00 L 8918965.00 14260880.00 L 8951710.00 14276975.00 L 8983900.00 14284745.00 L 9003880.00 14283635.00 L 9033850.00 14276420.00 L 9062710.00 14261435.00 L 9081580.00 14243675.00 L 9096565.00 14219255.00 A 132961.43 132961.43 0 0 0 9103780.00 14114915.00 A 123090.97 123090.97 0 0 0 9065485.00 14054975.00 L 9039400.00 14038325.00 L 9012760.00 14027780.00 L 8979460.00 14023340.00 L 8961145.00 14025005.00 L 8935060.00 14030555.00 L 8913970.00 14038880.00 L 8892880.00 14052755.00 L 8885665.00 14060525.00 L 8870125.00 14084390.00 L 8859025.00 14113250.00 L 8856250.00 14130455.00 L 8905645.00 14133785.00 L 8908420.00 14122130.00 L 8918410.00 14096045.00 L 8930620.00 14079950.00 L 8938390.00 14074400.00 L 8959480.00 14064965.00 L 8979460.00 14062190.00 L 8999440.00 14065520.00 L 9018310.00 14072735.00 L 9037180.00 14087720.00 L 9049390.00 14106035.00 L 9057160.00 14127125.00 L 9061045.00 14148215.00 L 9059935.00 14169860.00 L 9051610.00 14199830.00 L 9038290.00 14219810.00 L 9029410.00 14227025.00 L 9013870.00 14235350.00 L 8992225.00 14242010.00 L 8975020.00 14243120.00 L 8958370.00 14240345.00 L 8936725.00 14232020.00 L 8922295.00 14221475.00 L 8908975.00 14205380.00 L 8864575.00 14211485.00 L 8901760.00 14409065.00 L 9092680.00 14409065.00 L 9092680.00 14364110.00  z"/>
<path id="N" d="M 31103840.00 13674110.00 L 30950105.00 13674110.00 L 30930125.00 13570880.00 L 30962870.00 13586975.00 L 30995060.00 13594745.00 L 31015040.00 13593635.00 L 31045010.00 13586420.00 L 31073870.00 13571435.00 L 31092740.00 13553675.00 L 31107725.00 13529255.00 A 132961.43 132961.43 0 0 0 31114940.00 13424915.00 A 123090.97 123090.97 0 0 0 31076645.00 13364975.00 L 31050560.00 13348325.00 L 31023920.00 13337780.00 L 30990620.00 13333340.00 L 30972305.00 13335005.00 L 30946220.00 13340555.00 L 30925130.00 13348880.00 L 30904040.00 13362755.00 L 30896825.00 13370525.00 L 30881285.00 13394390.00 L 30870185.00 13423250.00 L 30867410.00 13440455.00 L 30916805.00 13443785.00 L 30919580.00 13432130.00 L 30929570.00 13406045.00 L 30941780.00 13389950.00 L 30949550.00 13384400.00 L 30970640.00 13374965.00 L 30990620.00 13372190.00 L 31010600.00 13375520.00 L 31029470.00 13382735.00 L 31048340.00 13397720.00 L 31060550.00 13416035.00 L 31068320.00 13437125.00 L 31072205.00 13458215.00 L 31071095.00 13479860.00 L 31062770.00 13509830.00 L 31049450.00 13529810.00 L 31040570.00 13537025.00 L 31025030.00 13545350.00 L 31003385.00 13552010.00 L 30986180.00 13553120.00 L 30969530.00 13550345.00 L 30947885.00 13542020.00 L 30933455.00 13531475.00 L 30920135.00 13515380.00 L 30875735.00 13521485.00 L 30912920.00 13719065.00 L 31103840.00 13719065.00 L 31103840.00 13674110.00  z"/>
<path id="N" d="M 9947836.00 18440442.00 L 9970222.00 18422424.00 L 9987694.00 18396216.00 L 10000252.00 18364002.00 L 10005166.00 18332880.00 L 10004620.00 18296844.00 L 9998614.00 18263538.00 L 9989332.00 18237330.00 L 9982780.00 18226956.00 L 9963124.00 18205116.00 L 9942922.00 18190374.00 L 9923266.00 18182184.00 L 9890506.00 18174540.00 L 9862660.00 18175086.00 L 9829354.00 18182730.00 L 9805876.00 18193650.00 L 9783490.00 18211122.00 L 9766564.00 18237876.00 L 9754552.00 18271182.00 L 9749638.00 18304488.00 L 9750184.00 18335610.00 L 9756736.00 18368370.00 L 9767110.00 18396762.00 L 9777484.00 18414234.00 L 9791680.00 18430068.00 L 9809698.00 18442080.00 L 9842458.00 18455184.00 L 9868120.00 18459552.00 A 152970.52 152970.52 0 0 0 9947836.00 18440442.00  zM 9865390.00 18420786.00 L 9838090.00 18410958.00 L 9818434.00 18394578.00 L 9808060.00 18376014.00 L 9800416.00 18351444.00 L 9796594.00 18316500.00 L 9799324.00 18287562.00 L 9806422.00 18261354.00 L 9815704.00 18243336.00 L 9828808.00 18229686.00 A 75437.34 75437.34 0 0 1 9946744.00 18258078.00 L 9956026.00 18291384.00 L 9958210.00 18323598.00 L 9952750.00 18359634.00 L 9942376.00 18384750.00 L 9934732.00 18396216.00 L 9910708.00 18413688.00 L 9889960.00 18420786.00 L 9865390.00 18420786.00  z"/>
<path id="N" d="M 12281440.00 18456822.00 L 12309832.00 18448086.00 L 12332764.00 18434982.00 L 12346960.00 18421878.00 L 12360610.00 18401676.00 L 12373168.00 18371646.00 L 12379720.00 18341070.00 L 12380812.00 18305034.00 L 12176062.00 18304488.00 L 12176608.00 18297390.00 L 12183160.00 18268452.00 L 12193534.00 18245520.00 L 12205546.00 18231870.00 L 12225748.00 18219858.00 L 12246496.00 18213306.00 L 12263422.00 18212214.00 L 12288538.00 18217674.00 L 12306010.00 18228048.00 L 12322390.00 18249342.00 L 12331672.00 18268452.00 L 12379720.00 18261900.00 L 12364432.00 18228048.00 L 12348052.00 18206754.00 L 12336586.00 18196926.00 L 12315838.00 18185460.00 L 12291268.00 18177816.00 L 12259054.00 18173994.00 L 12231754.00 18177270.00 L 12201178.00 18186006.00 L 12177700.00 18198564.00 L 12160228.00 18214398.00 L 12142756.00 18244428.00 L 12131836.00 18279918.00 L 12128560.00 18314862.00 L 12131290.00 18345984.00 L 12143302.00 18389118.00 L 12158044.00 18414234.00 L 12170602.00 18427884.00 L 12195172.00 18444810.00 L 12218104.00 18454092.00 L 12245950.00 18459552.00 L 12281440.00 18456822.00  zM 12245404.00 18420786.00 L 12220288.00 18412596.00 L 12202816.00 18400038.00 L 12195718.00 18391302.00 L 12183706.00 18367278.00 L 12178792.00 18343254.00 L 12332218.00 18343800.00 L 12326212.00 18371100.00 A 66788.70 66788.70 0 0 1 12290722.00 18413142.00 L 12269428.00 18420786.00 L 12245404.00 18420786.00  z"/>
<path id="N" d="M 11914528.00 18440442.00 L 11936914.00 18422424.00 L 11954386.00 18396216.00 L 11966944.00 18364002.00 L 11971858.00 18332880.00 L 11971312.00 18296844.00 L 11965306.00 18263538.00 L 11956024.00 18237330.00 L 11949472.00 18226956.00 L 11929816.00 18205116.00 L 11909614.00 18190374.00 L 11889958.00 18182184.00 L 11857198.00 18174540.00 L 11829352.00 18175086.00 L 11796046.00 18182730.00 L 11772568.00 18193650.00 L 11750182.00 18211122.00 L 11733256.00 18237876.00 L 11721244.00 18271182.00 L 11716330.00 18304488.00 L 11716876.00 18335610.00 L 11723428.00 18368370.00 L 11733802.00 18396762.00 L 11744176.00 18414234.00 L 11758372.00 18430068.00 L 11776390.00 18442080.00 L 11809150.00 18455184.00 L 11834812.00 18459552.00 A 152970.52 152970.52 0 0 0 11914528.00 18440442.00  zM 11832082.00 18420786.00 L 11804782.00 18410958.00 L 11785126.00 18394578.00 L 11774752.00 18376014.00 L 11767108.00 18351444.00 L 11763286.00 18316500.00 L 11766016.00 18287562.00 L 11773114.00 18261354.00 L 11782396.00 18243336.00 L 11795500.00 18229686.00 A 75437.34 75437.34 0 0 1 11913436.00 18258078.00 L 11922718.00 18291384.00 L 11924902.00 18323598.00 L 11919442.00 18359634.00 L 11909068.00 18384750.00 L 11901424.00 18396216.00 L 11877400.00 18413688.00 L 11856652.00 18420786.00 L 11832082.00 18420786.00  z"/>
<path id="N" d="M 9287176.00 18456822.00 L 9315568.00 18448086.00 L 9338500.00 18434982.00 L 9352696.00 18421878.00 L 9366346.00 18401676.00 L 9378904.00 18371646.00 L 9385456.00 18341070.00 L 9386548.00 18305034.00 L 9181798.00 18304488.00 L 9182344.00 18297390.00 L 9188896.00 18268452.00 L 9199270.00 18245520.00 L 9211282.00 18231870.00 L 9231484.00 18219858.00 L 9252232.00 18213306.00 L 9269158.00 18212214.00 L 9294274.00 18217674.00 L 9311746.00 18228048.00 L 9328126.00 18249342.00 L 9337408.00 18268452.00 L 9385456.00 18261900.00 L 9370168.00 18228048.00 L 9353788.00 18206754.00 L 9342322.00 18196926.00 L 9321574.00 18185460.00 L 9297004.00 18177816.00 L 9264790.00 18173994.00 L 9237490.00 18177270.00 L 9206914.00 18186006.00 L 9183436.00 18198564.00 L 9165964.00 18214398.00 L 9148492.00 18244428.00 L 9137572.00 18279918.00 L 9134296.00 18314862.00 L 9137026.00 18345984.00 L 9149038.00 18389118.00 L 9163780.00 18414234.00 L 9176338.00 18427884.00 L 9200908.00 18444810.00 L 9223840.00 18454092.00 L 9251686.00 18459552.00 L 9287176.00 18456822.00  zM 9251140.00 18420786.00 L 9226024.00 18412596.00 L 9208552.00 18400038.00 L 9201454.00 18391302.00 L 9189442.00 18367278.00 L 9184528.00 18343254.00 L 9337954.00 18343800.00 L 9331948.00 18371100.00 A 66788.70 66788.70 0 0 1 9296458.00 18413142.00 L 9275164.00 18420786.00 L 9251140.00 18420786.00  z"/>
<path id="N" d="M 10380268.00 18454638.00 L 10401016.00 18444810.00 L 10409752.00 18437166.00 L 10416850.00 18427884.00 L 10426678.00 18404952.00 L 10431592.00 18376560.00 L 10431592.00 18180000.00 L 10385182.00 18180000.00 L 10384636.00 18367278.00 L 10380814.00 18392394.00 L 10368802.00 18408774.00 A 51191.53 51191.53 0 0 1 10326214.00 18418602.00 L 10312018.00 18414780.00 L 10295638.00 18406590.00 L 10285264.00 18396216.00 L 10274890.00 18376560.00 L 10269976.00 18353628.00 L 10268884.00 18180000.00 L 10222474.00 18180000.00 L 10222474.00 18357996.00 L 10220836.00 18374922.00 L 10214830.00 18397308.00 L 10206094.00 18408774.00 L 10190806.00 18417510.00 L 10170604.00 18419694.00 L 10150402.00 18415326.00 L 10137298.00 18408774.00 L 10124740.00 18397308.00 L 10113820.00 18378744.00 L 10107268.00 18346530.00 L 10106176.00 18180000.00 L 10059766.00 18180000.00 L 10059766.00 18454092.00 L 10101262.00 18454092.00 L 10101262.00 18414780.00 L 10106722.00 18421878.00 L 10128016.00 18442626.00 L 10143850.00 18451362.00 L 10165144.00 18457914.00 L 10189168.00 18460098.00 L 10218106.00 18454638.00 L 10233940.00 18446994.00 L 10249228.00 18432798.00 L 10262332.00 18412050.00 L 10271068.00 18422970.00 L 10290724.00 18440442.00 L 10311472.00 18452454.00 L 10337134.00 18459552.00 L 10380268.00 18454638.00  z"/>
<path id="N" d="M 8335498.00 18474840.00 L 8354608.00 18467742.00 L 8370988.00 18455730.00 L 8386276.00 18436620.00 L 8395012.00 18418056.00 L 8364436.00 18409866.00 L 8355154.00 18425700.00 L 8340412.00 18439896.00 L 8326216.00 18446994.00 L 8306014.00 18450270.00 L 8288542.00 18447540.00 L 8272708.00 18441534.00 L 8256874.00 18428976.00 L 8247592.00 18413142.00 L 8241040.00 18394032.00 L 8237764.00 18367278.00 L 8239948.00 18345438.00 L 8249776.00 18316500.00 L 8262880.00 18301758.00 L 8283082.00 18291384.00 A 65479.22 65479.22 0 0 1 8367166.00 18337794.00 L 8398834.00 18327966.00 L 8391736.00 18309948.00 L 8381362.00 18293022.00 L 8365528.00 18277188.00 L 8348602.00 18267906.00 L 8329492.00 18261354.00 L 8304922.00 18258078.00 L 8278714.00 18261900.00 L 8254144.00 18270090.00 L 8242132.00 18277734.00 L 8227936.00 18290292.00 L 8214286.00 18313770.00 L 8205550.00 18342162.00 L 8202820.00 18372192.00 L 8208280.00 18408228.00 L 8217562.00 18432252.00 L 8236126.00 18454638.00 L 8256328.00 18468288.00 L 8285266.00 18477024.00 L 8306560.00 18479208.00 L 8335498.00 18474840.00  z"/>
<path id="N" d="M 19437960.00 18475190.00 L 19451280.00 18464090.00 L 19467375.00 18443555.00 L 19480695.00 18413030.00 L 19483470.00 18385280.00 L 19479030.00 18360305.00 L 19469595.00 18335330.00 L 19449615.00 18305915.00 L 19424640.00 18278720.00 L 19314195.00 18179930.00 L 19294770.00 18155510.00 L 19484025.00 18155510.00 L 19484025.00 18110000.00 L 19229280.00 18110555.00 L 19232610.00 18136640.00 L 19242045.00 18158840.00 L 19265910.00 18194360.00 L 19290330.00 18218780.00 L 19361925.00 18280940.00 L 19407990.00 18327005.00 L 19419645.00 18344210.00 L 19431855.00 18369740.00 L 19435185.00 18390275.00 L 19430190.00 18414140.00 L 19421310.00 18429680.00 L 19410765.00 18440780.00 L 19393005.00 18450770.00 L 19373580.00 18456320.00 L 19349715.00 18455765.00 L 19324185.00 18447995.00 L 19306980.00 18436340.00 L 19300320.00 18428015.00 L 19289775.00 18403595.00 L 19286445.00 18379730.00 L 19238160.00 18385280.00 L 19238715.00 18389720.00 L 19249260.00 18428570.00 L 19259805.00 18448550.00 L 19275900.00 18467420.00 A 139206.57 139206.57 0 0 0 19353045.00 18495170.00 A 151939.57 151939.57 0 0 0 19437960.00 18475190.00  z"/>
<path id="N" d="M 22098270.00 16035190.00 L 22111590.00 16024090.00 L 22127685.00 16003555.00 L 22141005.00 15973030.00 L 22143780.00 15945280.00 L 22139340.00 15920305.00 L 22129905.00 15895330.00 L 22109925.00 15865915.00 L 22084950.00 15838720.00 L 21974505.00 15739930.00 L 21955080.00 15715510.00 L 22144335.00 15715510.00 L 22144335.00 15670000.00 L 21889590.00 15670555.00 L 21892920.00 15696640.00 L 21902355.00 15718840.00 L 21926220.00 15754360.00 L 21950640.00 15778780.00 L 22022235.00 15840940.00 L 22068300.00 15887005.00 L 22079955.00 15904210.00 L 22092165.00 15929740.00 L 22095495.00 15950275.00 L 22090500.00 15974140.00 L 22081620.00 15989680.00 L 22071075.00 16000780.00 L 22053315.00 16010770.00 L 22033890.00 16016320.00 L 22010025.00 16015765.00 L 21984495.00 16007995.00 L 21967290.00 15996340.00 L 21960630.00 15988015.00 L 21950085.00 15963595.00 L 21946755.00 15939730.00 L 21898470.00 15945280.00 L 21899025.00 15949720.00 L 21909570.00 15988570.00 L 21920115.00 16008550.00 L 21936210.00 16027420.00 A 139206.57 139206.57 0 0 0 22013355.00 16055170.00 A 151939.57 151939.57 0 0 0 22098270.00 16035190.00  z"/>
<path id="N" d="M 4949430.00 17015190.00 L 4962750.00 17004090.00 L 4978845.00 16983555.00 L 4992165.00 16953030.00 L 4994940.00 16925280.00 L 4990500.00 16900305.00 L 4981065.00 16875330.00 L 4961085.00 16845915.00 L 4936110.00 16818720.00 L 4825665.00 16719930.00 L 4806240.00 16695510.00 L 4995495.00 16695510.00 L 4995495.00 16650000.00 L 4740750.00 16650555.00 L 4744080.00 16676640.00 L 4753515.00 16698840.00 L 4777380.00 16734360.00 L 4801800.00 16758780.00 L 4873395.00 16820940.00 L 4919460.00 16867005.00 L 4931115.00 16884210.00 L 4943325.00 16909740.00 L 4946655.00 16930275.00 L 4941660.00 16954140.00 L 4932780.00 16969680.00 L 4922235.00 16980780.00 L 4904475.00 16990770.00 L 4885050.00 16996320.00 L 4861185.00 16995765.00 L 4835655.00 16987995.00 L 4818450.00 16976340.00 L 4811790.00 16968015.00 L 4801245.00 16943595.00 L 4797915.00 16919730.00 L 4749630.00 16925280.00 L 4750185.00 16929720.00 L 4760730.00 16968570.00 L 4771275.00 16988550.00 L 4787370.00 17007420.00 A 139206.57 139206.57 0 0 0 4864515.00 17035170.00 A 151939.57 151939.57 0 0 0 4949430.00 17015190.00  z"/>
<path id="N" d="M 4579245.00 15442950.00 L 4616985.00 15436845.00 L 4637520.00 15429075.00 L 4657500.00 15413535.00 L 4670820.00 15396885.00 L 4679145.00 15379680.00 A 105175.79 105175.79 0 0 0 4660275.00 15269790.00 L 4649175.00 15260910.00 L 4628640.00 15249255.00 L 4606440.00 15240930.00 L 4578690.00 15234825.00 L 4599780.00 15222615.00 L 4617540.00 15207075.00 L 4643625.00 15175440.00 L 4717440.00 15060000.00 L 4654170.00 15060000.00 L 4603665.00 15140475.00 L 4566480.00 15193200.00 L 4545390.00 15214845.00 L 4533735.00 15222060.00 L 4510980.00 15229275.00 L 4431060.00 15230385.00 L 4431060.00 15060000.00 L 4380000.00 15060000.00 L 4380000.00 15444060.00 L 4579245.00 15442950.00  zM 4431060.00 15401325.00 L 4431060.00 15274230.00 L 4545390.00 15274230.00 L 4586460.00 15278670.00 L 4605330.00 15286440.00 L 4620315.00 15298650.00 L 4627530.00 15310305.00 L 4634190.00 15331950.00 L 4633635.00 15348045.00 L 4629750.00 15361365.00 A 52066.46 52066.46 0 0 1 4590900.00 15395775.00 L 4567035.00 15400770.00 L 4431060.00 15401325.00  z"/>
<path id="N" d="M 30699245.00 15362950.00 L 30736985.00 15356845.00 L 30757520.00 15349075.00 L 30777500.00 15333535.00 L 30790820.00 15316885.00 L 30799145.00 15299680.00 A 105175.79 105175.79 0 0 0 30780275.00 15189790.00 L 30769175.00 15180910.00 L 30748640.00 15169255.00 L 30726440.00 15160930.00 L 30698690.00 15154825.00 L 30719780.00 15142615.00 L 30737540.00 15127075.00 L 30763625.00 15095440.00 L 30837440.00 14980000.00 L 30774170.00 14980000.00 L 30723665.00 15060475.00 L 30686480.00 15113200.00 L 30665390.00 15134845.00 L 30653735.00 15142060.00 L 30630980.00 15149275.00 L 30551060.00 15150385.00 L 30551060.00 14980000.00 L 30500000.00 14980000.00 L 30500000.00 15364060.00 L 30699245.00 15362950.00  zM 30551060.00 15321325.00 L 30551060.00 15194230.00 L 30665390.00 15194230.00 L 30706460.00 15198670.00 L 30725330.00 15206440.00 L 30740315.00 15218650.00 L 30747530.00 15230305.00 L 30754190.00 15251950.00 L 30753635.00 15268045.00 L 30749750.00 15281365.00 A 52066.46 52066.46 0 0 1 30710900.00 15315775.00 L 30687035.00 15320770.00 L 30551060.00 15321325.00  z"/>
<path id="N" d="M 4569245.00 13852950.00 L 4606985.00 13846845.00 L 4627520.00 13839075.00 L 4647500.00 13823535.00 L 4660820.00 13806885.00 L 4669145.00 13789680.00 A 105175.79 105175.79 0 0 0 4650275.00 13679790.00 L 4639175.00 13670910.00 L 4618640.00 13659255.00 L 4596440.00 13650930.00 L 4568690.00 13644825.00 L 4589780.00 13632615.00 L 4607540.00 13617075.00 L 4633625.00 13585440.00 L 4707440.00 13470000.00 L 4644170.00 13470000.00 L 4593665.00 13550475.00 L 4556480.00 13603200.00 L 4535390.00 13624845.00 L 4523735.00 13632060.00 L 4500980.00 13639275.00 L 4421060.00 13640385.00 L 4421060.00 13470000.00 L 4370000.00 13470000.00 L 4370000.00 13854060.00 L 4569245.00 13852950.00  zM 4421060.00 13811325.00 L 4421060.00 13684230.00 L 4535390.00 13684230.00 L 4576460.00 13688670.00 L 4595330.00 13696440.00 L 4610315.00 13708650.00 L 4617530.00 13720305.00 L 4624190.00 13741950.00 L 4623635.00 13758045.00 L 4619750.00 13771365.00 A 52066.46 52066.46 0 0 1 4580900.00 13805775.00 L 4557035.00 13810770.00 L 4421060.00 13811325.00  z"/>
<path id="N" d="M 30699245.00 13722950.00 L 30736985.00 13716845.00 L 30757520.00 13709075.00 L 30777500.00 13693535.00 L 30790820.00 13676885.00 L 30799145.00 13659680.00 A 105175.79 105175.79 0 0 0 30780275.00 13549790.00 L 30769175.00 13540910.00 L 30748640.00 13529255.00 L 30726440.00 13520930.00 L 30698690.00 13514825.00 L 30719780.00 13502615.00 L 30737540.00 13487075.00 L 30763625.00 13455440.00 L 30837440.00 13340000.00 L 30774170.00 13340000.00 L 30723665.00 13420475.00 L 30686480.00 13473200.00 L 30665390.00 13494845.00 L 30653735.00 13502060.00 L 30630980.00 13509275.00 L 30551060.00 13510385.00 L 30551060.00 13340000.00 L 30500000.00 13340000.00 L 30500000.00 13724060.00 L 30699245.00 13722950.00  zM 30551060.00 13681325.00 L 30551060.00 13554230.00 L 30665390.00 13554230.00 L 30706460.00 13558670.00 L 30725330.00 13566440.00 L 30740315.00 13578650.00 L 30747530.00 13590305.00 L 30754190.00 13611950.00 L 30753635.00 13628045.00 L 30749750.00 13641365.00 A 52066.46 52066.46 0 0 1 30710900.00 13675775.00 L 30687035.00 13680770.00 L 30551060.00 13681325.00  z"/>
<path id="N" d="M 30679245.00 17062950.00 L 30716985.00 17056845.00 L 30737520.00 17049075.00 L 30757500.00 17033535.00 L 30770820.00 17016885.00 L 30779145.00 16999680.00 A 105175.79 105175.79 0 0 0 30760275.00 16889790.00 L 30749175.00 16880910.00 L 30728640.00 16869255.00 L 30706440.00 16860930.00 L 30678690.00 16854825.00 L 30699780.00 16842615.00 L 30717540.00 16827075.00 L 30743625.00 16795440.00 L 30817440.00 16680000.00 L 30754170.00 16680000.00 L 30703665.00 16760475.00 L 30666480.00 16813200.00 L 30645390.00 16834845.00 L 30633735.00 16842060.00 L 30610980.00 16849275.00 L 30531060.00 16850385.00 L 30531060.00 16680000.00 L 30480000.00 16680000.00 L 30480000.00 17064060.00 L 30679245.00 17062950.00  zM 30531060.00 17021325.00 L 30531060.00 16894230.00 L 30645390.00 16894230.00 L 30686460.00 16898670.00 L 30705330.00 16906440.00 L 30720315.00 16918650.00 L 30727530.00 16930305.00 L 30734190.00 16951950.00 L 30733635.00 16968045.00 L 30729750.00 16981365.00 A 52066.46 52066.46 0 0 1 30690900.00 17015775.00 L 30667035.00 17020770.00 L 30531060.00 17021325.00  z"/>
<path id="N" d="M 4579245.00 17032950.00 L 4616985.00 17026845.00 L 4637520.00 17019075.00 L 4657500.00 17003535.00 L 4670820.00 16986885.00 L 4679145.00 16969680.00 A 105175.79 105175.79 0 0 0 4660275.00 16859790.00 L 4649175.00 16850910.00 L 4628640.00 16839255.00 L 4606440.00 16830930.00 L 4578690.00 16824825.00 L 4599780.00 16812615.00 L 4617540.00 16797075.00 L 4643625.00 16765440.00 L 4717440.00 16650000.00 L 4654170.00 16650000.00 L 4603665.00 16730475.00 L 4566480.00 16783200.00 L 4545390.00 16804845.00 L 4533735.00 16812060.00 L 4510980.00 16819275.00 L 4431060.00 16820385.00 L 4431060.00 16650000.00 L 4380000.00 16650000.00 L 4380000.00 17034060.00 L 4579245.00 17032950.00  zM 4431060.00 16991325.00 L 4431060.00 16864230.00 L 4545390.00 16864230.00 L 4586460.00 16868670.00 L 4605330.00 16876440.00 L 4620315.00 16888650.00 L 4627530.00 16900305.00 L 4634190.00 16921950.00 L 4633635.00 16938045.00 L 4629750.00 16951365.00 A 52066.46 52066.46 0 0 1 4590900.00 16985775.00 L 4567035.00 16990770.00 L 4431060.00 16991325.00  z"/>
<path id="N" d="M 18667620.00 18493505.00 L 18710910.00 18488510.00 L 18729780.00 18482405.00 L 18757530.00 18467975.00 L 18771405.00 18456320.00 L 18790830.00 18433565.00 L 18805815.00 18409700.00 L 18815805.00 18384170.00 L 18825240.00 18339770.00 L 18827460.00 18303140.00 L 18824685.00 18265400.00 L 18816915.00 18225440.00 L 18806370.00 18197690.00 L 18790275.00 18169385.00 L 18763080.00 18140525.00 L 18743100.00 18128315.00 L 18709800.00 18116105.00 L 18672615.00 18111110.00 L 18510000.00 18110000.00 L 18510000.00 18494060.00 L 18667620.00 18493505.00  zM 18561060.00 18448550.00 L 18561060.00 18155510.00 L 18652080.00 18155510.00 L 18673725.00 18157175.00 L 18705915.00 18163280.00 L 18725895.00 18173825.00 L 18739770.00 18185480.00 L 18756420.00 18210455.00 L 18764745.00 18230990.00 L 18771960.00 18262070.00 L 18775290.00 18305360.00 L 18773625.00 18332000.00 L 18766965.00 18369185.00 L 18755310.00 18397490.00 L 18734775.00 18421910.00 L 18717015.00 18435230.00 L 18703140.00 18441335.00 L 18670950.00 18447440.00 L 18561060.00 18448550.00  z"/>
<path id="N" d="M 6457620.00 18223505.00 L 6500910.00 18218510.00 L 6519780.00 18212405.00 L 6547530.00 18197975.00 L 6561405.00 18186320.00 L 6580830.00 18163565.00 L 6595815.00 18139700.00 L 6605805.00 18114170.00 L 6615240.00 18069770.00 L 6617460.00 18033140.00 L 6614685.00 17995400.00 L 6606915.00 17955440.00 L 6596370.00 17927690.00 L 6580275.00 17899385.00 L 6553080.00 17870525.00 L 6533100.00 17858315.00 L 6499800.00 17846105.00 L 6462615.00 17841110.00 L 6300000.00 17840000.00 L 6300000.00 18224060.00 L 6457620.00 18223505.00  zM 6351060.00 18178550.00 L 6351060.00 17885510.00 L 6442080.00 17885510.00 L 6463725.00 17887175.00 L 6495915.00 17893280.00 L 6515895.00 17903825.00 L 6529770.00 17915480.00 L 6546420.00 17940455.00 L 6554745.00 17960990.00 L 6561960.00 17992070.00 L 6565290.00 18035360.00 L 6563625.00 18062000.00 L 6556965.00 18099185.00 L 6545310.00 18127490.00 L 6524775.00 18151910.00 L 6507015.00 18165230.00 L 6493140.00 18171335.00 L 6460950.00 18177440.00 L 6351060.00 18178550.00  z"/>
<path id="N" d="M 11402926.00 18555102.00 L 11427496.00 18550188.00 L 11457526.00 18535992.00 L 11468446.00 18526710.00 L 11483734.00 18508146.00 L 11494108.00 18484668.00 L 11499022.00 18458460.00 L 11498476.00 18436074.00 L 11491924.00 18407136.00 L 11482642.00 18386388.00 L 11467900.00 18366186.00 L 11459164.00 18359088.00 L 11436232.00 18347076.00 L 11408932.00 18338886.00 L 11372350.00 18333972.00 L 11261512.00 18333426.00 L 11261512.00 18180000.00 L 11211280.00 18180000.00 L 11211280.00 18557832.00 L 11402926.00 18555102.00  zM 11261512.00 18513060.00 L 11261512.00 18378198.00 L 11363068.00 18378198.00 L 11396920.00 18382566.00 L 11418760.00 18390210.00 L 11427496.00 18396216.00 A 68796.23 68796.23 0 0 1 11448244.00 18447540.00 L 11443330.00 18473748.00 A 60949.06 60949.06 0 0 1 11387638.00 18511968.00 L 11261512.00 18513060.00  z"/>
<path id="N" d="M 8903338.00 18422970.00 L 8908798.00 18428430.00 L 8930638.00 18444810.00 L 8958484.00 18456822.00 A 113396.99 113396.99 0 0 0 9036562.00 18448086.00 L 9049120.00 18439350.00 L 9064408.00 18422424.00 L 9072052.00 18406044.00 L 9078058.00 18367278.00 L 9078604.00 18180000.00 L 9032194.00 18180000.00 L 9032194.00 18354174.00 L 9030556.00 18372738.00 L 9021820.00 18397308.00 L 9014176.00 18406590.00 A 58771.46 58771.46 0 0 1 8971042.00 18420240.00 L 8949748.00 18415872.00 A 71861.77 71861.77 0 0 1 8903884.00 18350898.00 L 8902792.00 18180000.00 L 8856382.00 18180000.00 L 8856382.00 18557832.00 L 8902792.00 18557832.00 L 8903338.00 18422970.00  z"/>
<path id="N" d="M 14872565.00 8051545.00 L 14867570.00 7999930.00 L 14860355.00 7977175.00 L 14851475.00 7962190.00 L 14832050.00 7942765.00 L 14818730.00 7934995.00 L 14787650.00 7925560.00 L 14759345.00 7923340.00 L 14723270.00 7930555.00 L 14703845.00 7938880.00 L 14686640.00 7952200.00 L 14678315.00 7964410.00 L 14668880.00 7986055.00 L 14663330.00 8008810.00 L 14661110.00 8038225.00 L 14707175.00 8044330.00 L 14711615.00 8011030.00 L 14720495.00 7988275.00 L 14729375.00 7979950.00 A 63062.30 63062.30 0 0 1 14799305.00 7978840.00 L 14810960.00 7991050.00 L 14817065.00 8003815.00 L 14821505.00 8037670.00 L 14821505.00 8314060.00 L 14872565.00 8314060.00 L 14872565.00 8051545.00  z"/>
<path id="N" d="M 11112454.00 18454092.00 L 11159410.00 18454092.00 L 11159410.00 18418056.00 L 11112454.00 18418056.00 L 11112454.00 18256986.00 L 11114638.00 18231324.00 L 11122828.00 18222588.00 L 11138662.00 18219312.00 L 11159410.00 18220950.00 L 11165416.00 18180000.00 L 11129926.00 18176178.00 L 11109178.00 18177816.00 L 11090068.00 18184368.00 L 11076964.00 18196380.00 L 11070412.00 18207846.00 L 11066590.00 18239514.00 L 11066044.00 18418056.00 L 11031646.00 18418056.00 L 11031646.00 18454092.00 L 11066044.00 18454092.00 L 11066044.00 18521796.00 L 11112454.00 18549642.00 L 11112454.00 18454092.00  z"/>
<path id="N" d="M 24530615.00 9100615.00 L 24543296.00 9070000.00 L 24543296.00 5635820.00 L 24530615.00 5605205.00 L 24500000.00 5592524.00 L 15500000.00 5592524.00 L 15469385.00 5605205.00 L 15456704.00 5635820.00 L 15469385.00 5666435.00 L 15500000.00 5679116.00 L 24456704.00 5679116.00 L 24456704.00 9026704.00 L 13551176.00 9026704.00 L 13551176.00 6750000.00 L 13538495.00 6719385.00 L 13507880.00 6706704.00 L 13477265.00 6719385.00 L 13464584.00 6750000.00 L 13464584.00 9070000.00 L 13477265.00 9100615.00 L 13507880.00 9113296.00 L 24500000.00 9113296.00 L 24530615.00 9100615.00  z"/>
<path id="N" d="M 12756460.00 18454092.00 L 12803416.00 18454092.00 L 12803416.00 18418056.00 L 12756460.00 18418056.00 L 12756460.00 18256986.00 L 12758644.00 18231324.00 L 12766834.00 18222588.00 L 12782668.00 18219312.00 L 12803416.00 18220950.00 L 12809422.00 18180000.00 L 12773932.00 18176178.00 L 12753184.00 18177816.00 L 12734074.00 18184368.00 L 12720970.00 18196380.00 L 12714418.00 18207846.00 L 12710596.00 18239514.00 L 12710050.00 18418056.00 L 12675652.00 18418056.00 L 12675652.00 18454092.00 L 12710050.00 18454092.00 L 12710050.00 18521796.00 L 12756460.00 18549642.00 L 12756460.00 18454092.00  z"/>
<path id="N" d="M 18386115.00 17499355.00 L 18398796.00 17468740.00 L 18398796.00 11232276.00 L 18751180.00 11232276.00 L 18781795.00 11219595.00 L 18794476.00 11188980.00 L 18781795.00 11158365.00 L 18751180.00 11145684.00 L 18251180.00 11145684.00 L 18220565.00 11158365.00 L 18207884.00 11188980.00 L 18207884.00 17468740.00 L 18220565.00 17499355.00 L 18251180.00 17512036.00 L 18281795.00 17499355.00 L 18294476.00 17468740.00 L 18294476.00 11232276.00 L 18312204.00 11232276.00 L 18312204.00 17468740.00 L 18324885.00 17499355.00 L 18355500.00 17512036.00 L 18386115.00 17499355.00  z"/>
<path id="N" d="M 11679748.00 18456276.00 L 11705410.00 18444810.00 L 11687938.00 18402768.00 L 11673196.00 18408774.00 L 11652448.00 18412050.00 L 11632246.00 18406044.00 L 11621326.00 18396216.00 L 11610952.00 18377106.00 L 11604400.00 18343800.00 L 11603308.00 18180000.00 L 11556898.00 18180000.00 L 11556898.00 18454092.00 L 11598940.00 18454092.00 L 11599486.00 18413142.00 L 11601670.00 18416964.00 L 11622964.00 18445902.00 L 11636614.00 18455184.00 L 11657908.00 18460098.00 L 11679748.00 18456276.00  z"/>
<path id="N" d="M 24669195.00 14401475.00 L 24681876.00 14370860.00 L 24681876.00 13220000.00 L 24669195.00 13189385.00 L 24638580.00 13176704.00 L 24460000.00 13176704.00 L 24429385.00 13189385.00 L 24416704.00 13220000.00 L 24416704.00 14370860.00 L 24429385.00 14401475.00 L 24460000.00 14414156.00 L 24638580.00 14414156.00 L 24669195.00 14401475.00  zM 24595284.00 14327564.00 L 24503296.00 14327564.00 L 24503296.00 13263296.00 L 24595284.00 13263296.00 L 24595284.00 14327564.00  z"/>
<path id="N" d="M 27319195.00 14151475.00 L 27331876.00 14120860.00 L 27331876.00 12970000.00 L 27319195.00 12939385.00 L 27288580.00 12926704.00 L 27110000.00 12926704.00 L 27079385.00 12939385.00 L 27066704.00 12970000.00 L 27066704.00 14120860.00 L 27079385.00 14151475.00 L 27110000.00 14164156.00 L 27288580.00 14164156.00 L 27319195.00 14151475.00  zM 27245284.00 14077564.00 L 27153296.00 14077564.00 L 27153296.00 13013296.00 L 27245284.00 13013296.00 L 27245284.00 14077564.00  z"/>
<path id="N" d="M 22319195.00 15401475.00 L 22331876.00 15370860.00 L 22331876.00 14220000.00 L 22319195.00 14189385.00 L 22288580.00 14176704.00 L 22110000.00 14176704.00 L 22079385.00 14189385.00 L 22066704.00 14220000.00 L 22066704.00 15370860.00 L 22079385.00 15401475.00 L 22110000.00 15414156.00 L 22288580.00 15414156.00 L 22319195.00 15401475.00  zM 22245284.00 15327564.00 L 22153296.00 15327564.00 L 22153296.00 14263296.00 L 22245284.00 14263296.00 L 22245284.00 15327564.00  z"/>
<path id="N" d="M 9320615.00 13810615.00 L 9333296.00 13780000.00 L 9333296.00 12629140.00 L 9320615.00 12598525.00 L 9290000.00 12585844.00 L 9111420.00 12585844.00 L 9080805.00 12598525.00 L 9068124.00 12629140.00 L 9068124.00 13780000.00 L 9080805.00 13810615.00 L 9111420.00 13823296.00 L 9290000.00 13823296.00 L 9320615.00 13810615.00  zM 9246704.00 13736704.00 L 9154716.00 13736704.00 L 9154716.00 12672436.00 L 9246704.00 12672436.00 L 9246704.00 13736704.00  z"/>
<path id="N" d="M 13120615.00 16250615.00 L 13133296.00 16220000.00 L 13133296.00 15069140.00 L 13120615.00 15038525.00 L 13090000.00 15025844.00 L 12911420.00 15025844.00 L 12880805.00 15038525.00 L 12868124.00 15069140.00 L 12868124.00 16220000.00 L 12880805.00 16250615.00 L 12911420.00 16263296.00 L 13090000.00 16263296.00 L 13120615.00 16250615.00  zM 13046704.00 16176704.00 L 12954716.00 16176704.00 L 12954716.00 15112436.00 L 13046704.00 15112436.00 L 13046704.00 16176704.00  z"/>
<path id="N" d="M 12072868.00 18157614.00 L 12067408.00 18114480.00 L 12061948.00 18099192.00 L 12052120.00 18087180.00 L 12039016.00 18077352.00 L 12017722.00 18070254.00 L 11992606.00 18069708.00 L 11968036.00 18074622.00 L 11977318.00 18113934.00 L 11991514.00 18110658.00 L 12006256.00 18111204.00 L 12016630.00 18116664.00 L 12021544.00 18124854.00 L 12025912.00 18148332.00 L 12026458.00 18454092.00 L 12072868.00 18454092.00 L 12072868.00 18157614.00  z"/>
<path id="N" d="M 11120615.00 15310615.00 L 11133296.00 15280000.00 L 11133296.00 14129140.00 L 11120615.00 14098525.00 L 11090000.00 14085844.00 L 10911420.00 14085844.00 L 10880805.00 14098525.00 L 10868124.00 14129140.00 L 10868124.00 15280000.00 L 10880805.00 15310615.00 L 10911420.00 15323296.00 L 11090000.00 15323296.00 L 11120615.00 15310615.00  zM 11046704.00 15236704.00 L 10954716.00 15236704.00 L 10954716.00 14172436.00 L 11046704.00 14172436.00 L 11046704.00 15236704.00  z"/>
<path id="N" d="M 4945545.00 15195420.00 L 4997715.00 15195420.00 L 4997715.00 15152130.00 L 4945545.00 15152130.00 L 4945545.00 15060000.00 L 4898370.00 15060000.00 L 4898370.00 15152130.00 L 4731315.00 15152130.00 L 4731315.00 15195420.00 L 4907250.00 15444060.00 L 4945545.00 15444060.00 L 4945545.00 15195420.00  zM 4898370.00 15367470.00 L 4777380.00 15195420.00 L 4898370.00 15195420.00 L 4898370.00 15367470.00  z"/>
<path id="N" d="M 24454385.00 14765420.00 L 24506555.00 14765420.00 L 24506555.00 14722130.00 L 24454385.00 14722130.00 L 24454385.00 14630000.00 L 24407210.00 14630000.00 L 24407210.00 14722130.00 L 24240155.00 14722130.00 L 24240155.00 14765420.00 L 24416090.00 15014060.00 L 24454385.00 15014060.00 L 24454385.00 14765420.00  zM 24407210.00 14937470.00 L 24286220.00 14765420.00 L 24407210.00 14765420.00 L 24407210.00 14937470.00  z"/>
<path id="N" d="M 6392035.00 17499355.00 L 6404716.00 17468740.00 L 6404716.00 11232276.00 L 6861420.00 11232276.00 L 6892035.00 11219595.00 L 6904716.00 11188980.00 L 6892035.00 11158365.00 L 6861420.00 11145684.00 L 6361420.00 11145684.00 L 6330805.00 11158365.00 L 6318124.00 11188980.00 L 6318124.00 17468740.00 L 6330805.00 17499355.00 L 6361420.00 17512036.00 L 6392035.00 17499355.00  z"/>
<path id="N" d="M 31025010.00 16680000.00 L 30977835.00 16680000.00 L 30977280.00 16979700.00 L 30971175.00 16974150.00 L 30932880.00 16947510.00 L 30883485.00 16923645.00 L 30884040.00 16969155.00 L 30917895.00 16988025.00 L 30952305.00 17014110.00 L 30975615.00 17038530.00 L 30994485.00 17065725.00 L 31025010.00 17065725.00 L 31025010.00 16680000.00  z"/>
<path id="N" d="M 7203540.00 17840000.00 L 7156365.00 17840000.00 L 7155810.00 18139700.00 L 7149705.00 18134150.00 L 7111410.00 18107510.00 L 7062015.00 18083645.00 L 7062570.00 18129155.00 L 7096425.00 18148025.00 L 7130835.00 18174110.00 L 7154145.00 18198530.00 L 7173015.00 18225725.00 L 7203540.00 18225725.00 L 7203540.00 17840000.00  z"/>
<path id="N" d="M 15113990.00 7930000.00 L 15066815.00 7930000.00 L 15066260.00 8229700.00 L 15060155.00 8224150.00 L 15021860.00 8197510.00 L 14972465.00 8173645.00 L 14973020.00 8219155.00 L 15006875.00 8238025.00 L 15041285.00 8264110.00 L 15064595.00 8288530.00 L 15083465.00 8315725.00 L 15113990.00 8315725.00 L 15113990.00 7930000.00  z"/>
<path id="N" d="M 14423850.00 15920000.00 L 14376675.00 15920000.00 L 14376120.00 16219700.00 L 14370015.00 16214150.00 L 14331720.00 16187510.00 L 14282325.00 16163645.00 L 14282880.00 16209155.00 L 14316735.00 16228025.00 L 14351145.00 16254110.00 L 14374455.00 16278530.00 L 14393325.00 16305725.00 L 14423850.00 16305725.00 L 14423850.00 15920000.00  z"/>
<path id="N" d="M 30275895.00 17499355.00 L 30288576.00 17468740.00 L 30288576.00 11188980.00 L 30275895.00 11158365.00 L 30245280.00 11145684.00 L 30214665.00 11158365.00 L 30201984.00 11188980.00 L 30201984.00 17468740.00 L 30214665.00 17499355.00 L 30245280.00 17512036.00 L 30275895.00 17499355.00  z"/>
<path id="N" d="M 10804235.00 15330615.00 L 10816916.00 15300000.00 L 10804235.00 15269385.00 L 10773620.00 15256704.00 L 10360240.00 15256704.00 L 10329625.00 15269385.00 L 10316944.00 15300000.00 L 10329625.00 15330615.00 L 10360240.00 15343296.00 L 10773620.00 15343296.00 L 10804235.00 15330615.00  z"/>
<path id="N" d="M 25220375.00 13230615.00 L 25233056.00 13200000.00 L 25220375.00 13169385.00 L 25189760.00 13156704.00 L 24776380.00 13156704.00 L 24745765.00 13169385.00 L 24733084.00 13200000.00 L 24745765.00 13230615.00 L 24776380.00 13243296.00 L 25189760.00 13243296.00 L 25220375.00 13230615.00  z"/>
<path id="N" d="M 9004235.00 13830615.00 L 9016916.00 13800000.00 L 9004235.00 13769385.00 L 8973620.00 13756704.00 L 8560240.00 13756704.00 L 8529625.00 13769385.00 L 8516944.00 13800000.00 L 8529625.00 13830615.00 L 8560240.00 13843296.00 L 8973620.00 13843296.00 L 9004235.00 13830615.00  z"/>
<path id="N" d="M 27870375.00 12980615.00 L 27883056.00 12950000.00 L 27870375.00 12919385.00 L 27839760.00 12906704.00 L 27426380.00 12906704.00 L 27395765.00 12919385.00 L 27383084.00 12950000.00 L 27395765.00 12980615.00 L 27426380.00 12993296.00 L 27839760.00 12993296.00 L 27870375.00 12980615.00  z"/>
<path id="N" d="M 12804235.00 16270615.00 L 12816916.00 16240000.00 L 12804235.00 16209385.00 L 12773620.00 16196704.00 L 12360240.00 16196704.00 L 12329625.00 16209385.00 L 12316944.00 16240000.00 L 12329625.00 16270615.00 L 12360240.00 16283296.00 L 12773620.00 16283296.00 L 12804235.00 16270615.00  z"/>
<path id="N" d="M 22870375.00 14230615.00 L 22883056.00 14200000.00 L 22870375.00 14169385.00 L 22839760.00 14156704.00 L 22426380.00 14156704.00 L 22395765.00 14169385.00 L 22383084.00 14200000.00 L 22395765.00 14230615.00 L 22426380.00 14243296.00 L 22839760.00 14243296.00 L 22870375.00 14230615.00  z"/>
<path id="N" d="M 5290615.00 13226355.00 L 5303296.00 13195740.00 L 5303296.00 12660000.00 L 5290615.00 12629385.00 L 5260000.00 12616704.00 L 5229385.00 12629385.00 L 5216704.00 12660000.00 L 5216704.00 13195740.00 L 5229385.00 13226355.00 L 5260000.00 13239036.00 L 5290615.00 13226355.00  z"/>
<path id="N" d="M 31410615.00 14660615.00 L 31423296.00 14630000.00 L 31423296.00 14094260.00 L 31410615.00 14063645.00 L 31380000.00 14050964.00 L 31349385.00 14063645.00 L 31336704.00 14094260.00 L 31336704.00 14630000.00 L 31349385.00 14660615.00 L 31380000.00 14673296.00 L 31410615.00 14660615.00  z"/>
<path id="N" d="M 31410615.00 13070615.00 L 31423296.00 13040000.00 L 31423296.00 12504260.00 L 31410615.00 12473645.00 L 31380000.00 12460964.00 L 31349385.00 12473645.00 L 31336704.00 12504260.00 L 31336704.00 13040000.00 L 31349385.00 13070615.00 L 31380000.00 13083296.00 L 31410615.00 13070615.00  z"/>
<path id="N" d="M 5260615.00 16346355.00 L 5273296.00 16315740.00 L 5273296.00 15780000.00 L 5260615.00 15749385.00 L 5230000.00 15736704.00 L 5199385.00 15749385.00 L 5186704.00 15780000.00 L 5186704.00 16315740.00 L 5199385.00 16346355.00 L 5230000.00 16359036.00 L 5260615.00 16346355.00  z"/>
<path id="N" d="M 5280615.00 14796355.00 L 5293296.00 14765740.00 L 5293296.00 14230000.00 L 5280615.00 14199385.00 L 5250000.00 14186704.00 L 5219385.00 14199385.00 L 5206704.00 14230000.00 L 5206704.00 14765740.00 L 5219385.00 14796355.00 L 5250000.00 14809036.00 L 5280615.00 14796355.00  z"/>
<path id="N" d="M 31380615.00 16370615.00 L 31393296.00 16340000.00 L 31393296.00 15804260.00 L 31380615.00 15773645.00 L 31350000.00 15760964.00 L 31319385.00 15773645.00 L 31306704.00 15804260.00 L 31306704.00 16340000.00 L 31319385.00 16370615.00 L 31350000.00 16383296.00 L 31380615.00 16370615.00  z"/>
<path id="N" d="M 8810518.00 18513060.00 L 8686030.00 18513060.00 L 8686030.00 18180000.00 L 8635798.00 18180000.00 L 8635798.00 18513060.00 L 8511310.00 18513060.00 L 8511310.00 18557832.00 L 8810518.00 18557832.00 L 8810518.00 18513060.00  z"/>
<path id="N" d="M 9720700.00 18513060.00 L 9596212.00 18513060.00 L 9596212.00 18180000.00 L 9545980.00 18180000.00 L 9545980.00 18513060.00 L 9421492.00 18513060.00 L 9421492.00 18557832.00 L 9720700.00 18557832.00 L 9720700.00 18513060.00  z"/>
<path id="N" d="M 12072868.00 18503778.00 L 12026458.00 18503778.00 L 12026458.00 18557832.00 L 12072868.00 18557832.00 L 12072868.00 18503778.00  z"/>
</g>
</svg>
