<svg width="72.99999878mm" height="38.99999566mm" viewBox="0 0 28740157 15354329"  version="1.1" xmlns="http://www.w3.org/2000/svg" xmlns:xlink="http://www.w3.org/1999/xlink">
<desc>
Origin 3750000 19500000 Bound 3937007 3937007 28740157 15354329
</desc>
<g fill-rule="evenodd" fill="rgb(27, 144, 179)" stroke="black" stroke-width="1" transform="translate(0, 15354329) scale(1, -1) translate(-3937007, -3937007)">
<path id="N" d="M 16861423.75 16828750.00 m -272319.73 0 a 272319.73 272319.73 0 1 1 544639.46 0a 272319.73 272319.73 0 1 1 -544639.46 0M 16861419.41 16828743.73 m -183522.27 0 a 183522.27 183522.27 0 1 1 367044.53 0a 183522.27 183522.27 0 1 1 -367044.53 0"/>
<path id="N" d="M 12861423.75 16828750.00 m -272319.73 0 a 272319.73 272319.73 0 1 1 544639.46 0a 272319.73 272319.73 0 1 1 -544639.46 0M 12861419.41 16828743.73 m -183522.27 0 a 183522.27 183522.27 0 1 1 367044.53 0a 183522.27 183522.27 0 1 1 -367044.53 0"/>
<path id="N" d="M 24751183.75 16828750.00 m -272319.73 0 a 272319.73 272319.73 0 1 1 544639.46 0a 272319.73 272319.73 0 1 1 -544639.46 0M 24751179.41 16828743.73 m -183522.27 0 a 183522.27 183522.27 0 1 1 367044.53 0a 183522.27 183522.27 0 1 1 -367044.53 0"/>
<path id="N" d="M 28751183.75 16828750.00 m -272319.73 0 a 272319.73 272319.73 0 1 1 544639.46 0a 272319.73 272319.73 0 1 1 -544639.46 0M 28751179.41 16828743.73 m -183522.27 0 a 183522.27 183522.27 0 1 1 367044.53 0a 183522.27 183522.27 0 1 1 -367044.53 0"/>
<path id="N" d="M 7861423.75 16828750.00 m -272319.73 0 a 272319.73 272319.73 0 1 1 544639.46 0a 272319.73 272319.73 0 1 1 -544639.46 0M 7861419.41 16828743.73 m -183522.27 0 a 183522.27 183522.27 0 1 1 367044.53 0a 183522.27 183522.27 0 1 1 -367044.53 0"/>
<path id="N" d="M 19751183.75 16828750.00 m -272319.73 0 a 272319.73 272319.73 0 1 1 544639.46 0a 272319.73 272319.73 0 1 1 -544639.46 0M 19751179.41 16828743.73 m -183522.27 0 a 183522.27 183522.27 0 1 1 367044.53 0a 183522.27 183522.27 0 1 1 -367044.53 0"/>
<path id="N" d="M 15755000.00 6495000.00 L 15245000.00 6495000.00 L 15245000.00 7005000.00 L 15755000.00 7005000.00 L 15755000.00 6495000.00  zM 15499999.59 6750000.10 m -173329.90 0 a 173329.90 173329.90 0 1 1 346659.79 0a 173329.90 173329.90 0 1 1 -346659.79 0"/>
<path id="N" d="M 19259795.00 6650504.00 L 19250769.15 6695880.00 L 19095173.03 6695880.00 L 18544120.00 6144826.03 L 18544120.00 5724315.00 L 18528267.29 5686045.29 L 18293954.00 5451731.00 L 18255682.59 5435880.00 L 17477158.00 5435879.00 L 17438889.00 5451731.00 L 16654740.00 6235880.00 L 14564132.81 6235880.00 L 14555495.00 6192455.00 A 254898.03 254898.03 0 1 0 14555495.00 6387545.00 L 14564132.81 6344120.00 L 16677158.00 6344121.00 L 16715427.00 6328269.00 L 17499576.00 5544120.00 L 18233267.07 5544120.00 L 18435880.00 5746732.07 L 18435879.00 6167244.00 L 18451731.00 6205513.00 L 19034487.00 6788269.00 L 19072756.00 6804120.00 L 19250769.15 6804120.00 L 19259795.00 6849496.00 A 259994.27 259994.27 0 1 0 19259795.00 6650504.00  zM 19499999.59 6750000.10 m -173329.90 0 a 173329.90 173329.90 0 1 1 346659.79 0a 173329.90 173329.90 0 1 1 -346659.79 0"/>
<path id="N" d="M 27725495.00 17842455.00 L 27700896.55 17805640.79 L 27789449.00 17717089.00 L 27805300.00 17678820.00 L 27805300.00 17093945.27 L 27821664.00 17091791.00 A 272319.73 272319.73 0 1 0 27680696.00 17091791.00 L 27697060.00 17093945.27 L 27697060.00 17656402.94 L 27624359.21 17729103.45 L 27587545.00 17704505.00 A 254896.24 254896.24 0 1 0 27725495.00 17842455.00  zM 27751179.41 16828743.73 m -183522.27 0 a 183522.27 183522.27 0 1 1 367044.53 0a 183522.27 183522.27 0 1 1 -367044.53 0"/>
<path id="N" d="M 15947545.00 17784505.00 L 15915540.00 17778138.78 L 15915540.00 17093945.27 L 15931904.00 17091791.00 A 272319.73 272319.73 0 1 0 15790936.00 17091791.00 L 15807300.00 17093945.27 L 15807300.00 17773595.60 L 15752455.00 17784505.00 A 254898.03 254898.03 0 1 0 15947545.00 17784505.00  zM 15861419.41 16828743.73 m -183522.27 0 a 183522.27 183522.27 0 1 1 367044.53 0a 183522.27 183522.27 0 1 1 -367044.53 0"/>
<path id="N" d="M 21970000.00 14680000.00 L 21814120.00 14680000.00 L 21814120.00 12092784.14 L 21821664.00 12091791.00 A 272319.73 272319.73 0 1 0 21680696.00 12091791.00 L 21705880.00 12095106.40 L 21705880.00 14680000.00 L 21550000.00 14680000.00 L 21550000.00 14920000.00 L 21970000.00 14920000.00 L 21970000.00 14680000.00  zM 21751179.41 11828743.73 m -183522.27 0 a 183522.27 183522.27 0 1 1 367044.53 0a 183522.27 183522.27 0 1 1 -367044.53 0"/>
<path id="N" d="M 20500001.29 7750001.29 m -259994.27 0 a 259994.27 259994.27 0 1 1 519988.55 0a 259994.27 259994.27 0 1 1 -519988.55 0M 20499999.59 7750000.10 m -173329.90 0 a 173329.90 173329.90 0 1 1 346659.79 0a 173329.90 173329.90 0 1 1 -346659.79 0"/>
<path id="N" d="M 4860000.00 15705000.00 L 4440000.00 15705000.00 L 4440000.00 15763462.53 L 4174120.00 15497582.03 L 4174120.00 12462444.00 L 5025667.19 11610896.81 L 5062481.00 11635495.00 A 254896.24 254896.24 0 1 0 4924531.00 11497545.00 L 4949129.19 11534358.81 L 4081731.00 12401757.00 L 4065880.00 12440028.41 L 4065879.00 15520000.00 L 4081731.00 15558269.00 L 4440000.00 15916537.32 L 4440000.00 16395000.00 L 4860000.00 16395000.00 L 4860000.00 15705000.00  z"/>
<path id="N" d="M 4880000.00 14155000.00 L 4460000.00 14155000.00 L 4460000.00 14213462.29 L 4374120.00 14127582.05 L 4374120.00 12545286.00 L 4430286.00 12489120.00 L 4892158.00 12489121.00 L 4930427.00 12473269.00 L 6559575.01 10844120.00 L 13160000.00 10844121.00 L 13198269.00 10828269.00 L 13358268.00 10668270.00 L 13374119.00 10629998.59 L 13374119.00 5224120.00 L 20040880.00 5224120.00 L 20040880.00 7132582.00 L 19637963.76 7535498.24 L 19599496.00 7509795.00 A 259995.39 259995.39 0 1 0 19740205.00 7650504.00 L 19714501.76 7612036.24 L 20133269.00 7193269.00 L 20149120.00 7155000.00 L 20149120.00 5170000.00 L 20133269.00 5131731.00 L 20095000.00 5115880.00 L 13319999.00 5115880.00 L 13281730.00 5131731.00 L 13265879.00 5170000.00 L 13265879.00 10607583.90 L 13137582.10 10735880.00 L 6537158.00 10735880.00 L 6498888.29 10751732.71 L 4869740.01 12380880.00 L 4407868.00 12380880.00 L 4369599.00 12396731.00 L 4281731.00 12484599.00 L 4265880.00 12522870.41 L 4265879.00 14150000.00 L 4281731.00 14188269.00 L 4460000.00 14366537.49 L 4460000.00 14845000.00 L 4880000.00 14845000.00 L 4880000.00 14155000.00  zM 19499999.59 7750000.10 m -173329.90 0 a 173329.90 173329.90 0 1 1 346659.79 0a 173329.90 173329.90 0 1 1 -346659.79 0"/>
<path id="N" d="M 32170000.00 12425000.00 L 31750000.00 12425000.00 L 31750000.00 12483462.00 L 29408269.00 10141731.00 L 29369997.59 10125880.00 L 24379662.00 10125880.00 L 22149120.00 7895338.00 L 22149120.00 7765000.00 L 22133267.29 7726730.29 L 21523269.00 7116731.00 L 21484997.59 7100880.00 L 21354661.04 7100880.00 L 20965513.00 6711731.00 L 20927241.59 6695880.00 L 20749230.85 6695880.00 L 20740205.00 6650504.00 A 259994.27 259994.27 0 1 0 20740205.00 6849496.00 L 20749230.85 6804120.00 L 20904826.04 6804120.00 L 21293975.00 7193269.00 L 21332244.00 7209120.00 L 21462582.03 7209120.00 L 22040880.00 7787417.03 L 22040879.00 7917756.00 L 22056731.00 7956025.00 L 24318975.00 10218269.00 L 24357244.00 10234120.00 L 29347582.00 10234120.00 L 31750000.00 12636538.00 L 31750000.00 13115000.00 L 32170000.00 13115000.00 L 32170000.00 12425000.00  zM 20499999.59 6750000.10 m -173329.90 0 a 173329.90 173329.90 0 1 1 346659.79 0a 173329.90 173329.90 0 1 1 -346659.79 0"/>
<path id="N" d="M 31019140.00 14015000.00 L 30599140.00 14015000.00 L 30599140.00 14073462.65 L 30141429.00 13615751.00 L 30103157.59 13599900.00 L 27198112.00 13599900.00 L 27159843.00 13615751.00 L 27009714.00 13765880.00 L 26510286.00 13765880.00 L 26386137.00 13641731.00 L 26347865.59 13625880.00 L 25692417.06 13625880.00 L 25448269.00 13381731.00 L 25409997.59 13365880.00 L 25193080.00 13365880.00 L 25193080.00 13300000.00 L 24773080.00 13300000.00 L 24773080.00 13540000.00 L 25193080.00 13540000.00 L 25193080.00 13474120.00 L 25387582.06 13474120.00 L 25631731.00 13718269.00 L 25670002.41 13734120.00 L 26325450.00 13734120.00 L 26449599.00 13858269.00 L 26487870.41 13874120.00 L 27032132.00 13874121.00 L 27070401.00 13858269.00 L 27220530.00 13708140.00 L 30080742.02 13708140.00 L 30599140.00 14226537.24 L 30599140.00 14705000.00 L 31019140.00 14705000.00 L 31019140.00 14015000.00  z"/>
<path id="N" d="M 27843080.00 13224120.00 L 29170000.00 13224121.00 L 29208269.00 13208269.00 L 29592417.04 12824120.00 L 30599140.00 12824120.00 L 30599140.00 13115000.00 L 31019140.00 13115000.00 L 31019140.00 12425000.00 L 30599140.00 12425000.00 L 30599140.00 12715880.00 L 29570000.00 12715880.00 L 29531730.29 12731732.71 L 29147582.04 13115880.00 L 27843080.00 13115880.00 L 27843080.00 13050000.00 L 27423080.00 13050000.00 L 27423080.00 13290000.00 L 27843080.00 13290000.00 L 27843080.00 13224120.00  z"/>
<path id="N" d="M 24320000.00 13680000.00 L 24066537.06 13680000.00 L 22805300.00 12418762.01 L 22805300.00 12093945.27 L 22821664.00 12091791.00 A 272319.73 272319.73 0 1 0 22680696.00 12091791.00 L 22697060.00 12093945.27 L 22697059.00 12441180.00 L 22712911.00 12479449.00 L 23913462.88 13680000.00 L 23900000.00 13680000.00 L 23900000.00 13920000.00 L 24320000.00 13920000.00 L 24320000.00 13680000.00  zM 22751179.41 11828743.73 m -183522.27 0 a 183522.27 183522.27 0 1 1 367044.53 0a 183522.27 183522.27 0 1 1 -367044.53 0"/>
<path id="N" d="M 13650000.00 15520000.00 L 13494120.00 15520000.00 L 13494120.00 13272577.99 L 14712160.29 12054536.84 L 14725255.00 12064585.00 A 272323.74 272323.74 0 1 0 14625575.00 11964905.00 L 14635623.16 11977999.71 L 13401731.00 13211891.00 L 13385880.00 13250162.41 L 13385880.00 15520000.00 L 13230000.00 15520000.00 L 13230000.00 15760000.00 L 13650000.00 15760000.00 L 13650000.00 15520000.00  zM 14861419.41 11828743.73 m -183522.27 0 a 183522.27 183522.27 0 1 1 367044.53 0a 183522.27 183522.27 0 1 1 -367044.53 0"/>
<path id="N" d="M 6861423.75 16828750.00 m -272319.73 0 a 272319.73 272319.73 0 1 1 544639.46 0a 272319.73 272319.73 0 1 1 -544639.46 0M 6861419.41 16828743.73 m -183522.27 0 a 183522.27 183522.27 0 1 1 367044.53 0a 183522.27 183522.27 0 1 1 -367044.53 0"/>
<path id="N" d="M 13861423.75 16828750.00 m -272319.73 0 a 272319.73 272319.73 0 1 1 544639.46 0a 272319.73 272319.73 0 1 1 -544639.46 0M 13861419.41 16828743.73 m -183522.27 0 a 183522.27 183522.27 0 1 1 367044.53 0a 183522.27 183522.27 0 1 1 -367044.53 0"/>
<path id="N" d="M 18751183.75 16828750.00 m -272319.73 0 a 272319.73 272319.73 0 1 1 544639.46 0a 272319.73 272319.73 0 1 1 -544639.46 0M 18751179.41 16828743.73 m -183522.27 0 a 183522.27 183522.27 0 1 1 367044.53 0a 183522.27 183522.27 0 1 1 -367044.53 0"/>
<path id="N" d="M 25751183.75 16828750.00 m -272319.73 0 a 272319.73 272319.73 0 1 1 544639.46 0a 272319.73 272319.73 0 1 1 -544639.46 0M 25751179.41 16828743.73 m -183522.27 0 a 183522.27 183522.27 0 1 1 367044.53 0a 183522.27 183522.27 0 1 1 -367044.53 0"/>
<path id="N" d="M 14861423.75 16828750.00 m -272319.73 0 a 272319.73 272319.73 0 1 1 544639.46 0a 272319.73 272319.73 0 1 1 -544639.46 0M 14861419.41 16828743.73 m -183522.27 0 a 183522.27 183522.27 0 1 1 367044.53 0a 183522.27 183522.27 0 1 1 -367044.53 0"/>
<path id="N" d="M 26751183.75 16828750.00 m -272319.73 0 a 272319.73 272319.73 0 1 1 544639.46 0a 272319.73 272319.73 0 1 1 -544639.46 0M 26751179.41 16828743.73 m -183522.27 0 a 183522.27 183522.27 0 1 1 367044.53 0a 183522.27 183522.27 0 1 1 -367044.53 0"/>
<path id="N" d="M 18500001.29 6750001.29 m -259994.27 0 a 259994.27 259994.27 0 1 1 519988.55 0a 259994.27 259994.27 0 1 1 -519988.55 0M 18499999.59 6750000.10 m -173329.90 0 a 173329.90 173329.90 0 1 1 346659.79 0a 173329.90 173329.90 0 1 1 -346659.79 0"/>
<path id="N" d="M 17587235.00 12395805.00 L 17595872.81 12352380.00 L 20875629.00 12352381.00 L 20913898.00 12336529.00 L 21369449.00 11880978.00 L 21385300.00 11842709.00 L 21385300.00 11677188.94 L 21599628.06 11462860.00 L 22902731.06 11462860.00 L 23117060.00 11677188.06 L 23117059.00 11842709.00 L 23132911.00 11880978.00 L 23538942.00 12287009.00 L 23577213.41 12302860.00 L 24331180.00 12302861.00 L 24369449.00 12287009.00 L 24601920.47 12054536.98 L 24615015.00 12064585.00 A 272323.74 272323.74 0 0 0 24987025.00 11692575.00 L 24976977.03 11679480.53 L 25193597.04 11462860.00 L 26902731.04 11462860.00 L 27277060.00 11837188.04 L 27277059.00 12002709.00 L 27292911.00 12040978.00 L 27538942.00 12287009.00 L 27577211.00 12302860.00 L 27925149.00 12302861.00 L 27963418.00 12287009.00 L 28367566.04 11882860.00 L 28485974.73 11882860.00 L 28488129.00 11899224.00 A 272319.73 272319.73 0 1 0 28488129.00 11758256.00 L 28485974.73 11774620.00 L 28345149.00 11774619.00 L 28306879.29 11790472.71 L 27902731.04 12194620.00 L 27599628.06 12194620.00 L 27385300.00 11980291.06 L 27385301.00 11814771.00 L 27369447.29 11776501.29 L 26963418.00 11370471.00 L 26925146.59 11354620.00 L 25171180.00 11354619.00 L 25132910.29 11370472.71 L 24900439.47 11602942.97 L 24887345.00 11592895.00 A 272323.74 272323.74 0 0 0 24515335.00 11964905.00 L 24525383.02 11977999.53 L 24308762.04 12194620.00 L 23599628.04 12194620.00 L 23225300.00 11820291.04 L 23225300.00 11654771.00 L 23209447.29 11616501.29 L 22963418.00 11370471.00 L 22925146.59 11354620.00 L 21577211.00 11354620.00 L 21538941.29 11370472.71 L 21292911.00 11616502.00 L 21277060.00 11654773.41 L 21277060.00 11820291.97 L 20853211.03 12244140.00 L 19805300.00 12244140.00 L 19805300.00 12093945.27 L 19821664.00 12091791.00 A 272319.73 272319.73 0 1 0 19680696.00 12091791.00 L 19697060.00 12093945.27 L 19697060.00 12235142.61 L 19688062.39 12244140.00 L 17595872.81 12244140.00 L 17587235.00 12200715.00 A 254898.03 254898.03 0 1 0 17587235.00 12395805.00  zM 19751179.41 11828743.73 m -183522.27 0 a 183522.27 183522.27 0 1 1 367044.53 0a 183522.27 183522.27 0 1 1 -367044.53 0M 24751179.41 11828743.73 m -183522.27 0 a 183522.27 183522.27 0 1 1 367044.53 0a 183522.27 183522.27 0 1 1 -367044.53 0M 28751179.41 11828743.73 m -183522.27 0 a 183522.27 183522.27 0 1 1 367044.53 0a 183522.27 183522.27 0 1 1 -367044.53 0"/>
<path id="N" d="M 7860207.22 12100910.34 A 270095.71 270095.71 0 1 0 7589090.00 11828740.00 L 7585262.00 11850000.00 A 254898.66 254898.66 0 0 0 7840160.00 12104898.00 L 7860207.22 12100910.34  zM 7861419.41 11828743.73 m -183522.27 0 a 183522.27 183522.27 0 1 1 367044.53 0a 183522.27 183522.27 0 1 1 -367044.53 0"/>
<path id="N" d="M 12861423.75 11828750.00 m -272319.73 0 a 272319.73 272319.73 0 1 1 544639.46 0a 272319.73 272319.73 0 1 1 -544639.46 0M 12861419.41 11828743.73 m -183522.27 0 a 183522.27 183522.27 0 1 1 367044.53 0a 183522.27 183522.27 0 1 1 -367044.53 0"/>
<path id="N" d="M 16861423.75 11828750.00 m -272319.73 0 a 272319.73 272319.73 0 1 1 544639.46 0a 272319.73 272319.73 0 1 1 -544639.46 0M 16861419.41 11828743.73 m -183522.27 0 a 183522.27 183522.27 0 1 1 367044.53 0a 183522.27 183522.27 0 1 1 -367044.53 0"/>
<path id="N" d="M 17500001.29 7750001.29 m -259994.27 0 a 259994.27 259994.27 0 1 1 519988.55 0a 259994.27 259994.27 0 1 1 -519988.55 0M 17499999.59 7750000.10 m -173329.90 0 a 173329.90 173329.90 0 1 1 346659.79 0a 173329.90 173329.90 0 1 1 -346659.79 0"/>
<path id="N" d="M 32140000.00 15936537.58 L 32378269.00 15698269.00 L 32394120.00 15659997.59 L 32394120.00 13642391.91 L 32558269.00 13478243.00 L 32574120.00 13439974.00 L 32574120.00 12280026.00 L 32558267.29 12241756.29 L 32256822.00 11940310.00 L 32218550.59 11924459.00 L 31756680.01 11924459.00 L 29573953.00 9741731.00 L 29535681.59 9725880.00 L 24545345.01 9725880.00 L 23160584.00 8341118.01 L 23160585.00 7356464.00 L 23144731.29 7318194.29 L 22714501.64 6887963.93 L 22740205.00 6849496.00 A 259995.39 259995.39 0 1 0 22599496.00 6990205.00 L 22637963.93 6964501.64 L 23052344.00 7378881.03 L 23052343.00 8363536.00 L 23068195.00 8401805.00 L 24484659.00 9818269.00 L 24522930.41 9834120.00 L 29513266.01 9834120.00 L 31695994.00 12016848.00 L 31734263.00 12032699.00 L 32196135.05 12032699.00 L 32465880.00 12302443.05 L 32465880.00 13417556.91 L 32301731.00 13581705.00 L 32285880.00 13619976.41 L 32285880.00 15637582.96 L 32140000.00 15783462.61 L 32140000.00 15725000.00 L 31720000.00 15725000.00 L 31720000.00 16415000.00 L 32140000.00 16415000.00 L 32140000.00 15936537.58  zM 22499999.59 6750000.10 m -173329.90 0 a 173329.90 173329.90 0 1 1 346659.79 0a 173329.90 173329.90 0 1 1 -346659.79 0"/>
<path id="N" d="M 16495429.00 18568269.00 L 17180997.02 17882700.00 L 25345309.00 17882701.00 L 25383578.00 17866849.00 L 26209449.00 17040978.00 L 26225300.00 17002706.59 L 26225300.00 16837188.96 L 26599628.04 16462860.00 L 29902731.00 16462860.00 L 30043140.00 16603269.00 L 30081411.41 16619120.00 L 31051272.00 16619121.00 L 31089541.00 16603269.00 L 31207409.00 16485401.00 L 31223260.00 16447129.59 L 31223261.00 12362868.00 L 31207409.00 12324599.00 L 29354541.00 10471731.00 L 29316269.59 10455880.00 L 21984132.81 10455880.00 L 21975495.00 10412455.00 A 254898.03 254898.03 0 1 0 21975495.00 10607545.00 L 21984132.81 10564120.00 L 29293854.00 10564120.00 L 31115020.00 12385286.00 L 31115020.00 16424714.87 L 31028854.13 16510880.00 L 30103827.00 16510880.00 L 29963418.00 16370471.00 L 29925146.59 16354620.00 L 26577211.00 16354619.00 L 26538941.29 16370472.71 L 26132911.00 16776502.00 L 26117060.00 16814773.41 L 26117060.00 16980291.00 L 25322891.00 17774460.00 L 23805300.00 17774460.00 L 23805300.00 17093945.27 L 23821664.00 17091791.00 A 272319.73 272319.73 0 1 0 23680696.00 17091791.00 L 23697060.00 17093945.27 L 23697060.00 17756402.68 L 23679002.32 17774460.00 L 20815540.00 17774460.00 L 20815540.00 17092597.21 L 20821664.00 17091791.00 A 272319.73 272319.73 0 1 0 20680696.00 17091791.00 L 20707300.00 17095293.33 L 20707300.00 17774460.00 L 17158580.00 17774459.00 L 17120310.29 17790312.71 L 16434742.02 18475880.00 L 14810257.02 18475880.00 L 14124689.00 17790311.00 L 14086417.59 17774460.00 L 11915540.00 17774460.00 L 11915540.00 17093945.27 L 11931904.00 17091791.00 A 272319.73 272319.73 0 1 0 11790936.00 17091791.00 L 11807300.00 17093945.27 L 11807300.00 17774460.00 L 8905540.00 17774460.00 L 8905540.00 17095261.74 L 8931904.00 17091791.00 A 272319.73 272319.73 0 1 0 8790936.00 17091791.00 L 8797300.00 17092628.80 L 8797300.00 17828580.00 L 8813151.00 17866849.00 L 8851420.00 17882700.00 L 14064002.02 17882700.00 L 14749571.00 18568269.00 L 14787842.41 18584120.00 L 16457160.00 18584121.00 L 16495429.00 18568269.00  zM 11861419.41 16828743.73 m -183522.27 0 a 183522.27 183522.27 0 1 1 367044.53 0a 183522.27 183522.27 0 1 1 -367044.53 0M 8861419.41 16828743.73 m -183522.27 0 a 183522.27 183522.27 0 1 1 367044.53 0a 183522.27 183522.27 0 1 1 -367044.53 0M 20751179.41 16828743.73 m -183522.27 0 a 183522.27 183522.27 0 1 1 367044.53 0a 183522.27 183522.27 0 1 1 -367044.53 0M 23751179.41 16828743.73 m -183522.27 0 a 183522.27 183522.27 0 1 1 367044.53 0a 183522.27 183522.27 0 1 1 -367044.53 0"/>
<path id="N" d="M 19162455.00 8394505.00 L 19125640.88 8419103.39 L 18959120.00 8252582.04 L 18959120.00 7582244.00 L 18943267.29 7543974.29 L 18516025.00 7116731.00 L 18477753.59 7100880.00 L 18354661.63 7100880.00 L 18345513.00 7091731.00 L 18307241.59 7075880.00 L 17782417.06 7075880.00 L 17657791.12 6951253.58 L 17683845.00 6933845.00 A 259997.17 259997.17 0 1 0 17500000.00 7009996.00 L 17552929.93 6999467.58 L 17721731.00 7168269.00 L 17760002.41 7184120.00 L 18284826.63 7184120.00 L 18293975.00 7193269.00 L 18332244.00 7209120.00 L 18455338.04 7209120.00 L 18850880.00 7604661.04 L 18850879.00 8275000.00 L 18866731.00 8313269.00 L 19049103.39 8495640.88 L 19024505.00 8532455.00 A 254896.24 254896.24 0 1 0 19162455.00 8394505.00  zM 17499999.59 6750000.10 m -173329.90 0 a 173329.90 173329.90 0 1 1 346659.79 0a 173329.90 173329.90 0 1 1 -346659.79 0"/>
<path id="N" d="M 17861423.75 11828750.00 m -272319.73 0 a 272319.73 272319.73 0 1 1 544639.46 0a 272319.73 272319.73 0 1 1 -544639.46 0M 17861419.41 11828743.73 m -183522.27 0 a 183522.27 183522.27 0 1 1 367044.53 0a 183522.27 183522.27 0 1 1 -367044.53 0"/>
<path id="N" d="M 29751183.75 11828750.00 m -272319.73 0 a 272319.73 272319.73 0 1 1 544639.46 0a 272319.73 272319.73 0 1 1 -544639.46 0M 29751179.41 11828743.73 m -183522.27 0 a 183522.27 183522.27 0 1 1 367044.53 0a 183522.27 183522.27 0 1 1 -367044.53 0"/>
<path id="N" d="M 13861423.75 11828750.00 m -272319.73 0 a 272319.73 272319.73 0 1 1 544639.46 0a 272319.73 272319.73 0 1 1 -544639.46 0M 13861419.41 11828743.73 m -183522.27 0 a 183522.27 183522.27 0 1 1 367044.53 0a 183522.27 183522.27 0 1 1 -367044.53 0"/>
<path id="N" d="M 25751183.75 11828750.00 m -272319.73 0 a 272319.73 272319.73 0 1 1 544639.46 0a 272319.73 272319.73 0 1 1 -544639.46 0M 25751179.41 11828743.73 m -183522.27 0 a 183522.27 183522.27 0 1 1 367044.53 0a 183522.27 183522.27 0 1 1 -367044.53 0"/>
<path id="N" d="M 15500001.29 7750001.29 m -259994.27 0 a 259994.27 259994.27 0 1 1 519988.55 0a 259994.27 259994.27 0 1 1 -519988.55 0M 15499999.59 7750000.10 m -173329.90 0 a 173329.90 173329.90 0 1 1 346659.79 0a 173329.90 173329.90 0 1 1 -346659.79 0"/>
<path id="N" d="M 19021180.00 11558740.00 L 18481180.00 11558740.00 L 18481180.00 12098740.00 L 19021180.00 12098740.00 L 19021180.00 11558740.00  zM 18751179.41 11828743.73 m -183522.27 0 a 183522.27 183522.27 0 1 1 367044.53 0a 183522.27 183522.27 0 1 1 -367044.53 0"/>
<path id="N" d="M 7131420.00 11558740.00 L 6591420.00 11558740.00 L 6591420.00 12098740.00 L 7131420.00 12098740.00 L 7131420.00 11558740.00  zM 6861419.41 11828743.73 m -183522.27 0 a 183522.27 183522.27 0 1 1 367044.53 0a 183522.27 183522.27 0 1 1 -367044.53 0"/>
<path id="N" d="M 30989140.00 15725000.00 L 30569140.00 15725000.00 L 30569140.00 16015880.00 L 24432417.01 16015880.00 L 22843080.00 14426542.03 L 22843080.00 14300000.00 L 22423080.00 14300000.00 L 22423080.00 14540000.00 L 22803462.05 14540000.00 L 24371731.00 16108269.00 L 24410000.00 16124120.00 L 30569140.00 16124120.00 L 30569140.00 16415000.00 L 30989140.00 16415000.00 L 30989140.00 15725000.00  z"/>
<path id="N" d="M 6010860.00 16104120.00 L 12356920.00 16104120.00 L 12356920.00 16140000.00 L 12776920.00 16140000.00 L 12776920.00 15900000.00 L 12356920.00 15900000.00 L 12356920.00 15995880.00 L 6010860.00 15995880.00 L 6010860.00 15705000.00 L 5590860.00 15705000.00 L 5590860.00 16395000.00 L 6010860.00 16395000.00 L 6010860.00 16104120.00  z"/>
<path id="N" d="M 8976920.00 13460000.00 L 8556920.00 13460000.00 L 8556920.00 13525880.00 L 7742417.02 13525880.00 L 7108269.00 12891731.00 L 7069997.59 12875880.00 L 6040860.00 12875880.00 L 6040860.00 12585000.00 L 5620860.00 12585000.00 L 5620860.00 13275000.00 L 6040860.00 13275000.00 L 6040860.00 12984120.00 L 7047582.02 12984120.00 L 7681731.00 13618269.00 L 7720002.41 13634120.00 L 8556920.00 13634120.00 L 8556920.00 13700000.00 L 8976920.00 13700000.00 L 8976920.00 13460000.00  z"/>
<path id="N" d="M 11650000.00 14580000.00 L 11494120.00 14580000.00 L 11494121.00 12407320.00 L 11478267.29 12369050.29 L 11087217.08 11977999.40 L 11097265.00 11964905.00 A 272323.74 272323.74 0 1 0 10997585.00 12064585.00 L 11010679.40 12054537.08 L 11385880.00 12429737.03 L 11385880.00 14580000.00 L 11230000.00 14580000.00 L 11230000.00 14820000.00 L 11650000.00 14820000.00 L 11650000.00 14580000.00  zM 10861419.41 11828743.73 m -183522.27 0 a 183522.27 183522.27 0 1 1 367044.53 0a 183522.27 183522.27 0 1 1 -367044.53 0"/>
<path id="N" d="M 32170000.00 14015000.00 L 31754121.00 14015000.00 L 31754121.00 13819549.00 L 32358269.00 13215401.00 L 32374120.00 13177129.59 L 32374121.00 12362868.00 L 32358269.00 12324599.00 L 32173980.00 12140310.00 L 32135708.59 12124459.00 L 31673838.01 12124459.00 L 29491111.00 9941731.00 L 29452839.59 9925880.00 L 24462503.01 9925880.00 L 22959120.00 8422496.01 L 22959120.00 7582244.00 L 22943267.29 7543974.29 L 22516025.00 7116731.00 L 22477753.59 7100880.00 L 22354661.08 7100880.00 L 22170513.00 6916731.00 L 22132241.59 6900880.00 L 21705871.43 6900880.00 L 21740205.00 6849496.00 A 259995.39 259995.39 0 1 0 21500000.00 7009996.00 L 22109826.08 7009120.00 L 22293975.00 7193269.00 L 22332246.41 7209120.00 L 22455338.04 7209120.00 L 22850880.00 7604661.04 L 22850879.00 8444914.00 L 22866731.00 8483183.00 L 24401817.00 10018269.00 L 24440086.00 10034120.00 L 29430424.01 10034120.00 L 31613152.00 12216848.00 L 31651421.00 12232699.00 L 32113293.00 12232699.00 L 32265880.00 12385286.00 L 32265880.00 13154714.00 L 31661732.00 13758862.00 L 31645881.00 13797133.41 L 31645880.00 14100001.00 L 31661732.00 14138270.00 L 31750000.00 14226538.00 L 31750000.00 14705000.00 L 32170000.00 14705000.00 L 32170000.00 14015000.00  zM 21499999.59 6750000.10 m -173329.90 0 a 173329.90 173329.90 0 1 1 346659.79 0a 173329.90 173329.90 0 1 1 -346659.79 0"/>
<path id="N" d="M 22500001.29 7750001.29 m -259994.27 0 a 259994.27 259994.27 0 1 1 519988.55 0a 259994.27 259994.27 0 1 1 -519988.55 0M 22499999.59 7750000.10 m -173329.90 0 a 173329.90 173329.90 0 1 1 346659.79 0a 173329.90 173329.90 0 1 1 -346659.79 0"/>
<path id="N" d="M 13750401.00 15948269.00 L 14294549.03 15404120.00 L 18045867.19 15404120.00 L 18054505.00 15447545.00 A 254898.03 254898.03 0 0 0 18525495.00 15447545.00 L 18534132.81 15404120.00 L 22340000.00 15404121.00 L 22378269.00 15388269.00 L 22472517.46 15294020.00 L 22843080.00 15294020.00 L 22843080.00 15054020.00 L 22423080.00 15054020.00 L 22423080.00 15190382.69 L 22317582.09 15295880.00 L 18534132.81 15295880.00 L 18525495.00 15252455.00 A 254898.03 254898.03 0 0 0 18054505.00 15252455.00 L 18045867.19 15295880.00 L 14272132.00 15295879.00 L 14233862.29 15311732.71 L 13689714.03 15855880.00 L 13190286.00 15855880.00 L 13134120.00 15799714.00 L 13134121.00 15378351.00 L 13118267.29 15340081.29 L 13005898.00 15227711.00 L 12967626.59 15211860.00 L 12776920.00 15211860.00 L 12776920.00 15145980.00 L 12356920.00 15145980.00 L 12356920.00 15211860.00 L 11486265.02 15211860.00 L 10720385.87 14445980.00 L 10776920.00 14445980.00 L 10776920.00 14205980.00 L 10523457.10 14205980.00 L 9749209.00 13431731.00 L 9710937.59 13415880.00 L 9390286.00 13415880.00 L 9334120.00 13359714.00 L 9334121.00 13039060.00 L 9318267.29 13000790.29 L 9105189.00 12787711.00 L 9066917.59 12771860.00 L 8976920.00 12771860.00 L 8976920.00 12705980.00 L 8556920.00 12705980.00 L 8556920.00 12945980.00 L 8976920.00 12945980.00 L 8976920.00 12880100.00 L 9044502.07 12880100.00 L 9225880.00 13061477.07 L 9225879.00 13382132.00 L 9241731.00 13420401.00 L 9329599.00 13508269.00 L 9367868.00 13524120.00 L 9688522.02 13524120.00 L 10370382.82 14205980.00 L 10356920.00 14205980.00 L 10356920.00 14445980.00 L 10567310.04 14445980.00 L 11425579.00 15304249.00 L 11463850.41 15320100.00 L 12356920.00 15320100.00 L 12356920.00 15385980.00 L 12776920.00 15385980.00 L 12776920.00 15320100.00 L 12945211.14 15320100.00 L 13025880.00 15400768.14 L 13025879.00 15822132.00 L 13041731.00 15860401.00 L 13129599.00 15948269.00 L 13167868.00 15964120.00 L 13712132.00 15964121.00 L 13750401.00 15948269.00  z"/>
<path id="N" d="M 17185495.00 10727545.00 L 17194132.81 10684120.00 L 18620000.00 10684121.00 L 18658269.00 10668269.00 L 21362036.24 7964501.76 L 21400504.00 7990205.00 A 259995.39 259995.39 0 1 0 21259795.00 7849496.00 L 21285498.24 7887963.76 L 18597582.00 10575880.00 L 17194132.81 10575880.00 L 17185495.00 10532455.00 A 254898.03 254898.03 0 1 0 17185495.00 10727545.00  zM 21499999.59 7750000.10 m -173329.90 0 a 173329.90 173329.90 0 1 1 346659.79 0a 173329.90 173329.90 0 1 1 -346659.79 0"/>
<path id="N" d="M 27055495.00 15242455.00 L 27030896.73 15205641.06 L 27671349.00 14565189.00 L 27687200.00 14526917.59 L 27687200.00 14044020.00 L 27843080.00 14044020.00 L 27843080.00 13804020.00 L 27423080.00 13804020.00 L 27423080.00 14044020.00 L 27578960.00 14044020.00 L 27578960.00 14504502.98 L 26954358.94 15129103.27 L 26917545.00 15104505.00 L 26820000.00 15085102.00 L 26722455.00 15104505.00 L 26685640.68 15129103.53 L 25692289.00 14135751.00 L 25654017.59 14119900.00 L 25193080.00 14119900.00 L 25193080.00 14054020.00 L 24773080.00 14054020.00 L 24773080.00 14294020.00 L 25193080.00 14294020.00 L 25193080.00 14228140.00 L 25631602.01 14228140.00 L 26609103.53 15205640.68 L 26584505.00 15242455.00 A 254896.24 254896.24 0 1 0 27055495.00 15242455.00  z"/>
<path id="N" d="M 4890000.00 12796537.91 L 6642417.01 11044120.00 L 13242842.00 11044121.00 L 13281111.00 11028269.00 L 13558269.00 10751111.00 L 13574120.00 10712839.59 L 13574119.00 7602418.94 L 13792417.06 7384120.00 L 18057582.04 7384120.00 L 18285498.48 7612035.89 L 18259795.00 7650504.00 A 259995.39 259995.39 0 1 0 18400504.00 7509795.00 L 18362035.89 7535498.48 L 18118269.00 7291731.00 L 18079997.59 7275880.00 L 13770000.00 7275879.00 L 13731730.29 7291732.71 L 13481730.00 7541732.00 L 13465879.00 7580003.41 L 13465880.00 10690424.94 L 13220424.06 10935880.00 L 6620000.00 10935880.00 L 6581730.29 10951732.71 L 4890000.00 12643462.13 L 4890000.00 12585000.00 L 4470000.00 12585000.00 L 4470000.00 13275000.00 L 4890000.00 13275000.00 L 4890000.00 12796537.91  zM 18499999.59 7750000.10 m -173329.90 0 a 173329.90 173329.90 0 1 1 346659.79 0a 173329.90 173329.90 0 1 1 -346659.79 0"/>
<path id="N" d="M 14732455.00 17734505.00 L 14695640.81 17759103.44 L 14414120.00 17477582.03 L 14414120.00 16462860.00 L 17777140.00 16462860.00 L 17777140.00 16571403.50 L 17725255.00 16592895.00 A 272353.30 272353.30 0 1 0 17931904.00 16565689.00 L 17915540.00 16563534.73 L 17915540.00 16462860.00 L 20923364.77 16462860.00 L 20926411.41 16464120.00 L 21697060.00 16464120.00 L 21697060.00 16563534.73 L 21680696.00 16565689.00 A 272319.73 272319.73 0 1 0 21821664.00 16565689.00 L 21814120.00 16564695.86 L 21814120.00 16410000.00 L 21798269.00 16371731.00 L 21760000.00 16355880.00 L 20928193.23 16355880.00 L 20925146.59 16354620.00 L 17864100.00 16354620.00 L 17847680.00 16361421.16 L 17831260.00 16354620.00 L 10884100.00 16354620.00 L 10845831.00 16370471.00 L 10839188.34 16386508.34 L 10823151.00 16393151.00 L 10807300.00 16431420.00 L 10807300.00 16563534.73 L 10790936.00 16565689.00 A 272319.73 272319.73 0 0 0 10598369.00 16758256.00 L 10596214.73 16774620.00 L 10126625.27 16774620.00 L 10124471.00 16758256.00 A 272319.73 272319.73 0 1 0 10124471.00 16899224.00 L 10126625.27 16882860.00 L 10596214.73 16882860.00 L 10598369.00 16899224.00 A 272319.73 272319.73 0 1 0 10931904.00 16565689.00 L 10915540.00 16563534.73 L 10915540.00 16462860.00 L 14305880.00 16462860.00 L 14305879.00 17500000.00 L 14321731.00 17538269.00 L 14619103.44 17835640.81 L 14594505.00 17872455.00 A 254896.24 254896.24 0 1 0 14732455.00 17734505.00  zM 10861419.41 16828743.73 m -183522.27 0 a 183522.27 183522.27 0 1 1 367044.53 0a 183522.27 183522.27 0 1 1 -367044.53 0M 9861419.41 16828743.73 m -183522.27 0 a 183522.27 183522.27 0 1 1 367044.53 0a 183522.27 183522.27 0 1 1 -367044.53 0M 17861419.41 16828743.73 m -183522.27 0 a 183522.27 183522.27 0 1 1 367044.53 0a 183522.27 183522.27 0 1 1 -367044.53 0M 21751179.41 16828743.73 m -183522.27 0 a 183522.27 183522.27 0 1 1 367044.53 0a 183522.27 183522.27 0 1 1 -367044.53 0"/>
<path id="N" d="M 28757237.00 19089301.00 L 29663424.57 18183112.47 L 29690000.00 18194120.00 L 30930000.00 18194120.00 L 30968269.00 18178269.00 L 30984120.00 18140000.00 L 30984120.00 17334132.81 L 31027545.00 17325495.00 A 254898.03 254898.03 0 1 0 30832455.00 17325495.00 L 30875880.00 17334132.81 L 30875880.00 18085880.00 L 29714120.00 18085880.00 L 29714120.00 17096191.17 L 29751180.00 17101070.00 A 272323.74 272323.74 0 1 0 29558614.00 17021306.00 L 29605880.00 17057575.31 L 29605880.00 18087582.98 L 28696550.02 18996912.00 L 23024147.10 18996912.00 L 22878967.00 18851731.00 L 22840695.59 18835880.00 L 14462418.00 18835880.00 L 14290896.81 18664358.81 L 14315495.00 18627545.00 A 254896.24 254896.24 0 1 0 14177545.00 18765495.00 L 14214358.81 18740896.81 L 14401731.00 18928269.00 L 14440002.41 18944120.00 L 22818280.10 18944120.00 L 22963461.00 19089301.00 L 23001732.41 19105152.00 L 28718968.00 19105153.00 L 28757237.00 19089301.00  zM 29751179.41 16828743.73 m -183522.27 0 a 183522.27 183522.27 0 1 1 367044.53 0a 183522.27 183522.27 0 1 1 -367044.53 0"/>
<path id="N" d="M 16740205.00 6650504.00 L 16714501.68 6612036.12 L 17382417.02 5944120.00 L 17845867.19 5944120.00 L 17854505.00 5987545.00 A 254898.03 254898.03 0 1 0 17854505.00 5792455.00 L 17845867.19 5835880.00 L 17360000.00 5835879.00 L 17321730.29 5851732.71 L 16637963.88 6535498.32 L 16599496.00 6509795.00 A 259995.39 259995.39 0 1 0 16740205.00 6650504.00  zM 16499999.59 6750000.10 m -173329.90 0 a 173329.90 173329.90 0 1 1 346659.79 0a 173329.90 173329.90 0 1 1 -346659.79 0"/>
<path id="N" d="M 22751183.75 16828750.00 m -272319.73 0 a 272319.73 272319.73 0 1 1 544639.46 0a 272319.73 272319.73 0 1 1 -544639.46 0M 22751179.41 16828743.73 m -183522.27 0 a 183522.27 183522.27 0 1 1 367044.53 0a 183522.27 183522.27 0 1 1 -367044.53 0"/>
<path id="N" d="M 10776920.00 14960000.00 L 10356920.00 14960000.00 L 10356920.00 15025880.00 L 8552418.00 15025880.00 L 7988269.00 14461731.00 L 7949997.59 14445880.00 L 6030860.00 14445880.00 L 6030860.00 14155000.00 L 5610860.00 14155000.00 L 5610860.00 14845000.00 L 6030860.00 14845000.00 L 6030860.00 14554120.00 L 7927582.00 14554120.00 L 8491731.00 15118269.00 L 8530002.41 15134120.00 L 10356920.00 15134120.00 L 10356920.00 15200000.00 L 10776920.00 15200000.00 L 10776920.00 14960000.00  z"/>
<path id="N" d="M 27821664.00 11565689.00 L 27804120.00 11563379.39 L 27804120.00 11060000.00 L 27788269.00 11021731.00 L 27778269.00 11011731.00 L 27739997.59 10995880.00 L 15915540.00 10995880.00 L 15915540.00 10460997.98 L 16538269.00 9838269.00 L 16554120.00 9800000.00 L 16554120.00 7999230.85 L 16599496.00 7990205.00 A 259994.27 259994.27 0 1 0 16400504.00 7990205.00 L 16445880.00 7999230.85 L 16445880.00 9777582.98 L 15823151.00 10400311.00 L 15807300.00 10438582.41 L 15807300.00 10995880.00 L 13465684.00 10995879.00 L 13427415.00 11011731.00 L 13303266.00 11135880.00 L 8850000.00 11135880.00 L 8811731.00 11151731.00 L 8795880.00 11190000.00 L 8795880.00 11565038.14 L 8790936.00 11565689.00 A 272319.73 272319.73 0 1 0 8931904.00 11565689.00 L 8904120.00 11562031.32 L 8904120.00 11244120.00 L 11807300.00 11244120.00 L 11807300.00 11563534.73 L 11790936.00 11565689.00 A 272319.73 272319.73 0 1 0 11931904.00 11565689.00 L 11915540.00 11563534.73 L 11915540.00 11244120.00 L 13325684.00 11244121.00 L 13363953.00 11228269.00 L 13488102.00 11104120.00 L 15807300.00 11104120.00 L 15807300.00 11563534.73 L 15790936.00 11565689.00 A 272319.73 272319.73 0 1 0 15931904.00 11565689.00 L 15915540.00 11563534.73 L 15915540.00 11104120.00 L 20745880.00 11104120.00 L 20745880.00 11557107.73 L 20680696.00 11565689.00 A 272319.73 272319.73 0 1 0 20887345.00 11592895.00 L 20854120.00 11579132.73 L 20854120.00 11104120.00 L 23697060.00 11104120.00 L 23697060.00 11563534.73 L 23680696.00 11565689.00 A 272319.73 272319.73 0 1 0 23821664.00 11565689.00 L 23805300.00 11563534.73 L 23805300.00 11104120.00 L 27695880.00 11104120.00 L 27695880.00 11563690.07 L 27680696.00 11565689.00 A 272319.73 272319.73 0 1 0 27821664.00 11565689.00  zM 8861419.41 11828743.73 m -183522.27 0 a 183522.27 183522.27 0 1 1 367044.53 0a 183522.27 183522.27 0 1 1 -367044.53 0M 11861419.41 11828743.73 m -183522.27 0 a 183522.27 183522.27 0 1 1 367044.53 0a 183522.27 183522.27 0 1 1 -367044.53 0M 16499999.59 7750000.10 m -173329.90 0 a 173329.90 173329.90 0 1 1 346659.79 0a 173329.90 173329.90 0 1 1 -346659.79 0M 15861419.41 11828743.73 m -183522.27 0 a 183522.27 183522.27 0 1 1 367044.53 0a 183522.27 183522.27 0 1 1 -367044.53 0M 20751179.41 11828743.73 m -183522.27 0 a 183522.27 183522.27 0 1 1 367044.53 0a 183522.27 183522.27 0 1 1 -367044.53 0M 23751179.41 11828743.73 m -183522.27 0 a 183522.27 183522.27 0 1 1 367044.53 0a 183522.27 183522.27 0 1 1 -367044.53 0M 27751179.41 11828743.73 m -183522.27 0 a 183522.27 183522.27 0 1 1 367044.53 0a 183522.27 183522.27 0 1 1 -367044.53 0"/>
<path id="N" d="M 9850000.00 13080000.00 L 9694120.00 13080000.00 L 9694120.00 12072578.00 L 9712160.78 12054537.22 L 9725255.00 12064585.00 A 272323.74 272323.74 0 1 0 9625575.00 11964905.00 L 9635622.78 11977999.22 L 9601731.00 12011891.00 L 9585880.00 12050162.41 L 9585880.00 13080000.00 L 9430000.00 13080000.00 L 9430000.00 13320000.00 L 9850000.00 13320000.00 L 9850000.00 13080000.00  zM 9861419.41 11828743.73 m -183522.27 0 a 183522.27 183522.27 0 1 1 367044.53 0a 183522.27 183522.27 0 1 1 -367044.53 0"/>
<path id="N" d="M 26970000.00 13430000.00 L 26814120.00 13430000.00 L 26814120.00 12092784.14 L 26821664.00 12091791.00 A 272319.73 272319.73 0 1 0 26680696.00 12091791.00 L 26705880.00 12095106.40 L 26705880.00 13430000.00 L 26550000.00 13430000.00 L 26550000.00 13670000.00 L 26970000.00 13670000.00 L 26970000.00 13430000.00  zM 26751179.41 11828743.73 m -183522.27 0 a 183522.27 183522.27 0 1 1 367044.53 0a 183522.27 183522.27 0 1 1 -367044.53 0"/>
</g>
</svg>
