<svg width="15.99999848mm" height="12.9999994mm" viewBox="0 0 6299212 5118110"  version="1.1" xmlns="http://www.w3.org/2000/svg" xmlns:xlink="http://www.w3.org/1999/xlink">
<desc>
Origin 0 0 Bound 3937007 3937007 6299212 5118110
</desc>
<g fill-rule="evenodd" fill="rgb(27, 144, 179)" stroke="black" stroke-width="1" transform="translate(0, 5118110) scale(1, -1) translate(-3937007, -3937007)">
<path id="N" d="M 4771506.00 6036147.00 L 4775722.63 6004120.00 L 5085702.00 6004121.00 L 5123971.00 5988269.00 L 5951564.00 5160676.00 L 6834138.00 5160676.00 L 7032203.00 5358741.00 L 7045880.00 5364406.36 L 7045880.00 5640975.62 L 6996072.00 5647533.00 A 287456.27 287456.27 0 1 0 7214201.00 5676250.00 L 7154120.00 5651363.65 L 7154120.00 4740000.00 L 7280000.00 4740000.00 L 7280000.00 4160000.00 L 6880000.00 4160000.00 L 6880000.00 4740000.00 L 7045880.00 4740000.00 L 7045880.00 5219342.00 L 6894825.00 5068287.00 L 6856553.59 5052436.00 L 5929146.00 5052435.00 L 5890877.00 5068287.00 L 5063284.00 5895880.00 L 4775722.63 5895880.00 L 4771506.00 5863853.00 A 332833.73 332833.73 0 1 0 4771506.00 6036147.00  zM 4450001.18 5949997.74 m -224312.26 0 a 224312.26 224312.26 0 1 1 448624.51 0a 224312.26 224312.26 0 1 1 -448624.51 0M 7070471.41 5925200.73 m -183522.27 0 a 183522.27 183522.27 0 1 1 367044.53 0a 183522.27 183522.27 0 1 1 -367044.53 0"/>
<path id="N" d="M 7070472.89 6925199.55 m -287456.27 0 a 287456.27 287456.27 0 1 1 574912.53 0a 287456.27 287456.27 0 1 1 -574912.53 0M 7070471.41 6925200.73 m -183522.27 0 a 183522.27 183522.27 0 1 1 367044.53 0a 183522.27 183522.27 0 1 1 -367044.53 0"/>
<path id="N" d="M 6070472.89 6925199.55 m -287456.27 0 a 287456.27 287456.27 0 1 1 574912.53 0a 287456.27 287456.27 0 1 1 -574912.53 0M 6070471.41 6925200.73 m -183522.27 0 a 183522.27 183522.27 0 1 1 367044.53 0a 183522.27 183522.27 0 1 1 -367044.53 0"/>
<path id="N" d="M 6070472.89 5925199.55 m -287456.27 0 a 287456.27 287456.27 0 1 1 574912.53 0a 287456.27 287456.27 0 1 1 -574912.53 0M 6070471.41 5925200.73 m -183522.27 0 a 183522.27 183522.27 0 1 1 367044.53 0a 183522.27 183522.27 0 1 1 -367044.53 0"/>
<path id="N" d="M 8070472.89 6925199.55 m -287456.27 0 a 287456.27 287456.27 0 1 1 574912.53 0a 287456.27 287456.27 0 1 1 -574912.53 0M 8070471.41 6925200.73 m -183522.27 0 a 183522.27 183522.27 0 1 1 367044.53 0a 183522.27 183522.27 0 1 1 -367044.53 0"/>
<path id="N" d="M 8688269.00 7688269.00 L 9038269.00 7338269.00 L 9054120.00 7299997.59 L 9054120.00 6200000.00 L 9038269.00 6161731.00 L 8738269.00 5861731.00 L 8699997.59 5845880.00 L 8350000.00 5845880.00 L 8346670.56 5847259.05 L 8319419.00 5781467.00 L 8273736.00 5721933.00 A 287456.27 287456.27 0 1 0 8348136.00 5999597.00 L 8351349.55 5975187.82 L 8372417.16 5954120.00 L 8677582.00 5954120.00 L 8945880.00 6222418.00 L 8945880.00 7277582.95 L 8627582.05 7595880.00 L 5822417.02 7595880.00 L 5138269.00 6911731.00 L 5099997.59 6895880.00 L 4775722.63 6895880.00 L 4771506.00 6863853.00 A 332833.73 332833.73 0 1 0 4771506.00 7036147.00 L 4775722.63 7004120.00 L 5077582.02 7004120.00 L 5761731.00 7688269.00 L 5800000.00 7704120.00 L 8650000.00 7704121.00 L 8688269.00 7688269.00  zM 4450001.18 6949997.74 m -224312.26 0 a 224312.26 224312.26 0 1 1 448624.51 0a 224312.26 224312.26 0 1 1 -448624.51 0M 8070471.41 5925200.73 m -183522.27 0 a 183522.27 183522.27 0 1 1 367044.53 0a 183522.27 183522.27 0 1 1 -367044.53 0"/>
<path id="N" d="M 5203869.00 4852880.00 L 5214816.66 4769721.64 L 5485258.00 4778501.00 L 5524021.00 4763900.00 L 5733840.07 4554120.00 L 6125980.00 4554120.00 L 6125980.00 4740000.00 L 6525980.00 4740000.00 L 6525980.00 4509946.90 L 6530100.00 4500000.00 L 6525980.00 4490053.10 L 6525980.00 4160000.00 L 6125980.00 4160000.00 L 6125980.00 4445880.00 L 5711423.00 4445880.00 L 5673153.29 4461732.71 L 5465329.04 4669556.03 L 5212480.09 4661347.78 L 5203869.00 4595938.00 A 496370.60 496370.60 0 1 0 5203869.00 4852880.00  zM 4724409.71 4724406.07 m -397100.93 0 a 397100.93 397100.93 0 1 1 794201.86 0a 397100.93 397100.93 0 1 1 -794201.86 0"/>
</g>
</svg>
