<svg width="15.99999848mm" height="12.9999994mm" viewBox="0 0 6299212 5118110"  version="1.1" xmlns="http://www.w3.org/2000/svg" xmlns:xlink="http://www.w3.org/1999/xlink">
<desc>
Origin 0 0 Bound 3937007 3937007 6299212 5118110
</desc>
<g fill-rule="evenodd" fill="rgb(40, 190, 190)" stroke="black" stroke-width="1" transform="translate(0, 5118110) scale(1, -1) translate(-3937007, -3937007)">
<path id="N" d="M 4724410.26 4724411.70 m -496370.60 0 a 496370.60 496370.60 0 1 1 992741.20 0a 496370.60 496370.60 0 1 1 -992741.20 0M 4724409.71 4724406.07 m -397100.93 0 a 397100.93 397100.93 0 1 1 794201.86 0a 397100.93 397100.93 0 1 1 -794201.86 0"/>
<path id="N" d="M 6070472.89 5925199.55 m -287456.27 0 a 287456.27 287456.27 0 1 1 574912.53 0a 287456.27 287456.27 0 1 1 -574912.53 0M 6070471.41 5925200.73 m -183522.27 0 a 183522.27 183522.27 0 1 1 367044.53 0a 183522.27 183522.27 0 1 1 -367044.53 0"/>
<path id="N" d="M 6070472.89 6925199.55 m -287456.27 0 a 287456.27 287456.27 0 1 1 574912.53 0a 287456.27 287456.27 0 1 1 -574912.53 0M 6070471.41 6925200.73 m -183522.27 0 a 183522.27 183522.27 0 1 1 367044.53 0a 183522.27 183522.27 0 1 1 -367044.53 0"/>
<path id="N" d="M 7070472.89 6925199.55 m -287456.27 0 a 287456.27 287456.27 0 1 1 574912.53 0a 287456.27 287456.27 0 1 1 -574912.53 0M 7070471.41 6925200.73 m -183522.27 0 a 183522.27 183522.27 0 1 1 367044.53 0a 183522.27 183522.27 0 1 1 -367044.53 0"/>
<path id="N" d="M 8070472.89 6925199.55 m -287456.27 0 a 287456.27 287456.27 0 1 1 574912.53 0a 287456.27 287456.27 0 1 1 -574912.53 0M 8070471.41 6925200.73 m -183522.27 0 a 183522.27 183522.27 0 1 1 367044.53 0a 183522.27 183522.27 0 1 1 -367044.53 0"/>
<path id="N" d="M 4450007.97 6950012.05 m -332833.73 0 a 332833.73 332833.73 0 1 1 665667.47 0a 332833.73 332833.73 0 1 1 -665667.47 0M 4450001.18 6949997.74 m -224312.26 0 a 224312.26 224312.26 0 1 1 448624.51 0a 224312.26 224312.26 0 1 1 -448624.51 0"/>
<path id="N" d="M 8070472.89 5925199.55 m -287456.27 0 a 287456.27 287456.27 0 1 1 574912.53 0a 287456.27 287456.27 0 1 1 -574912.53 0M 8070471.41 5925200.73 m -183522.27 0 a 183522.27 183522.27 0 1 1 367044.53 0a 183522.27 183522.27 0 1 1 -367044.53 0"/>
<path id="N" d="M 4450007.97 5950012.05 m -332833.73 0 a 332833.73 332833.73 0 1 1 665667.47 0a 332833.73 332833.73 0 1 1 -665667.47 0M 4450001.18 5949997.74 m -224312.26 0 a 224312.26 224312.26 0 1 1 448624.51 0a 224312.26 224312.26 0 1 1 -448624.51 0"/>
<path id="N" d="M 7070472.89 5925199.55 m -287456.27 0 a 287456.27 287456.27 0 1 1 574912.53 0a 287456.27 287456.27 0 1 1 -574912.53 0M 7070471.41 5925200.73 m -183522.27 0 a 183522.27 183522.27 0 1 1 367044.53 0a 183522.27 183522.27 0 1 1 -367044.53 0"/>
</g>
</svg>
