<svg width="72.99999878mm" height="38.99999566mm" viewBox="0 0 28740157 15354329"  version="1.1" xmlns="http://www.w3.org/2000/svg" xmlns:xlink="http://www.w3.org/1999/xlink">
<desc>
Origin 3750000 19500000 Bound 3937007 3937007 28740157 15354329
</desc>
<g fill-rule="evenodd" fill="rgb(40, 190, 190)" stroke="black" stroke-width="1" transform="translate(0, 15354329) scale(1, -1) translate(-3937007, -3937007)">
<path id="N" d="M 16918269.00 17608269.00 L 16942417.40 17584120.00 L 29412440.00 17584121.00 L 29450709.00 17568269.00 L 29454857.79 17564120.00 L 32480000.00 17564120.00 L 32518269.00 17548269.00 L 32534120.00 17510000.00 L 32534121.00 12724316.00 L 32518267.29 12686046.29 L 29573953.00 9741731.00 L 29535681.59 9725880.00 L 25072417.06 9725880.00 L 24854120.00 9507582.06 L 24854120.00 5360000.00 L 24838269.00 5321731.00 L 24800000.00 5305880.00 L 15510000.00 5305880.00 L 15505000.00 5307951.00 L 15500000.00 5305880.00 L 15461731.00 5321731.00 L 15445880.00 5360000.00 L 15445880.00 6495000.00 L 15245000.00 6495000.00 L 15245000.00 7005000.00 L 15755000.00 7005000.00 L 15755000.00 6495000.00 L 15554120.00 6495000.00 L 15554120.00 5414120.00 L 24745880.00 5414120.00 L 24745879.00 9530000.00 L 24761731.00 9568269.00 L 25011731.00 9818269.00 L 25050000.00 9834120.00 L 29513266.01 9834120.00 L 32425880.00 12746733.01 L 32425880.00 17455880.00 L 29432440.00 17455880.00 L 29394170.29 17471732.71 L 29390022.79 17475880.00 L 28805300.00 17475880.00 L 28805300.00 17093945.27 L 28821664.00 17091791.00 A 272319.73 272319.73 0 1 0 28680696.00 17091791.00 L 28697060.00 17093945.27 L 28697060.00 17475880.00 L 24805300.00 17475880.00 L 24805300.00 17093945.27 L 24821664.00 17091791.00 A 272319.73 272319.73 0 1 0 24680696.00 17091791.00 L 24697060.00 17093945.27 L 24697060.00 17475880.00 L 19813597.40 17475880.00 L 19805300.00 17467582.40 L 19805300.00 17093945.27 L 19821664.00 17091791.00 A 272319.73 272319.73 0 1 0 19515335.00 16964905.00 L 19537461.30 16993739.89 L 19551731.00 17028189.00 L 19586180.11 17042458.70 L 19615015.00 17064585.00 L 19680696.00 17091791.00 L 19697060.00 17093945.27 L 19697060.00 17475880.00 L 16934120.00 17475880.00 L 16934120.00 17090873.10 A 267726.53 267726.53 0 0 0 17124471.00 16899224.00 A 272340.45 272340.45 0 1 0 16790936.00 17091791.00 L 16807300.00 17093945.27 L 16807300.00 17494460.00 L 12944120.00 17494460.00 L 12944120.00 17086730.96 L 12997585.00 17064585.00 A 272353.30 272353.30 0 1 0 12790936.00 17091791.00 L 12807300.00 17093945.27 L 12807300.00 17487300.00 L 7934120.00 17487300.00 L 7934120.00 17090873.10 A 267726.53 267726.53 0 0 0 8124471.00 16899224.00 A 272340.45 272340.45 0 1 0 7790936.00 17091791.00 L 7825880.00 17096391.27 L 7825879.00 17510000.00 A 110027.43 110027.43 0 0 0 7911422.41 17595540.00 L 12846458.32 17595540.00 L 12851731.00 17608269.00 L 12890000.00 17624121.00 L 12928269.00 17608269.00 L 12933837.74 17602700.00 L 16839424.18 17602700.00 L 16841731.00 17608269.00 L 16880000.00 17624121.00 L 16918269.00 17608269.00  zM 15499999.59 6750000.10 m -173329.90 0 a 173329.90 173329.90 0 1 1 346659.79 0a 173329.90 173329.90 0 1 1 -346659.79 0M 12861419.41 16828743.73 m -183522.27 0 a 183522.27 183522.27 0 1 1 367044.53 0a 183522.27 183522.27 0 1 1 -367044.53 0M 7861419.41 16828743.73 m -183522.27 0 a 183522.27 183522.27 0 1 1 367044.53 0a 183522.27 183522.27 0 1 1 -367044.53 0M 16861419.41 16828743.73 m -183522.27 0 a 183522.27 183522.27 0 1 1 367044.53 0a 183522.27 183522.27 0 1 1 -367044.53 0M 19751179.41 16828743.73 m -183522.27 0 a 183522.27 183522.27 0 1 1 367044.53 0a 183522.27 183522.27 0 1 1 -367044.53 0M 24751179.41 16828743.73 m -183522.27 0 a 183522.27 183522.27 0 1 1 367044.53 0a 183522.27 183522.27 0 1 1 -367044.53 0M 28751179.41 16828743.73 m -183522.27 0 a 183522.27 183522.27 0 1 1 367044.53 0a 183522.27 183522.27 0 1 1 -367044.53 0"/>
<path id="N" d="M 17116245.00 12200715.00 L 17107607.19 12244140.00 L 16905860.00 12244140.00 L 16905860.00 12095219.61 L 16931904.00 12091791.00 A 272319.73 272319.73 0 1 0 16790936.00 12091791.00 L 16797620.00 12092670.93 L 16797620.00 12244140.00 L 12915540.00 12244140.00 L 12915540.00 12093945.27 L 12931904.00 12091791.00 A 272319.73 272319.73 0 1 0 12790936.00 12091791.00 L 12805720.00 12093737.27 L 12805720.00 12245720.00 L 8312417.04 12245720.00 L 8068755.73 12002058.15 L 8097265.00 11964905.00 A 272323.74 272323.74 0 1 0 7589090.00 11828740.00 L 7585262.00 11850000.00 A 254898.66 254898.66 0 0 0 7840160.00 12104898.00 L 7860207.22 12100910.34 L 7931904.00 12091791.00 L 7983882.98 12070260.57 L 8251731.00 12338109.00 L 8290002.41 12353960.00 L 12859840.00 12353960.00 L 12863654.59 12352380.00 L 17107607.19 12352380.00 L 17116245.00 12395805.00 A 254898.03 254898.03 0 1 0 17116245.00 12200715.00  zM 7861419.41 11828743.73 m -183522.27 0 a 183522.27 183522.27 0 1 1 367044.53 0a 183522.27 183522.27 0 1 1 -367044.53 0M 12861419.41 11828743.73 m -183522.27 0 a 183522.27 183522.27 0 1 1 367044.53 0a 183522.27 183522.27 0 1 1 -367044.53 0M 16861419.41 11828743.73 m -183522.27 0 a 183522.27 183522.27 0 1 1 367044.53 0a 183522.27 183522.27 0 1 1 -367044.53 0"/>
<path id="N" d="M 19615015.00 11592895.00 L 19601920.26 11602943.18 L 17554120.00 9555142.01 L 17554120.00 7999230.85 L 17599496.00 7990205.00 A 259994.27 259994.27 0 1 0 17400504.00 7990205.00 L 17445880.00 7999230.85 L 17445879.00 9577560.00 L 17461731.00 9615829.00 L 19525383.18 11679480.26 L 19515335.00 11692575.00 A 272323.74 272323.74 0 1 0 19615015.00 11592895.00  zM 17499999.59 7750000.10 m -173329.90 0 a 173329.90 173329.90 0 1 1 346659.79 0a 173329.90 173329.90 0 1 1 -346659.79 0M 19751179.41 11828743.73 m -183522.27 0 a 183522.27 183522.27 0 1 1 367044.53 0a 183522.27 183522.27 0 1 1 -367044.53 0"/>
<path id="N" d="M 24751183.75 11828750.00 m -272319.73 0 a 272319.73 272319.73 0 1 1 544639.46 0a 272319.73 272319.73 0 1 1 -544639.46 0M 24751179.41 11828743.73 m -183522.27 0 a 183522.27 183522.27 0 1 1 367044.53 0a 183522.27 183522.27 0 1 1 -367044.53 0"/>
<path id="N" d="M 28751183.75 11828750.00 m -272319.73 0 a 272319.73 272319.73 0 1 1 544639.46 0a 272319.73 272319.73 0 1 1 -544639.46 0M 28751179.41 11828743.73 m -183522.27 0 a 183522.27 183522.27 0 1 1 367044.53 0a 183522.27 183522.27 0 1 1 -367044.53 0"/>
<path id="N" d="M 25368189.00 12288269.00 L 25601920.47 12054536.98 L 25615015.00 12064585.00 A 272323.74 272323.74 0 0 0 25887345.00 12064585.00 L 25900439.47 12054537.03 L 26132911.00 12287009.00 L 26171182.41 12302860.00 L 29331180.00 12302861.00 L 29369449.00 12287009.00 L 29601920.47 12054536.98 L 29615015.00 12064585.00 A 272323.74 272323.74 0 1 0 29515335.00 11964905.00 L 29525383.02 11977999.53 L 29308762.04 12194620.00 L 26193597.04 12194620.00 L 25976977.03 11977999.47 L 25987025.00 11964905.00 A 272323.74 272323.74 0 1 0 25515335.00 11964905.00 L 25525383.02 11977999.53 L 25307502.04 12195880.00 L 25298737.59 12194620.00 L 19599628.04 12194620.00 L 19195480.00 11790471.00 L 19157208.59 11774620.00 L 19021180.00 11774620.00 L 19021180.00 11558740.00 L 18805300.00 11558740.00 L 18805301.00 11188742.00 L 18789449.00 11150473.00 L 15617290.88 7978314.88 L 15683845.00 7933845.00 A 259997.17 259997.17 0 1 0 15400504.00 7990205.00 L 15494876.96 8008976.96 L 18697060.00 11211160.00 L 18697060.00 11558740.00 L 18481180.00 11558740.00 L 18481180.00 11774620.00 L 18126625.27 11774620.00 L 18124471.00 11758256.00 A 272319.73 272319.73 0 0 0 17598369.00 11758256.00 L 17596214.73 11774620.00 L 17477806.04 11774620.00 L 17073658.00 11370471.00 L 17035386.59 11354620.00 L 14687451.00 11354620.00 L 14649181.29 11370472.71 L 14633773.51 11385880.00 L 14250160.00 11385880.00 L 14211890.29 11401732.71 L 14010679.49 11602942.99 L 13997585.00 11592895.00 A 272323.74 272323.74 0 0 0 13725255.00 11592895.00 L 13712160.45 11602943.03 L 13450949.00 11341731.00 L 13412677.59 11325880.00 L 7530000.00 11325880.00 L 7491730.29 11341732.71 L 7131420.00 11702042.20 L 7131420.00 11558740.00 L 6591420.00 11558740.00 L 6591420.00 12098740.00 L 7131420.00 12098740.00 L 7131420.00 11855117.97 L 7552417.04 11434120.00 L 13390262.04 11434120.00 L 13635623.03 11679480.45 L 13625575.00 11692575.00 A 272323.74 272323.74 0 1 0 14097265.00 11692575.00 L 14087217.01 11679480.51 L 14272577.04 11494120.00 L 14656191.00 11494121.00 L 14694460.00 11478269.00 L 14709868.51 11462860.00 L 17012971.04 11462860.00 L 17417120.00 11867009.00 L 17455391.41 11882860.00 L 17596214.73 11882860.00 L 17598369.00 11899224.00 A 272319.73 272319.73 0 0 0 18124471.00 11899224.00 L 18126625.27 11882860.00 L 18481180.00 11882860.00 L 18481180.00 12098740.00 L 19021180.00 12098740.00 L 19021180.00 11882860.00 L 19134793.04 11882860.00 L 19538942.00 12287009.00 L 19577213.41 12302860.00 L 25296955.77 12302860.00 L 25300002.41 12304120.00 L 25329920.00 12304121.00 L 25368189.00 12288269.00  zM 6861419.41 11828743.73 m -183522.27 0 a 183522.27 183522.27 0 1 1 367044.53 0a 183522.27 183522.27 0 1 1 -367044.53 0M 13861419.41 11828743.73 m -183522.27 0 a 183522.27 183522.27 0 1 1 367044.53 0a 183522.27 183522.27 0 1 1 -367044.53 0M 15499999.59 7750000.10 m -173329.90 0 a 173329.90 173329.90 0 1 1 346659.79 0a 173329.90 173329.90 0 1 1 -346659.79 0M 17861419.41 11828743.73 m -183522.27 0 a 183522.27 183522.27 0 1 1 367044.53 0a 183522.27 183522.27 0 1 1 -367044.53 0M 18751179.41 11828743.73 m -183522.27 0 a 183522.27 183522.27 0 1 1 367044.53 0a 183522.27 183522.27 0 1 1 -367044.53 0M 25751179.41 11828743.73 m -183522.27 0 a 183522.27 183522.27 0 1 1 367044.53 0a 183522.27 183522.27 0 1 1 -367044.53 0M 29751179.41 11828743.73 m -183522.27 0 a 183522.27 183522.27 0 1 1 367044.53 0a 183522.27 183522.27 0 1 1 -367044.53 0"/>
<path id="N" d="M 11861423.75 16828750.00 m -272319.73 0 a 272319.73 272319.73 0 1 1 544639.46 0a 272319.73 272319.73 0 1 1 -544639.46 0M 11861419.41 16828743.73 m -183522.27 0 a 183522.27 183522.27 0 1 1 367044.53 0a 183522.27 183522.27 0 1 1 -367044.53 0"/>
<path id="N" d="M 23751183.75 16828750.00 m -272319.73 0 a 272319.73 272319.73 0 1 1 544639.46 0a 272319.73 272319.73 0 1 1 -544639.46 0M 23751179.41 16828743.73 m -183522.27 0 a 183522.27 183522.27 0 1 1 367044.53 0a 183522.27 183522.27 0 1 1 -367044.53 0"/>
<path id="N" d="M 20751183.75 16828750.00 m -272319.73 0 a 272319.73 272319.73 0 1 1 544639.46 0a 272319.73 272319.73 0 1 1 -544639.46 0M 20751179.41 16828743.73 m -183522.27 0 a 183522.27 183522.27 0 1 1 367044.53 0a 183522.27 183522.27 0 1 1 -367044.53 0"/>
<path id="N" d="M 8861423.75 16828750.00 m -272319.73 0 a 272319.73 272319.73 0 1 1 544639.46 0a 272319.73 272319.73 0 1 1 -544639.46 0M 8861419.41 16828743.73 m -183522.27 0 a 183522.27 183522.27 0 1 1 367044.53 0a 183522.27 183522.27 0 1 1 -367044.53 0"/>
<path id="N" d="M 21642455.00 10274505.00 L 21605640.64 10299103.55 L 19898269.00 8591731.00 L 19859997.59 8575880.00 L 19504132.81 8575880.00 L 19495495.00 8532455.00 A 254898.03 254898.03 0 1 0 19495495.00 8727545.00 L 19504132.81 8684120.00 L 19837582.01 8684120.00 L 21529103.55 10375640.64 L 21504505.00 10412455.00 A 254896.24 254896.24 0 1 0 21642455.00 10274505.00  z"/>
<path id="N" d="M 17500001.29 6750001.29 m -259994.27 0 a 259994.27 259994.27 0 1 1 519988.55 0a 259994.27 259994.27 0 1 1 -519988.55 0M 17499999.59 6750000.10 m -173329.90 0 a 173329.90 173329.90 0 1 1 346659.79 0a 173329.90 173329.90 0 1 1 -346659.79 0"/>
<path id="N" d="M 17258269.00 18968269.00 L 17318269.00 18908269.00 L 17334120.00 18869997.59 L 17334120.00 18010958.00 L 27249216.49 18010958.00 L 27254505.00 18037545.00 A 254898.03 254898.03 0 1 0 27254505.00 17842455.00 L 27242517.89 17902718.00 L 16072307.17 17902718.00 L 16030240.00 17839760.00 A 254898.66 254898.66 0 1 0 16104898.00 18020000.00 L 16103099.43 18010958.00 L 17225880.00 18010958.00 L 17225880.00 18847582.74 L 17197582.26 18875880.00 L 4612417.03 18875880.00 L 4184120.00 18447582.03 L 4184120.00 11892417.97 L 4798295.00 11278243.00 L 4802296.29 11268582.70 L 5446758.02 10624120.00 L 13030000.00 10624121.00 L 13068269.00 10608269.00 L 13208269.00 10468269.00 L 13224120.00 10429997.59 L 13224120.00 7462417.99 L 14185640.68 6500896.47 L 14222455.00 6525495.00 A 254896.24 254896.24 0 1 0 14084505.00 6387545.00 L 14109103.53 6424359.32 L 13131731.00 7401731.00 L 13115880.00 7440002.41 L 13115880.00 10407582.00 L 13007582.00 10515880.00 L 5424341.00 10515880.00 L 5386071.29 10531732.71 L 4721757.00 11196046.00 L 4717754.58 11205708.41 L 4091731.00 11831731.00 L 4075880.00 11870002.41 L 4075879.00 18470000.00 L 4091731.00 18508269.00 L 4551731.00 18968269.00 L 4590000.00 18984120.00 L 17220000.00 18984121.00 L 17258269.00 18968269.00  z"/>
<path id="N" d="M 15861423.75 16828750.00 m -272319.73 0 a 272319.73 272319.73 0 1 1 544639.46 0a 272319.73 272319.73 0 1 1 -544639.46 0M 15861419.41 16828743.73 m -183522.27 0 a 183522.27 183522.27 0 1 1 367044.53 0a 183522.27 183522.27 0 1 1 -367044.53 0"/>
<path id="N" d="M 27751183.75 16828750.00 m -272319.73 0 a 272319.73 272319.73 0 1 1 544639.46 0a 272319.73 272319.73 0 1 1 -544639.46 0M 27751179.41 16828743.73 m -183522.27 0 a 183522.27 183522.27 0 1 1 367044.53 0a 183522.27 183522.27 0 1 1 -367044.53 0"/>
<path id="N" d="M 19500001.29 6750001.29 m -259994.27 0 a 259994.27 259994.27 0 1 1 519988.55 0a 259994.27 259994.27 0 1 1 -519988.55 0M 19499999.59 6750000.10 m -173329.90 0 a 173329.90 173329.90 0 1 1 346659.79 0a 173329.90 173329.90 0 1 1 -346659.79 0"/>
<path id="N" d="M 5395521.00 11302455.00 L 5370922.70 11265641.02 L 5812443.03 10824120.00 L 13180000.00 10824121.00 L 13218269.00 10808269.00 L 13408269.00 10618269.00 L 13424120.00 10579997.59 L 13424120.00 7752417.96 L 13792417.04 7384120.00 L 20057582.04 7384120.00 L 20285498.48 7612035.89 L 20259795.00 7650504.00 A 259995.39 259995.39 0 1 0 20400504.00 7509795.00 L 20362035.89 7535498.48 L 20118269.00 7291731.00 L 20079997.59 7275880.00 L 13770000.00 7275880.00 L 13731730.29 7291732.71 L 13331731.00 7691731.00 L 13315880.00 7730002.41 L 13315880.00 10557582.92 L 13157582.08 10715880.00 L 5790026.00 10715879.00 L 5751756.29 10731732.71 L 5294384.98 11189103.30 L 5257571.00 11164505.00 A 254896.24 254896.24 0 1 0 5395521.00 11302455.00  zM 20499999.59 7750000.10 m -173329.90 0 a 173329.90 173329.90 0 1 1 346659.79 0a 173329.90 173329.90 0 1 1 -346659.79 0"/>
<path id="N" d="M 21751183.75 11828750.00 m -272319.73 0 a 272319.73 272319.73 0 1 1 544639.46 0a 272319.73 272319.73 0 1 1 -544639.46 0M 21751179.41 11828743.73 m -183522.27 0 a 183522.27 183522.27 0 1 1 367044.53 0a 183522.27 183522.27 0 1 1 -367044.53 0"/>
<path id="N" d="M 22500001.29 6750001.29 m -259994.27 0 a 259994.27 259994.27 0 1 1 519988.55 0a 259994.27 259994.27 0 1 1 -519988.55 0M 22499999.59 6750000.10 m -173329.90 0 a 173329.90 173329.90 0 1 1 346659.79 0a 173329.90 173329.90 0 1 1 -346659.79 0"/>
<path id="N" d="M 19500001.29 7750001.29 m -259994.27 0 a 259994.27 259994.27 0 1 1 519988.55 0a 259994.27 259994.27 0 1 1 -519988.55 0M 19499999.59 7750000.10 m -173329.90 0 a 173329.90 173329.90 0 1 1 346659.79 0a 173329.90 173329.90 0 1 1 -346659.79 0"/>
<path id="N" d="M 10861423.75 11828750.00 m -272319.73 0 a 272319.73 272319.73 0 1 1 544639.46 0a 272319.73 272319.73 0 1 1 -544639.46 0M 10861419.41 11828743.73 m -183522.27 0 a 183522.27 183522.27 0 1 1 367044.53 0a 183522.27 183522.27 0 1 1 -367044.53 0"/>
<path id="N" d="M 20500001.29 6750001.29 m -259994.27 0 a 259994.27 259994.27 0 1 1 519988.55 0a 259994.27 259994.27 0 1 1 -519988.55 0M 20499999.59 6750000.10 m -173329.90 0 a 173329.90 173329.90 0 1 1 346659.79 0a 173329.90 173329.90 0 1 1 -346659.79 0"/>
<path id="N" d="M 21500001.29 6750001.29 m -259994.27 0 a 259994.27 259994.27 0 1 1 519988.55 0a 259994.27 259994.27 0 1 1 -519988.55 0M 21499999.59 6750000.10 m -173329.90 0 a 173329.90 173329.90 0 1 1 346659.79 0a 173329.90 173329.90 0 1 1 -346659.79 0"/>
<path id="N" d="M 22500001.29 7750001.29 m -259994.27 0 a 259994.27 259994.27 0 1 1 519988.55 0a 259994.27 259994.27 0 1 1 -519988.55 0M 22499999.59 7750000.10 m -173329.90 0 a 173329.90 173329.90 0 1 1 346659.79 0a 173329.90 173329.90 0 1 1 -346659.79 0"/>
<path id="N" d="M 18525495.00 15447545.00 L 18536121.94 15394120.00 L 26575867.19 15394120.00 L 26584505.00 15437545.00 A 254898.03 254898.03 0 1 0 26584505.00 15242455.00 L 26575867.19 15285880.00 L 18532143.68 15285880.00 L 18525495.00 15252455.00 L 18470240.00 15169760.00 L 18387545.00 15114505.00 L 18344120.00 15105867.19 L 18344121.00 14489840.00 L 18328269.00 14451571.00 L 16338269.00 12461571.00 L 16299997.59 12445720.00 L 6802806.00 12445720.00 L 6495540.00 12138454.00 L 6495540.00 11519025.95 L 6780445.05 11234120.00 L 16400000.00 11234121.00 L 16438269.00 11218269.00 L 16815640.78 10840896.54 L 16852455.00 10865495.00 A 254896.24 254896.24 0 1 0 16714505.00 10727545.00 L 16739103.46 10764359.22 L 16377582.03 11125880.00 L 6758028.00 11125880.00 L 6719758.29 11141732.71 L 6403151.00 11458339.00 L 6387300.00 11496610.41 L 6387299.00 12160872.00 L 6403151.00 12199141.00 L 6742119.00 12538109.00 L 6780388.00 12553960.00 L 16277582.00 12553960.00 L 18235880.00 14512258.00 L 18235880.00 15105867.19 L 18192455.00 15114505.00 A 254898.03 254898.03 0 1 0 18525495.00 15447545.00  z"/>
<path id="N" d="M 21500001.29 7750001.29 m -259994.27 0 a 259994.27 259994.27 0 1 1 519988.55 0a 259994.27 259994.27 0 1 1 -519988.55 0M 21499999.59 7750000.10 m -173329.90 0 a 173329.90 173329.90 0 1 1 346659.79 0a 173329.90 173329.90 0 1 1 -346659.79 0"/>
<path id="N" d="M 18500001.29 7750001.29 m -259994.27 0 a 259994.27 259994.27 0 1 1 519988.55 0a 259994.27 259994.27 0 1 1 -519988.55 0M 18499999.59 7750000.10 m -173329.90 0 a 173329.90 173329.90 0 1 1 346659.79 0a 173329.90 173329.90 0 1 1 -346659.79 0"/>
<path id="N" d="M 22488129.00 16758256.00 L 22485974.73 16774620.00 L 22016385.27 16774620.00 L 22014231.00 16758256.00 A 272319.73 272319.73 0 1 0 22014231.00 16899224.00 L 22016385.27 16882860.00 L 22485974.73 16882860.00 L 22488129.00 16899224.00 A 272319.73 272319.73 0 1 0 22488129.00 16758256.00  zM 21751179.41 16828743.73 m -183522.27 0 a 183522.27 183522.27 0 1 1 367044.53 0a 183522.27 183522.27 0 1 1 -367044.53 0M 22751179.41 16828743.73 m -183522.27 0 a 183522.27 183522.27 0 1 1 367044.53 0a 183522.27 183522.27 0 1 1 -367044.53 0"/>
<path id="N" d="M 30832455.00 16854505.00 L 30795640.78 16879103.46 L 30454120.00 16537582.03 L 30454121.00 11177158.00 L 30438269.00 11138889.00 L 29401111.00 10101731.00 L 29362839.59 10085880.00 L 25149575.01 10085880.00 L 23204120.00 8140424.01 L 23204121.00 5987158.00 L 23188267.29 5948888.29 L 23061111.00 5821731.00 L 23022839.59 5805880.00 L 18328165.41 5805880.00 L 18325495.00 5792455.00 A 254898.03 254898.03 0 1 0 18325495.00 5987545.00 L 18340100.21 5914120.00 L 23000424.12 5914120.00 L 23095880.00 6009575.12 L 23095879.00 8162842.00 L 23111731.00 8201111.00 L 25088889.00 10178269.00 L 25127160.41 10194120.00 L 29340424.00 10194120.00 L 30345880.00 11199576.00 L 30345879.00 16560000.00 L 30361731.00 16598269.00 L 30719103.46 16955640.78 L 30694505.00 16992455.00 A 254896.24 254896.24 0 1 0 30832455.00 16854505.00  z"/>
<path id="N" d="M 9861423.75 16828750.00 m -272319.73 0 a 272319.73 272319.73 0 1 1 544639.46 0a 272319.73 272319.73 0 1 1 -544639.46 0M 9861419.41 16828743.73 m -183522.27 0 a 183522.27 183522.27 0 1 1 367044.53 0a 183522.27 183522.27 0 1 1 -367044.53 0"/>
<path id="N" d="M 29751183.75 16828750.00 m -272319.73 0 a 272319.73 272319.73 0 1 1 544639.46 0a 272319.73 272319.73 0 1 1 -544639.46 0M 29751179.41 16828743.73 m -183522.27 0 a 183522.27 183522.27 0 1 1 367044.53 0a 183522.27 183522.27 0 1 1 -367044.53 0"/>
<path id="N" d="M 17861423.75 16828750.00 m -272319.73 0 a 272319.73 272319.73 0 1 1 544639.46 0a 272319.73 272319.73 0 1 1 -544639.46 0M 17861419.41 16828743.73 m -183522.27 0 a 183522.27 183522.27 0 1 1 367044.53 0a 183522.27 183522.27 0 1 1 -367044.53 0"/>
<path id="N" d="M 10861423.75 16828750.00 m -272319.73 0 a 272319.73 272319.73 0 1 1 544639.46 0a 272319.73 272319.73 0 1 1 -544639.46 0M 10861419.41 16828743.73 m -183522.27 0 a 183522.27 183522.27 0 1 1 367044.53 0a 183522.27 183522.27 0 1 1 -367044.53 0"/>
<path id="N" d="M 14315495.00 18432455.00 L 14290896.69 18395641.00 L 14604313.17 18082223.97 L 14649760.00 18150240.00 A 254898.66 254898.66 0 1 0 14594505.00 17872455.00 L 14577992.03 17955470.93 L 14214359.00 18319103.31 L 14177545.00 18294505.00 A 254896.24 254896.24 0 1 0 14315495.00 18432455.00  z"/>
<path id="N" d="M 16500001.29 6750001.29 m -259994.27 0 a 259994.27 259994.27 0 1 1 519988.55 0a 259994.27 259994.27 0 1 1 -519988.55 0M 16499999.59 6750000.10 m -173329.90 0 a 173329.90 173329.90 0 1 1 346659.79 0a 173329.90 173329.90 0 1 1 -346659.79 0"/>
<path id="N" d="M 22751183.75 11828750.00 m -272319.73 0 a 272319.73 272319.73 0 1 1 544639.46 0a 272319.73 272319.73 0 1 1 -544639.46 0M 22751179.41 11828743.73 m -183522.27 0 a 183522.27 183522.27 0 1 1 367044.53 0a 183522.27 183522.27 0 1 1 -367044.53 0"/>
<path id="N" d="M 20751183.75 11828750.00 m -272319.73 0 a 272319.73 272319.73 0 1 1 544639.46 0a 272319.73 272319.73 0 1 1 -544639.46 0M 20751179.41 11828743.73 m -183522.27 0 a 183522.27 183522.27 0 1 1 367044.53 0a 183522.27 183522.27 0 1 1 -367044.53 0"/>
<path id="N" d="M 23751183.75 11828750.00 m -272319.73 0 a 272319.73 272319.73 0 1 1 544639.46 0a 272319.73 272319.73 0 1 1 -544639.46 0M 23751179.41 11828743.73 m -183522.27 0 a 183522.27 183522.27 0 1 1 367044.53 0a 183522.27 183522.27 0 1 1 -367044.53 0"/>
<path id="N" d="M 27751183.75 11828750.00 m -272319.73 0 a 272319.73 272319.73 0 1 1 544639.46 0a 272319.73 272319.73 0 1 1 -544639.46 0M 27751179.41 11828743.73 m -183522.27 0 a 183522.27 183522.27 0 1 1 367044.53 0a 183522.27 183522.27 0 1 1 -367044.53 0"/>
<path id="N" d="M 15861423.75 11828750.00 m -272319.73 0 a 272319.73 272319.73 0 1 1 544639.46 0a 272319.73 272319.73 0 1 1 -544639.46 0M 15861419.41 11828743.73 m -183522.27 0 a 183522.27 183522.27 0 1 1 367044.53 0a 183522.27 183522.27 0 1 1 -367044.53 0"/>
<path id="N" d="M 8861423.75 11828750.00 m -272319.73 0 a 272319.73 272319.73 0 1 1 544639.46 0a 272319.73 272319.73 0 1 1 -544639.46 0M 8861419.41 11828743.73 m -183522.27 0 a 183522.27 183522.27 0 1 1 367044.53 0a 183522.27 183522.27 0 1 1 -367044.53 0"/>
<path id="N" d="M 11861423.75 11828750.00 m -272319.73 0 a 272319.73 272319.73 0 1 1 544639.46 0a 272319.73 272319.73 0 1 1 -544639.46 0M 11861419.41 11828743.73 m -183522.27 0 a 183522.27 183522.27 0 1 1 367044.53 0a 183522.27 183522.27 0 1 1 -367044.53 0"/>
<path id="N" d="M 16500001.29 7750001.29 m -259994.27 0 a 259994.27 259994.27 0 1 1 519988.55 0a 259994.27 259994.27 0 1 1 -519988.55 0M 16499999.59 7750000.10 m -173329.90 0 a 173329.90 173329.90 0 1 1 346659.79 0a 173329.90 173329.90 0 1 1 -346659.79 0"/>
<path id="N" d="M 9861423.75 11828750.00 m -272319.73 0 a 272319.73 272319.73 0 1 1 544639.46 0a 272319.73 272319.73 0 1 1 -544639.46 0M 9861419.41 11828743.73 m -183522.27 0 a 183522.27 183522.27 0 1 1 367044.53 0a 183522.27 183522.27 0 1 1 -367044.53 0"/>
<path id="N" d="M 26821664.00 16565689.00 L 26812940.00 16564540.51 L 26812940.00 16452940.00 L 29001180.00 16452941.00 L 29039449.00 16437089.00 L 30238269.00 15238269.00 L 30254120.00 15199997.59 L 30254120.00 11260000.00 L 30238267.29 11221730.29 L 29318269.00 10301731.00 L 29279997.59 10285880.00 L 24539661.01 10285880.00 L 23004120.00 8750338.01 L 23004120.00 6070000.00 L 22988269.00 6031731.00 L 22950000.00 6015880.00 L 20364143.85 6015880.00 L 20339997.59 6005880.00 L 19190000.00 6005880.00 L 19151730.29 6021732.71 L 18637963.91 6535498.34 L 18599496.00 6509795.00 A 259995.39 259995.39 0 1 0 18740205.00 6650504.00 L 18714501.66 6612036.09 L 19212417.02 6114120.00 L 20325857.04 6114120.00 L 20350000.00 6124120.00 L 22895880.00 6124120.00 L 22895879.00 8772756.00 L 22911731.00 8811025.00 L 24478975.00 10378269.00 L 24517246.41 10394120.00 L 29257582.02 10394120.00 L 30145880.00 11282417.02 L 30145880.00 15177582.99 L 28978762.01 16344700.00 L 25781294.09 16344700.00 L 25760000.00 16335880.00 L 10490000.00 16335880.00 L 10451730.29 16351732.71 L 10448842.85 16354620.00 L 7687451.00 16354619.00 L 7649181.29 16370472.71 L 7245033.04 16774620.00 L 7126625.27 16774620.00 L 7124471.00 16758256.00 A 272319.73 272319.73 0 1 0 7124471.00 16899224.00 L 7126625.27 16882860.00 L 7267451.00 16882861.00 L 7305720.00 16867009.00 L 7709868.04 16462860.00 L 10471260.00 16462861.00 L 10509529.00 16447009.00 L 10512417.85 16444120.00 L 13815880.00 16444120.00 L 13815880.00 16562405.20 L 13790936.00 16565689.00 A 272319.73 272319.73 0 1 0 13931904.00 16565689.00 L 13924120.00 16564664.26 L 13924120.00 16444120.00 L 14807300.00 16444120.00 L 14807300.00 16563534.73 L 14790936.00 16565689.00 A 272319.73 272319.73 0 1 0 14931904.00 16565689.00 L 14915540.00 16563534.73 L 14915540.00 16460997.67 L 14932417.33 16444120.00 L 18677582.31 16444120.00 L 18697060.00 16463597.31 L 18697060.00 16563534.73 L 18680696.00 16565689.00 A 272319.73 272319.73 0 1 0 18821664.00 16565689.00 L 18805300.00 16563534.73 L 18805300.00 16444120.00 L 25697060.00 16444120.00 L 25697060.00 16563534.73 L 25680696.00 16565689.00 A 272319.73 272319.73 0 1 0 25821664.00 16565689.00 L 25805300.00 16563534.73 L 25805300.00 16452940.00 L 26704700.00 16452940.00 L 26704700.00 16562528.95 L 26680696.00 16565689.00 A 272319.73 272319.73 0 1 0 26821664.00 16565689.00  zM 6861419.41 16828743.73 m -183522.27 0 a 183522.27 183522.27 0 1 1 367044.53 0a 183522.27 183522.27 0 1 1 -367044.53 0M 13861419.41 16828743.73 m -183522.27 0 a 183522.27 183522.27 0 1 1 367044.53 0a 183522.27 183522.27 0 1 1 -367044.53 0M 18499999.59 6750000.10 m -173329.90 0 a 173329.90 173329.90 0 1 1 346659.79 0a 173329.90 173329.90 0 1 1 -346659.79 0M 14861419.41 16828743.73 m -183522.27 0 a 183522.27 183522.27 0 1 1 367044.53 0a 183522.27 183522.27 0 1 1 -367044.53 0M 18751179.41 16828743.73 m -183522.27 0 a 183522.27 183522.27 0 1 1 367044.53 0a 183522.27 183522.27 0 1 1 -367044.53 0M 25751179.41 16828743.73 m -183522.27 0 a 183522.27 183522.27 0 1 1 367044.53 0a 183522.27 183522.27 0 1 1 -367044.53 0M 26751179.41 16828743.73 m -183522.27 0 a 183522.27 183522.27 0 1 1 367044.53 0a 183522.27 183522.27 0 1 1 -367044.53 0"/>
<path id="N" d="M 14861423.75 11828750.00 m -272319.73 0 a 272319.73 272319.73 0 1 1 544639.46 0a 272319.73 272319.73 0 1 1 -544639.46 0M 14861419.41 11828743.73 m -183522.27 0 a 183522.27 183522.27 0 1 1 367044.53 0a 183522.27 183522.27 0 1 1 -367044.53 0"/>
<path id="N" d="M 26751183.75 11828750.00 m -272319.73 0 a 272319.73 272319.73 0 1 1 544639.46 0a 272319.73 272319.73 0 1 1 -544639.46 0M 26751179.41 11828743.73 m -183522.27 0 a 183522.27 183522.27 0 1 1 367044.53 0a 183522.27 183522.27 0 1 1 -367044.53 0"/>
</g>
</svg>
