<svg width="72.99999878mm" height="38.99999566mm" viewBox="0 0 28740157 15354329"  version="1.1" xmlns="http://www.w3.org/2000/svg" xmlns:xlink="http://www.w3.org/1999/xlink">
<desc>
Origin 3750000 19500000 Bound 3937007 3937007 28740157 15354329
</desc>
<g fill-rule="evenodd" fill="rgb(174, 78, 0)" stroke="black" stroke-width="1" transform="translate(0, 15354329) scale(1, -1) translate(-3937007, -3937007)">
<path id="N" d="M 28751173.63 16828727.14 m -312689.14 0 a 312689.14 312689.14 0 1 1 625378.28 0a 312689.14 312689.14 0 1 1 -625378.28 0M 28751179.41 16828743.73 m -183522.27 0 a 183522.27 183522.27 0 1 1 367044.53 0a 183522.27 183522.27 0 1 1 -367044.53 0"/>
<path id="N" d="M 7861413.63 16828727.14 m -312689.14 0 a 312689.14 312689.14 0 1 1 625378.28 0a 312689.14 312689.14 0 1 1 -625378.28 0M 7861419.41 16828743.73 m -183522.27 0 a 183522.27 183522.27 0 1 1 367044.53 0a 183522.27 183522.27 0 1 1 -367044.53 0"/>
<path id="N" d="M 12861413.63 16828727.14 m -312689.14 0 a 312689.14 312689.14 0 1 1 625378.28 0a 312689.14 312689.14 0 1 1 -625378.28 0M 12861419.41 16828743.73 m -183522.27 0 a 183522.27 183522.27 0 1 1 367044.53 0a 183522.27 183522.27 0 1 1 -367044.53 0"/>
<path id="N" d="M 24751173.63 16828727.14 m -312689.14 0 a 312689.14 312689.14 0 1 1 625378.28 0a 312689.14 312689.14 0 1 1 -625378.28 0M 24751179.41 16828743.73 m -183522.27 0 a 183522.27 183522.27 0 1 1 367044.53 0a 183522.27 183522.27 0 1 1 -367044.53 0"/>
<path id="N" d="M 19751173.63 16828727.14 m -312689.14 0 a 312689.14 312689.14 0 1 1 625378.28 0a 312689.14 312689.14 0 1 1 -625378.28 0M 19751179.41 16828743.73 m -183522.27 0 a 183522.27 183522.27 0 1 1 367044.53 0a 183522.27 183522.27 0 1 1 -367044.53 0"/>
<path id="N" d="M 16861413.63 16828727.14 m -312689.14 0 a 312689.14 312689.14 0 1 1 625378.28 0a 312689.14 312689.14 0 1 1 -625378.28 0M 16861419.41 16828743.73 m -183522.27 0 a 183522.27 183522.27 0 1 1 367044.53 0a 183522.27 183522.27 0 1 1 -367044.53 0"/>
<path id="N" d="M 15795000.00 6455000.00 L 15205000.00 6455000.00 L 15205000.00 7045000.00 L 15795000.00 7045000.00 L 15795000.00 6455000.00  zM 15499999.59 6750000.10 m -173329.90 0 a 173329.90 173329.90 0 1 1 346659.79 0a 173329.90 173329.90 0 1 1 -346659.79 0"/>
<path id="N" d="M 7861413.63 11828727.14 m -312689.14 0 a 312689.14 312689.14 0 1 1 625378.28 0a 312689.14 312689.14 0 1 1 -625378.28 0M 7861419.41 11828743.73 m -183522.27 0 a 183522.27 183522.27 0 1 1 367044.53 0a 183522.27 183522.27 0 1 1 -367044.53 0"/>
<path id="N" d="M 12861413.63 11828727.14 m -312689.14 0 a 312689.14 312689.14 0 1 1 625378.28 0a 312689.14 312689.14 0 1 1 -625378.28 0M 12861419.41 11828743.73 m -183522.27 0 a 183522.27 183522.27 0 1 1 367044.53 0a 183522.27 183522.27 0 1 1 -367044.53 0"/>
<path id="N" d="M 17499995.52 7749990.18 m -297556.40 0 a 297556.40 297556.40 0 1 1 595112.80 0a 297556.40 297556.40 0 1 1 -595112.80 0M 17499999.59 7750000.10 m -173329.90 0 a 173329.90 173329.90 0 1 1 346659.79 0a 173329.90 173329.90 0 1 1 -346659.79 0"/>
<path id="N" d="M 16861413.63 11828727.14 m -312689.14 0 a 312689.14 312689.14 0 1 1 625378.28 0a 312689.14 312689.14 0 1 1 -625378.28 0M 16861419.41 11828743.73 m -183522.27 0 a 183522.27 183522.27 0 1 1 367044.53 0a 183522.27 183522.27 0 1 1 -367044.53 0"/>
<path id="N" d="M 19751173.63 11828727.14 m -312689.14 0 a 312689.14 312689.14 0 1 1 625378.28 0a 312689.14 312689.14 0 1 1 -625378.28 0M 19751179.41 11828743.73 m -183522.27 0 a 183522.27 183522.27 0 1 1 367044.53 0a 183522.27 183522.27 0 1 1 -367044.53 0"/>
<path id="N" d="M 24751173.63 11828727.14 m -312689.14 0 a 312689.14 312689.14 0 1 1 625378.28 0a 312689.14 312689.14 0 1 1 -625378.28 0M 24751179.41 11828743.73 m -183522.27 0 a 183522.27 183522.27 0 1 1 367044.53 0a 183522.27 183522.27 0 1 1 -367044.53 0"/>
<path id="N" d="M 28751173.63 11828727.14 m -312689.14 0 a 312689.14 312689.14 0 1 1 625378.28 0a 312689.14 312689.14 0 1 1 -625378.28 0M 28751179.41 11828743.73 m -183522.27 0 a 183522.27 183522.27 0 1 1 367044.53 0a 183522.27 183522.27 0 1 1 -367044.53 0"/>
<path id="N" d="M 17861413.63 11828727.14 m -312689.14 0 a 312689.14 312689.14 0 1 1 625378.28 0a 312689.14 312689.14 0 1 1 -625378.28 0M 17861419.41 11828743.73 m -183522.27 0 a 183522.27 183522.27 0 1 1 367044.53 0a 183522.27 183522.27 0 1 1 -367044.53 0"/>
<path id="N" d="M 15499995.52 7749990.18 m -297556.40 0 a 297556.40 297556.40 0 1 1 595112.80 0a 297556.40 297556.40 0 1 1 -595112.80 0M 15499999.59 7750000.10 m -173329.90 0 a 173329.90 173329.90 0 1 1 346659.79 0a 173329.90 173329.90 0 1 1 -346659.79 0"/>
<path id="N" d="M 13861413.63 11828727.14 m -312689.14 0 a 312689.14 312689.14 0 1 1 625378.28 0a 312689.14 312689.14 0 1 1 -625378.28 0M 13861419.41 11828743.73 m -183522.27 0 a 183522.27 183522.27 0 1 1 367044.53 0a 183522.27 183522.27 0 1 1 -367044.53 0"/>
<path id="N" d="M 25751173.63 11828727.14 m -312689.14 0 a 312689.14 312689.14 0 1 1 625378.28 0a 312689.14 312689.14 0 1 1 -625378.28 0M 25751179.41 11828743.73 m -183522.27 0 a 183522.27 183522.27 0 1 1 367044.53 0a 183522.27 183522.27 0 1 1 -367044.53 0"/>
<path id="N" d="M 29751173.63 11828727.14 m -312689.14 0 a 312689.14 312689.14 0 1 1 625378.28 0a 312689.14 312689.14 0 1 1 -625378.28 0M 29751179.41 11828743.73 m -183522.27 0 a 183522.27 183522.27 0 1 1 367044.53 0a 183522.27 183522.27 0 1 1 -367044.53 0"/>
<path id="N" d="M 7171420.00 11518740.00 L 6551420.00 11518740.00 L 6551420.00 12138740.00 L 7171420.00 12138740.00 L 7171420.00 11518740.00  zM 6861419.41 11828743.73 m -183522.27 0 a 183522.27 183522.27 0 1 1 367044.53 0a 183522.27 183522.27 0 1 1 -367044.53 0"/>
<path id="N" d="M 19061180.00 11518740.00 L 18441180.00 11518740.00 L 18441180.00 12138740.00 L 19061180.00 12138740.00 L 19061180.00 11518740.00  zM 18751179.41 11828743.73 m -183522.27 0 a 183522.27 183522.27 0 1 1 367044.53 0a 183522.27 183522.27 0 1 1 -367044.53 0"/>
<path id="N" d="M 23751173.63 16828727.14 m -312689.14 0 a 312689.14 312689.14 0 1 1 625378.28 0a 312689.14 312689.14 0 1 1 -625378.28 0M 23751179.41 16828743.73 m -183522.27 0 a 183522.27 183522.27 0 1 1 367044.53 0a 183522.27 183522.27 0 1 1 -367044.53 0"/>
<path id="N" d="M 20751173.63 16828727.14 m -312689.14 0 a 312689.14 312689.14 0 1 1 625378.28 0a 312689.14 312689.14 0 1 1 -625378.28 0M 20751179.41 16828743.73 m -183522.27 0 a 183522.27 183522.27 0 1 1 367044.53 0a 183522.27 183522.27 0 1 1 -367044.53 0"/>
<path id="N" d="M 17499995.52 6749990.18 m -297556.40 0 a 297556.40 297556.40 0 1 1 595112.80 0a 297556.40 297556.40 0 1 1 -595112.80 0M 17499999.59 6750000.10 m -173329.90 0 a 173329.90 173329.90 0 1 1 346659.79 0a 173329.90 173329.90 0 1 1 -346659.79 0"/>
<path id="N" d="M 11861413.63 16828727.14 m -312689.14 0 a 312689.14 312689.14 0 1 1 625378.28 0a 312689.14 312689.14 0 1 1 -625378.28 0M 11861419.41 16828743.73 m -183522.27 0 a 183522.27 183522.27 0 1 1 367044.53 0a 183522.27 183522.27 0 1 1 -367044.53 0"/>
<path id="N" d="M 8861413.63 16828727.14 m -312689.14 0 a 312689.14 312689.14 0 1 1 625378.28 0a 312689.14 312689.14 0 1 1 -625378.28 0M 8861419.41 16828743.73 m -183522.27 0 a 183522.27 183522.27 0 1 1 367044.53 0a 183522.27 183522.27 0 1 1 -367044.53 0"/>
<path id="N" d="M 19499995.52 6749990.18 m -297556.40 0 a 297556.40 297556.40 0 1 1 595112.80 0a 297556.40 297556.40 0 1 1 -595112.80 0M 19499999.59 6750000.10 m -173329.90 0 a 173329.90 173329.90 0 1 1 346659.79 0a 173329.90 173329.90 0 1 1 -346659.79 0"/>
<path id="N" d="M 15861413.63 16828727.14 m -312689.14 0 a 312689.14 312689.14 0 1 1 625378.28 0a 312689.14 312689.14 0 1 1 -625378.28 0M 15861419.41 16828743.73 m -183522.27 0 a 183522.27 183522.27 0 1 1 367044.53 0a 183522.27 183522.27 0 1 1 -367044.53 0"/>
<path id="N" d="M 27751173.63 16828727.14 m -312689.14 0 a 312689.14 312689.14 0 1 1 625378.28 0a 312689.14 312689.14 0 1 1 -625378.28 0M 27751179.41 16828743.73 m -183522.27 0 a 183522.27 183522.27 0 1 1 367044.53 0a 183522.27 183522.27 0 1 1 -367044.53 0"/>
<path id="N" d="M 22499995.52 6749990.18 m -297556.40 0 a 297556.40 297556.40 0 1 1 595112.80 0a 297556.40 297556.40 0 1 1 -595112.80 0M 22499999.59 6750000.10 m -173329.90 0 a 173329.90 173329.90 0 1 1 346659.79 0a 173329.90 173329.90 0 1 1 -346659.79 0"/>
<path id="N" d="M 21751173.63 11828727.14 m -312689.14 0 a 312689.14 312689.14 0 1 1 625378.28 0a 312689.14 312689.14 0 1 1 -625378.28 0M 21751179.41 11828743.73 m -183522.27 0 a 183522.27 183522.27 0 1 1 367044.53 0a 183522.27 183522.27 0 1 1 -367044.53 0"/>
<path id="N" d="M 20499995.52 7749990.18 m -297556.40 0 a 297556.40 297556.40 0 1 1 595112.80 0a 297556.40 297556.40 0 1 1 -595112.80 0M 20499999.59 7750000.10 m -173329.90 0 a 173329.90 173329.90 0 1 1 346659.79 0a 173329.90 173329.90 0 1 1 -346659.79 0"/>
<path id="N" d="M 19499995.52 7749990.18 m -297556.40 0 a 297556.40 297556.40 0 1 1 595112.80 0a 297556.40 297556.40 0 1 1 -595112.80 0M 19499999.59 7750000.10 m -173329.90 0 a 173329.90 173329.90 0 1 1 346659.79 0a 173329.90 173329.90 0 1 1 -346659.79 0"/>
<path id="N" d="M 20499995.52 6749990.18 m -297556.40 0 a 297556.40 297556.40 0 1 1 595112.80 0a 297556.40 297556.40 0 1 1 -595112.80 0M 20499999.59 6750000.10 m -173329.90 0 a 173329.90 173329.90 0 1 1 346659.79 0a 173329.90 173329.90 0 1 1 -346659.79 0"/>
<path id="N" d="M 21499995.52 6749990.18 m -297556.40 0 a 297556.40 297556.40 0 1 1 595112.80 0a 297556.40 297556.40 0 1 1 -595112.80 0M 21499999.59 6750000.10 m -173329.90 0 a 173329.90 173329.90 0 1 1 346659.79 0a 173329.90 173329.90 0 1 1 -346659.79 0"/>
<path id="N" d="M 10861413.63 11828727.14 m -312689.14 0 a 312689.14 312689.14 0 1 1 625378.28 0a 312689.14 312689.14 0 1 1 -625378.28 0M 10861419.41 11828743.73 m -183522.27 0 a 183522.27 183522.27 0 1 1 367044.53 0a 183522.27 183522.27 0 1 1 -367044.53 0"/>
<path id="N" d="M 22499995.52 7749990.18 m -297556.40 0 a 297556.40 297556.40 0 1 1 595112.80 0a 297556.40 297556.40 0 1 1 -595112.80 0M 22499999.59 7750000.10 m -173329.90 0 a 173329.90 173329.90 0 1 1 346659.79 0a 173329.90 173329.90 0 1 1 -346659.79 0"/>
<path id="N" d="M 21499995.52 7749990.18 m -297556.40 0 a 297556.40 297556.40 0 1 1 595112.80 0a 297556.40 297556.40 0 1 1 -595112.80 0M 21499999.59 7750000.10 m -173329.90 0 a 173329.90 173329.90 0 1 1 346659.79 0a 173329.90 173329.90 0 1 1 -346659.79 0"/>
<path id="N" d="M 18499995.52 7749990.18 m -297556.40 0 a 297556.40 297556.40 0 1 1 595112.80 0a 297556.40 297556.40 0 1 1 -595112.80 0M 18499999.59 7750000.10 m -173329.90 0 a 173329.90 173329.90 0 1 1 346659.79 0a 173329.90 173329.90 0 1 1 -346659.79 0"/>
<path id="N" d="M 17861413.63 16828727.14 m -312689.14 0 a 312689.14 312689.14 0 1 1 625378.28 0a 312689.14 312689.14 0 1 1 -625378.28 0M 17861419.41 16828743.73 m -183522.27 0 a 183522.27 183522.27 0 1 1 367044.53 0a 183522.27 183522.27 0 1 1 -367044.53 0"/>
<path id="N" d="M 29751173.63 16828727.14 m -312689.14 0 a 312689.14 312689.14 0 1 1 625378.28 0a 312689.14 312689.14 0 1 1 -625378.28 0M 29751179.41 16828743.73 m -183522.27 0 a 183522.27 183522.27 0 1 1 367044.53 0a 183522.27 183522.27 0 1 1 -367044.53 0"/>
<path id="N" d="M 10861413.63 16828727.14 m -312689.14 0 a 312689.14 312689.14 0 1 1 625378.28 0a 312689.14 312689.14 0 1 1 -625378.28 0M 10861419.41 16828743.73 m -183522.27 0 a 183522.27 183522.27 0 1 1 367044.53 0a 183522.27 183522.27 0 1 1 -367044.53 0"/>
<path id="N" d="M 9861413.63 16828727.14 m -312689.14 0 a 312689.14 312689.14 0 1 1 625378.28 0a 312689.14 312689.14 0 1 1 -625378.28 0M 9861419.41 16828743.73 m -183522.27 0 a 183522.27 183522.27 0 1 1 367044.53 0a 183522.27 183522.27 0 1 1 -367044.53 0"/>
<path id="N" d="M 22751173.63 16828727.14 m -312689.14 0 a 312689.14 312689.14 0 1 1 625378.28 0a 312689.14 312689.14 0 1 1 -625378.28 0M 22751179.41 16828743.73 m -183522.27 0 a 183522.27 183522.27 0 1 1 367044.53 0a 183522.27 183522.27 0 1 1 -367044.53 0"/>
<path id="N" d="M 21751173.63 16828727.14 m -312689.14 0 a 312689.14 312689.14 0 1 1 625378.28 0a 312689.14 312689.14 0 1 1 -625378.28 0M 21751179.41 16828743.73 m -183522.27 0 a 183522.27 183522.27 0 1 1 367044.53 0a 183522.27 183522.27 0 1 1 -367044.53 0"/>
<path id="N" d="M 16499995.52 6749990.18 m -297556.40 0 a 297556.40 297556.40 0 1 1 595112.80 0a 297556.40 297556.40 0 1 1 -595112.80 0M 16499999.59 6750000.10 m -173329.90 0 a 173329.90 173329.90 0 1 1 346659.79 0a 173329.90 173329.90 0 1 1 -346659.79 0"/>
<path id="N" d="M 22751173.63 11828727.14 m -312689.14 0 a 312689.14 312689.14 0 1 1 625378.28 0a 312689.14 312689.14 0 1 1 -625378.28 0M 22751179.41 11828743.73 m -183522.27 0 a 183522.27 183522.27 0 1 1 367044.53 0a 183522.27 183522.27 0 1 1 -367044.53 0"/>
<path id="N" d="M 16499995.52 7749990.18 m -297556.40 0 a 297556.40 297556.40 0 1 1 595112.80 0a 297556.40 297556.40 0 1 1 -595112.80 0M 16499999.59 7750000.10 m -173329.90 0 a 173329.90 173329.90 0 1 1 346659.79 0a 173329.90 173329.90 0 1 1 -346659.79 0"/>
<path id="N" d="M 15861413.63 11828727.14 m -312689.14 0 a 312689.14 312689.14 0 1 1 625378.28 0a 312689.14 312689.14 0 1 1 -625378.28 0M 15861419.41 11828743.73 m -183522.27 0 a 183522.27 183522.27 0 1 1 367044.53 0a 183522.27 183522.27 0 1 1 -367044.53 0"/>
<path id="N" d="M 27751173.63 11828727.14 m -312689.14 0 a 312689.14 312689.14 0 1 1 625378.28 0a 312689.14 312689.14 0 1 1 -625378.28 0M 27751179.41 11828743.73 m -183522.27 0 a 183522.27 183522.27 0 1 1 367044.53 0a 183522.27 183522.27 0 1 1 -367044.53 0"/>
<path id="N" d="M 11861413.63 11828727.14 m -312689.14 0 a 312689.14 312689.14 0 1 1 625378.28 0a 312689.14 312689.14 0 1 1 -625378.28 0M 11861419.41 11828743.73 m -183522.27 0 a 183522.27 183522.27 0 1 1 367044.53 0a 183522.27 183522.27 0 1 1 -367044.53 0"/>
<path id="N" d="M 8861413.63 11828727.14 m -312689.14 0 a 312689.14 312689.14 0 1 1 625378.28 0a 312689.14 312689.14 0 1 1 -625378.28 0M 8861419.41 11828743.73 m -183522.27 0 a 183522.27 183522.27 0 1 1 367044.53 0a 183522.27 183522.27 0 1 1 -367044.53 0"/>
<path id="N" d="M 23751173.63 11828727.14 m -312689.14 0 a 312689.14 312689.14 0 1 1 625378.28 0a 312689.14 312689.14 0 1 1 -625378.28 0M 23751179.41 11828743.73 m -183522.27 0 a 183522.27 183522.27 0 1 1 367044.53 0a 183522.27 183522.27 0 1 1 -367044.53 0"/>
<path id="N" d="M 20751173.63 11828727.14 m -312689.14 0 a 312689.14 312689.14 0 1 1 625378.28 0a 312689.14 312689.14 0 1 1 -625378.28 0M 20751179.41 11828743.73 m -183522.27 0 a 183522.27 183522.27 0 1 1 367044.53 0a 183522.27 183522.27 0 1 1 -367044.53 0"/>
<path id="N" d="M 9861413.63 11828727.14 m -312689.14 0 a 312689.14 312689.14 0 1 1 625378.28 0a 312689.14 312689.14 0 1 1 -625378.28 0M 9861419.41 11828743.73 m -183522.27 0 a 183522.27 183522.27 0 1 1 367044.53 0a 183522.27 183522.27 0 1 1 -367044.53 0"/>
<path id="N" d="M 6861413.63 16828727.14 m -312689.14 0 a 312689.14 312689.14 0 1 1 625378.28 0a 312689.14 312689.14 0 1 1 -625378.28 0M 6861419.41 16828743.73 m -183522.27 0 a 183522.27 183522.27 0 1 1 367044.53 0a 183522.27 183522.27 0 1 1 -367044.53 0"/>
<path id="N" d="M 14861413.63 16828727.14 m -312689.14 0 a 312689.14 312689.14 0 1 1 625378.28 0a 312689.14 312689.14 0 1 1 -625378.28 0M 14861419.41 16828743.73 m -183522.27 0 a 183522.27 183522.27 0 1 1 367044.53 0a 183522.27 183522.27 0 1 1 -367044.53 0"/>
<path id="N" d="M 18499995.52 6749990.18 m -297556.40 0 a 297556.40 297556.40 0 1 1 595112.80 0a 297556.40 297556.40 0 1 1 -595112.80 0M 18499999.59 6750000.10 m -173329.90 0 a 173329.90 173329.90 0 1 1 346659.79 0a 173329.90 173329.90 0 1 1 -346659.79 0"/>
<path id="N" d="M 13861413.63 16828727.14 m -312689.14 0 a 312689.14 312689.14 0 1 1 625378.28 0a 312689.14 312689.14 0 1 1 -625378.28 0M 13861419.41 16828743.73 m -183522.27 0 a 183522.27 183522.27 0 1 1 367044.53 0a 183522.27 183522.27 0 1 1 -367044.53 0"/>
<path id="N" d="M 18751173.63 16828727.14 m -312689.14 0 a 312689.14 312689.14 0 1 1 625378.28 0a 312689.14 312689.14 0 1 1 -625378.28 0M 18751179.41 16828743.73 m -183522.27 0 a 183522.27 183522.27 0 1 1 367044.53 0a 183522.27 183522.27 0 1 1 -367044.53 0"/>
<path id="N" d="M 26751173.63 16828727.14 m -312689.14 0 a 312689.14 312689.14 0 1 1 625378.28 0a 312689.14 312689.14 0 1 1 -625378.28 0M 26751179.41 16828743.73 m -183522.27 0 a 183522.27 183522.27 0 1 1 367044.53 0a 183522.27 183522.27 0 1 1 -367044.53 0"/>
<path id="N" d="M 25751173.63 16828727.14 m -312689.14 0 a 312689.14 312689.14 0 1 1 625378.28 0a 312689.14 312689.14 0 1 1 -625378.28 0M 25751179.41 16828743.73 m -183522.27 0 a 183522.27 183522.27 0 1 1 367044.53 0a 183522.27 183522.27 0 1 1 -367044.53 0"/>
<path id="N" d="M 14861413.63 11828727.14 m -312689.14 0 a 312689.14 312689.14 0 1 1 625378.28 0a 312689.14 312689.14 0 1 1 -625378.28 0M 14861419.41 11828743.73 m -183522.27 0 a 183522.27 183522.27 0 1 1 367044.53 0a 183522.27 183522.27 0 1 1 -367044.53 0"/>
<path id="N" d="M 26751173.63 11828727.14 m -312689.14 0 a 312689.14 312689.14 0 1 1 625378.28 0a 312689.14 312689.14 0 1 1 -625378.28 0M 26751179.41 11828743.73 m -183522.27 0 a 183522.27 183522.27 0 1 1 367044.53 0a 183522.27 183522.27 0 1 1 -367044.53 0"/>
</g>
</svg>
