<svg width="19.99999556mm" height="17.99999956mm" viewBox="0 0 7874014 7086614"  version="1.1" xmlns="http://www.w3.org/2000/svg" xmlns:xlink="http://www.w3.org/1999/xlink">
<desc>
Origin 3750000 11250000 Bound 3937007 3937007 7874014 7086614
</desc>
<g fill-rule="evenodd" fill="rgb(207, 224, 229)" stroke="black" stroke-width="1" transform="translate(0, 7086614) scale(1, -1) translate(-3937007, -3937007)">
<path id="N" d="M 5749968.00 4654072.00 L 5781636.00 4644972.00 L 5804204.00 4632232.00 L 5827136.00 4611848.00 L 5842424.00 4590736.00 L 5847520.00 4579452.00 L 5856984.00 4550696.00 L 5859532.00 4525944.00 L 5857348.00 4505560.00 L 5847884.00 4473528.00 L 5837328.00 4454236.00 L 5814760.00 4428392.00 L 5793648.00 4413832.00 L 5769988.00 4403640.00 L 5741960.00 4397452.00 L 5720848.00 4397088.00 L 5688452.00 4404004.00 L 5664792.00 4414196.00 L 5639676.00 4433124.00 L 5624024.00 4450960.00 L 5613104.00 4470252.00 L 5602548.00 4502284.00 L 5600000.00 4526672.00 L 5602184.00 4547056.00 L 5611648.00 4579452.00 L 5622204.00 4598744.00 L 5644772.00 4624588.00 L 5665884.00 4639512.00 L 5685176.00 4647884.00 L 5717572.00 4655528.00 L 5749968.00 4654072.00  zM 5727036.00 4634780.00 L 5695732.00 4628956.00 L 5672072.00 4618036.00 L 5648412.00 4597652.00 L 5635308.00 4579088.00 L 5623660.00 4546692.00 L 5621476.00 4523396.00 L 5627300.00 4491728.00 L 5638220.00 4468068.00 L 5658604.00 4444772.00 L 5676804.00 4431668.00 L 5709200.00 4420384.00 L 5732496.00 4418200.00 L 5764164.00 4424024.00 L 5787824.00 4434944.00 L 5811120.00 4455328.00 L 5824224.00 4473528.00 L 5835872.00 4505924.00 L 5838056.00 4526308.00 L 5834416.00 4551788.00 L 5823496.00 4580180.00 L 5812940.00 4595104.00 L 5792192.00 4614760.00 L 5778360.00 4622768.00 L 5749240.00 4632596.00 L 5727036.00 4634780.00  z"/>
<path id="N" d="M 7487340.00 4579816.00 L 7503720.00 4569988.00 L 7512092.00 4558340.00 L 7516824.00 4542688.00 L 7517916.00 4476076.00 L 7519736.00 4421476.00 L 7527380.00 4400000.00 L 7494620.00 4400364.00 L 7488432.00 4422204.00 L 7461860.00 4404368.00 L 7440384.00 4397816.00 L 7413812.00 4396360.00 L 7389060.00 4402184.00 L 7374500.00 4411284.00 A 54294.01 54294.01 0 0 0 7398888.00 4499008.00 L 7440020.00 4506288.00 L 7486248.00 4516116.00 L 7486612.00 4527036.00 L 7482608.00 4543416.00 L 7475328.00 4552516.00 L 7457856.00 4559796.00 L 7434924.00 4560888.00 L 7414176.00 4556156.00 L 7403984.00 4547420.00 L 7394884.00 4526672.00 L 7365036.00 4531404.00 L 7365036.00 4532496.00 L 7374864.00 4556884.00 L 7385056.00 4568532.00 L 7406168.00 4580544.00 L 7430556.00 4585640.00 L 7460404.00 4586004.00 L 7487340.00 4579816.00  zM 7485884.00 4491364.00 L 7476784.00 4488452.00 L 7425096.00 4477896.00 L 7405804.00 4472072.00 L 7396340.00 4463700.00 L 7393064.00 4454964.00 L 7393428.00 4441860.00 L 7401800.00 4428028.00 L 7412356.00 4422932.00 L 7429100.00 4420384.00 L 7449848.00 4423660.00 L 7465500.00 4431304.00 L 7478240.00 4444772.00 L 7483700.00 4457148.00 L 7486248.00 4480080.00 L 7485884.00 4491364.00  z"/>
<path id="N" d="M 8390060.00 4582364.00 L 8410080.00 4573264.00 L 8424276.00 4561616.00 L 8438108.00 4538684.00 L 8445388.00 4514660.00 L 8447208.00 4483356.00 L 8310708.00 4482992.00 L 8313256.00 4466248.00 L 8322356.00 4443680.00 L 8330364.00 4434580.00 L 8350384.00 4424024.00 L 8368948.00 4421476.00 L 8390424.00 4427300.00 L 8402072.00 4437128.00 L 8414448.00 4458968.00 L 8446480.00 4454964.00 L 8439928.00 4438948.00 L 8425368.00 4417836.00 L 8410080.00 4406552.00 L 8387512.00 4398544.00 L 8366036.00 4395996.00 L 8343104.00 4398908.00 L 8316896.00 4409100.00 L 8302336.00 4420384.00 L 8295056.00 4430576.00 L 8284500.00 4453872.00 L 8279404.00 4481536.00 L 8280132.00 4505560.00 L 8288868.00 4539412.00 L 8298696.00 4556156.00 L 8309252.00 4567076.00 L 8328180.00 4578724.00 L 8350748.00 4585640.00 L 8390060.00 4582364.00  zM 8362396.00 4561252.00 L 8340192.00 4555064.00 L 8326360.00 4544144.00 L 8315804.00 4524852.00 L 8312528.00 4508836.00 L 8414812.00 4508836.00 L 8413720.00 4516844.00 L 8406076.00 4538320.00 L 8396976.00 4548876.00 L 8380596.00 4558340.00 L 8362396.00 4561252.00  z"/>
<path id="N" d="M 6393884.00 4582364.00 L 6413904.00 4573264.00 L 6428100.00 4561616.00 L 6441932.00 4538684.00 L 6449212.00 4514660.00 L 6451032.00 4483356.00 L 6314532.00 4482992.00 L 6317080.00 4466248.00 L 6326180.00 4443680.00 L 6334188.00 4434580.00 L 6354208.00 4424024.00 L 6372772.00 4421476.00 L 6394248.00 4427300.00 L 6405896.00 4437128.00 L 6418272.00 4458968.00 L 6450304.00 4454964.00 L 6443752.00 4438948.00 L 6429192.00 4417836.00 L 6413904.00 4406552.00 L 6391336.00 4398544.00 L 6369860.00 4395996.00 L 6346928.00 4398908.00 L 6320720.00 4409100.00 L 6306160.00 4420384.00 L 6298880.00 4430576.00 L 6288324.00 4453872.00 L 6283228.00 4481536.00 L 6283956.00 4505560.00 L 6292692.00 4539412.00 L 6302520.00 4556156.00 L 6313076.00 4567076.00 L 6332004.00 4578724.00 L 6354572.00 4585640.00 L 6393884.00 4582364.00  zM 6366220.00 4561252.00 L 6344016.00 4555064.00 L 6330184.00 4544144.00 L 6319628.00 4524852.00 L 6316352.00 4508836.00 L 6418636.00 4508836.00 L 6417544.00 4516844.00 L 6409900.00 4538320.00 L 6400800.00 4548876.00 L 6384420.00 4558340.00 L 6366220.00 4561252.00  z"/>
<path id="N" d="M 11109482.00 8538998.00 L 11120402.00 8530080.00 L 11120402.00 8541364.00 L 11134598.00 8541364.00 L 11134598.00 8461466.00 L 11132778.00 8440718.00 L 11126954.00 8427250.00 L 11115488.00 8417786.00 A 53133.21 53133.21 0 0 0 11066530.00 8420880.00 L 11060160.00 8429070.00 L 11057248.00 8442538.00 L 11072354.00 8440536.00 L 11074902.00 8433256.00 L 11083820.00 8427250.00 L 11099472.00 8426340.00 L 11110756.00 8430890.00 L 11116944.00 8439444.00 L 11118946.00 8462012.00 L 11116216.00 8459282.00 L 11101656.00 8451092.00 L 11087096.00 8450728.00 L 11070898.00 8457280.00 L 11061070.00 8468746.00 A 57393.38 57393.38 0 0 0 11060888.00 8523892.00 L 11072900.00 8537360.00 L 11085276.00 8542456.00 L 11109482.00 8538998.00  zM 11093102.00 8530444.00 L 11082910.00 8526986.00 L 11075448.00 8519706.00 L 11070352.00 8502962.00 L 11071808.00 8482760.00 L 11077086.00 8470930.00 L 11087642.00 8464014.00 L 11098744.00 8463104.00 L 11111484.00 8469474.00 L 11117854.00 8480758.00 L 11120038.00 8500778.00 L 11115306.00 8518614.00 L 11105114.00 8527896.00 L 11093102.00 8530444.00  z"/>
<path id="N" d="M 7597180.00 9132950.00 L 7634920.00 9126845.00 L 7655455.00 9119075.00 L 7675435.00 9103535.00 L 7688755.00 9086885.00 L 7697080.00 9069680.00 A 105175.79 105175.79 0 0 0 7678210.00 8959790.00 L 7667110.00 8950910.00 L 7646575.00 8939255.00 L 7624375.00 8930930.00 L 7596625.00 8924825.00 L 7617715.00 8912615.00 L 7635475.00 8897075.00 L 7661560.00 8865440.00 L 7735375.00 8750000.00 L 7672105.00 8750000.00 L 7621600.00 8830475.00 L 7584415.00 8883200.00 L 7563325.00 8904845.00 L 7551670.00 8912060.00 L 7528915.00 8919275.00 L 7448995.00 8920385.00 L 7448995.00 8750000.00 L 7397935.00 8750000.00 L 7397935.00 9134060.00 L 7597180.00 9132950.00  zM 7448995.00 9091325.00 L 7448995.00 8964230.00 L 7563325.00 8964230.00 L 7604395.00 8968670.00 L 7623265.00 8976440.00 L 7638250.00 8988650.00 L 7645465.00 9000305.00 L 7652125.00 9021950.00 L 7651570.00 9038045.00 L 7647685.00 9051365.00 A 52066.46 52066.46 0 0 1 7608835.00 9085775.00 L 7584970.00 9090770.00 L 7448995.00 9091325.00  z"/>
<path id="N" d="M 6795376.00 4584548.00 L 6820128.00 4576176.00 L 6839784.00 4561980.00 L 6853980.00 4539776.00 L 6861624.00 4516116.00 L 6863808.00 4490636.00 L 6859076.00 4455692.00 L 6852524.00 4437492.00 L 6840876.00 4421840.00 L 6821220.00 4406552.00 L 6802656.00 4399636.00 L 6778268.00 4395996.00 L 6760432.00 4398180.00 L 6735680.00 4406188.00 L 6716024.00 4420384.00 L 6702192.00 4443316.00 L 6694912.00 4467704.00 L 6693092.00 4499736.00 L 6697824.00 4525580.00 L 6707652.00 4550332.00 L 6720756.00 4566348.00 L 6740776.00 4578360.00 L 6766256.00 4586004.00 L 6795376.00 4584548.00  zM 6738956.00 4543052.00 L 6729128.00 4523396.00 L 6724760.00 4497552.00 L 6726216.00 4471708.00 L 6734588.00 4445864.00 L 6742596.00 4436036.00 L 6762252.00 4424024.00 L 6778268.00 4421476.00 L 6797560.00 4425844.00 L 6810300.00 4433124.00 L 6820128.00 4444044.00 L 6828500.00 4464064.00 L 6832140.00 4492820.00 L 6828500.00 4519756.00 L 6821584.00 4536500.00 L 6813576.00 4546692.00 A 50026.22 50026.22 0 0 1 6738956.00 4543052.00  z"/>
<path id="N" d="M 7120428.00 4580180.00 L 7133896.00 4570716.00 L 7141904.00 4556884.00 L 7147000.00 4536136.00 L 7147728.00 4400000.00 L 7116788.00 4400000.00 L 7116788.00 4515388.00 L 7113876.00 4541596.00 L 7105868.00 4552516.00 L 7091672.00 4559068.00 L 7077476.00 4559068.00 L 7062552.00 4554336.00 L 7051632.00 4545964.00 L 7045808.00 4536864.00 L 7039984.00 4515752.00 L 7039256.00 4400000.00 L 7008316.00 4400000.00 L 7008316.00 4518664.00 L 7006496.00 4535044.00 L 7000308.00 4549604.00 L 6991572.00 4556520.00 L 6975920.00 4559796.00 L 6960268.00 4556884.00 L 6945708.00 4547784.00 L 6935516.00 4531768.00 L 6931512.00 4511020.00 L 6930784.00 4400000.00 L 6899844.00 4400000.00 L 6899844.00 4582728.00 L 6927508.00 4582728.00 L 6927872.00 4557248.00 L 6945344.00 4575084.00 L 6959904.00 4582728.00 L 6982836.00 4586732.00 L 6999944.00 4584548.00 L 7016688.00 4577632.00 L 7026152.00 4568532.00 L 7034888.00 4554700.00 L 7038528.00 4559432.00 L 7057820.00 4576540.00 L 7078932.00 4585276.00 L 7098224.00 4586368.00 L 7120428.00 4580180.00  z"/>
<path id="N" d="M 8106504.00 4584548.00 L 8131256.00 4576176.00 L 8150912.00 4561980.00 L 8165108.00 4539776.00 L 8172752.00 4516116.00 L 8174936.00 4490636.00 L 8170204.00 4455692.00 L 8163652.00 4437492.00 L 8152004.00 4421840.00 L 8132348.00 4406552.00 L 8113784.00 4399636.00 L 8089396.00 4395996.00 L 8071560.00 4398180.00 L 8046808.00 4406188.00 L 8027152.00 4420384.00 L 8013320.00 4443316.00 L 8006040.00 4467704.00 L 8004220.00 4499736.00 L 8008952.00 4525580.00 L 8018780.00 4550332.00 L 8031884.00 4566348.00 L 8051904.00 4578360.00 L 8077384.00 4586004.00 L 8106504.00 4584548.00  zM 8050084.00 4543052.00 L 8040256.00 4523396.00 L 8035888.00 4497552.00 L 8037344.00 4471708.00 L 8045716.00 4445864.00 L 8053724.00 4436036.00 L 8073380.00 4424024.00 L 8089396.00 4421476.00 L 8108688.00 4425844.00 L 8121428.00 4433124.00 L 8131256.00 4444044.00 L 8139628.00 4464064.00 L 8143268.00 4492820.00 L 8139628.00 4519756.00 L 8132712.00 4536500.00 L 8124704.00 4546692.00 A 50026.22 50026.22 0 0 1 8050084.00 4543052.00  z"/>
<path id="N" d="M 10969524.00 8575034.00 L 10982264.00 8568300.00 L 10991728.00 8556834.00 L 10996278.00 8540454.00 L 10980262.00 8539726.00 L 10979898.00 8541182.00 L 10973892.00 8554468.00 L 10965884.00 8560110.00 L 10949504.00 8563204.00 L 10930394.00 8559382.00 L 10924206.00 8553922.00 L 10920748.00 8544276.00 L 10922750.00 8536814.00 L 10929120.00 8530990.00 L 10976986.00 8516794.00 L 10992638.00 8505874.00 L 10999372.00 8492406.00 L 10999372.00 8479120.00 L 10994094.00 8466016.00 L 10981536.00 8454732.00 L 10967158.00 8449454.00 L 10947502.00 8447998.00 L 10924388.00 8452912.00 L 10912376.00 8461102.00 L 10903458.00 8474206.00 L 10900000.00 8490404.00 L 10915652.00 8491496.00 L 10916198.00 8488584.00 L 10921476.00 8475298.00 L 10930394.00 8467836.00 L 10948776.00 8462922.00 L 10966794.00 8464560.00 L 10978988.00 8471476.00 L 10983538.00 8479848.00 L 10982628.00 8490950.00 L 10974256.00 8499322.00 L 10922022.00 8515884.00 L 10909100.00 8527532.00 L 10904732.00 8543548.00 L 10908190.00 8557926.00 L 10918928.00 8569938.00 L 10932578.00 8575944.00 L 10969524.00 8575034.00  z"/>
<path id="N" d="M 7284592.00 4584912.00 L 7308252.00 4576540.00 L 7322084.00 4565256.00 L 7334096.00 4547420.00 L 7340284.00 4529220.00 L 7309708.00 4525216.00 L 7304612.00 4539048.00 L 7294420.00 4552152.00 L 7279132.00 4559796.00 L 7264572.00 4560888.00 L 7242732.00 4554336.00 L 7229992.00 4543780.00 L 7223440.00 4531768.00 L 7217616.00 4509928.00 L 7216524.00 4482264.00 L 7221984.00 4453144.00 L 7230720.00 4437128.00 A 50002.93 50002.93 0 0 1 7282044.00 4424024.00 L 7297696.00 4432760.00 L 7308980.00 4451688.00 L 7312620.00 4466976.00 L 7343196.00 4462608.00 L 7334824.00 4437128.00 L 7320992.00 4417108.00 L 7306432.00 4406552.00 L 7287504.00 4398908.00 L 7267120.00 4395996.00 L 7245644.00 4398908.00 L 7225988.00 4406188.00 L 7207060.00 4420384.00 L 7195776.00 4438220.00 L 7188132.00 4460424.00 A 137650.19 137650.19 0 0 0 7195776.00 4545964.00 L 7210700.00 4565620.00 L 7225988.00 4576540.00 L 7250740.00 4584912.00 L 7284592.00 4584912.00  z"/>
<path id="N" d="M 8576428.00 4584912.00 L 8600088.00 4576540.00 L 8613920.00 4565256.00 L 8625932.00 4547420.00 L 8632120.00 4529220.00 L 8601544.00 4525216.00 L 8596448.00 4539048.00 L 8586256.00 4552152.00 L 8570968.00 4559796.00 L 8556408.00 4560888.00 L 8534568.00 4554336.00 L 8521828.00 4543780.00 L 8515276.00 4531768.00 L 8509452.00 4509928.00 L 8508360.00 4482264.00 L 8513820.00 4453144.00 L 8522556.00 4437128.00 A 50002.93 50002.93 0 0 1 8573880.00 4424024.00 L 8589532.00 4432760.00 L 8600816.00 4451688.00 L 8604456.00 4466976.00 L 8635032.00 4462608.00 L 8626660.00 4437128.00 L 8612828.00 4417108.00 L 8598268.00 4406552.00 L 8579340.00 4398908.00 L 8558956.00 4395996.00 L 8537480.00 4398908.00 L 8517824.00 4406188.00 L 8498896.00 4420384.00 L 8487612.00 4438220.00 L 8479968.00 4460424.00 A 137650.19 137650.19 0 0 0 8487612.00 4545964.00 L 8502536.00 4565620.00 L 8517824.00 4576540.00 L 8542576.00 4584912.00 L 8576428.00 4584912.00  z"/>
<path id="N" d="M 11313504.00 8540454.00 L 11324606.00 8533356.00 L 11329338.00 8522436.00 L 11330612.00 8463832.00 L 11334798.00 8450000.00 L 11318418.00 8450182.00 L 11315324.00 8461102.00 L 11302038.00 8452184.00 L 11285112.00 8448180.00 L 11269642.00 8449818.00 L 11258722.00 8455278.00 L 11251988.00 8466198.00 L 11251078.00 8478028.00 L 11255810.00 8489494.00 L 11266548.00 8497866.00 L 11286750.00 8502598.00 L 11314232.00 8508604.00 L 11314232.00 8515338.00 L 11309864.00 8525348.00 L 11300036.00 8529898.00 L 11283474.00 8529716.00 L 11274192.00 8525166.00 L 11268550.00 8513336.00 L 11253626.00 8515702.00 L 11257084.00 8525894.00 L 11265638.00 8535722.00 L 11279834.00 8541728.00 L 11313504.00 8540454.00  zM 11313504.00 8495500.00 L 11277286.00 8487492.00 L 11268914.00 8481304.00 L 11267276.00 8474570.00 L 11270370.00 8465834.00 L 11277286.00 8461466.00 L 11290936.00 8460738.00 L 11303858.00 8465652.00 L 11312048.00 8475662.00 L 11314232.00 8490040.00 L 11313504.00 8495500.00  z"/>
<path id="N" d="M 5769624.00 4587824.00 L 5780908.00 4576176.00 L 5790008.00 4558704.00 L 5769260.00 4553972.00 L 5768532.00 4555428.00 L 5757612.00 4569988.00 L 5744144.00 4577996.00 L 5728856.00 4580180.00 L 5708472.00 4574356.00 L 5697552.00 4565256.00 L 5689180.00 4549968.00 L 5685176.00 4525216.00 L 5686632.00 4510292.00 L 5693184.00 4491000.00 L 5699372.00 4483356.00 L 5715388.00 4474256.00 L 5731040.00 4472072.00 L 5751424.00 4477896.00 L 5764892.00 4490636.00 L 5771444.00 4505196.00 L 5792556.00 4499008.00 L 5787824.00 4486632.00 L 5776176.00 4469888.00 L 5759068.00 4458604.00 L 5738320.00 4452780.00 L 5722304.00 4452780.00 L 5696096.00 4460060.00 L 5684084.00 4468068.00 L 5674620.00 4479352.00 A 88981.66 88981.66 0 0 0 5664064.00 4545600.00 L 5670616.00 4565984.00 L 5680080.00 4579088.00 L 5697552.00 4592192.00 A 76470.02 76470.02 0 0 0 5769624.00 4587824.00  z"/>
<path id="N" d="M 11127532.00 6349564.00 L 11077118.00 6349564.00 L 11070930.00 6315894.00 L 11089676.00 6323174.00 L 11101870.00 6322628.00 L 11117704.00 6315894.00 L 11127896.00 6304064.00 L 11133356.00 6285864.00 L 11131172.00 6267846.00 L 11122982.00 6252376.00 L 11110060.00 6242730.00 L 11094226.00 6237998.00 L 11080394.00 6239090.00 L 11064378.00 6245642.00 L 11055642.00 6255834.00 L 11050000.00 6272942.00 L 11066198.00 6273670.00 L 11067836.00 6267482.00 L 11074388.00 6256380.00 L 11086946.00 6250738.00 L 11100050.00 6252558.00 L 11110606.00 6260384.00 L 11116794.00 6276400.00 L 11115338.00 6292234.00 L 11109696.00 6302244.00 L 11101688.00 6307340.00 L 11088948.00 6309888.00 L 11075662.00 6305884.00 L 11067290.00 6297512.00 L 11052730.00 6299514.00 L 11064924.00 6364306.00 L 11127532.00 6364306.00 L 11127532.00 6349564.00  z"/>
<path id="N" d="M 11012565.00 9271545.00 L 11007570.00 9219930.00 L 11000355.00 9197175.00 L 10991475.00 9182190.00 L 10972050.00 9162765.00 L 10958730.00 9154995.00 L 10927650.00 9145560.00 L 10899345.00 9143340.00 L 10863270.00 9150555.00 L 10843845.00 9158880.00 L 10826640.00 9172200.00 L 10818315.00 9184410.00 L 10808880.00 9206055.00 L 10803330.00 9228810.00 L 10801110.00 9258225.00 L 10847175.00 9264330.00 L 10851615.00 9231030.00 L 10860495.00 9208275.00 L 10869375.00 9199950.00 A 63062.30 63062.30 0 0 1 10939305.00 9198840.00 L 10950960.00 9211050.00 L 10957065.00 9223815.00 L 10961505.00 9257670.00 L 10961505.00 9534060.00 L 11012565.00 9534060.00 L 11012565.00 9271545.00  z"/>
<path id="N" d="M 7789096.00 4650796.00 L 7811664.00 4646792.00 L 7833868.00 4635872.00 L 7849156.00 4618764.00 L 7856072.00 4603112.00 L 7859712.00 4578360.00 L 7854616.00 4551424.00 A 63373.83 63373.83 0 0 0 7812028.00 4509200.00 L 7784000.00 4503376.00 L 7701008.00 4502284.00 L 7701008.00 4400000.00 L 7667520.00 4400000.00 L 7667520.00 4651888.00 L 7789096.00 4650796.00  zM 7701008.00 4622040.00 L 7701008.00 4532132.00 L 7768712.00 4532132.00 L 7783636.00 4533588.00 L 7805840.00 4540140.00 L 7813848.00 4546328.00 L 7823312.00 4563436.00 L 7825496.00 4578360.00 L 7823676.00 4591100.00 L 7816032.00 4606388.00 L 7805112.00 4615488.00 L 7789460.00 4620948.00 L 7701008.00 4622040.00  z"/>
<path id="N" d="M 6128528.00 4561616.00 L 6140176.00 4571808.00 L 6160560.00 4582728.00 L 6176940.00 4586368.00 L 6200236.00 4584912.00 L 6218436.00 4578360.00 L 6229356.00 4569624.00 L 6239548.00 4555792.00 L 6244644.00 4533224.00 L 6245736.00 4400000.00 L 6214796.00 4400000.00 L 6214796.00 4519392.00 L 6210428.00 4539412.00 L 6202784.00 4551060.00 L 6188588.00 4558340.00 L 6174028.00 4560160.00 L 6155464.00 4555428.00 L 6141268.00 4544872.00 L 6133260.00 4532496.00 L 6129256.00 4513932.00 L 6128528.00 4400000.00 L 6097588.00 4400000.00 L 6097588.00 4651888.00 L 6128528.00 4651888.00 L 6128528.00 4561616.00  z"/>
<path id="N" d="M 9435307.00 7456961.00 L 9441648.00 7441654.00 L 9441648.00 5911654.00 L 9435307.00 5896347.00 L 9420000.00 5890006.00 L 5555118.00 5890006.00 L 5539811.00 5896347.00 L 5533470.00 5911654.00 L 5533470.00 7441654.00 L 5539811.00 7456961.00 L 5555118.00 7463302.00 L 5570425.00 7456961.00 L 5576766.00 7441654.00 L 5576766.00 6053302.00 L 9398352.00 6053302.00 L 9398352.00 7441654.00 L 9404693.00 7456961.00 L 9420000.00 7463302.00 L 9435307.00 7456961.00  zM 9398352.00 6010006.00 L 5576766.00 6010006.00 L 5576766.00 5933302.00 L 9398352.00 5933302.00 L 9398352.00 6010006.00  z"/>
<path id="N" d="M 7601636.00 4582728.00 L 7632940.00 4582728.00 L 7632940.00 4558704.00 L 7601636.00 4558704.00 L 7602728.00 4436036.00 L 7606004.00 4430212.00 L 7614376.00 4426572.00 L 7632940.00 4427300.00 L 7636216.00 4400000.00 L 7625296.00 4398180.00 L 7603820.00 4398180.00 L 7586712.00 4402912.00 L 7575792.00 4413468.00 L 7571788.00 4429484.00 L 7570696.00 4558704.00 L 7547764.00 4558704.00 L 7547764.00 4582728.00 L 7570696.00 4582728.00 L 7570696.00 4627864.00 L 7601636.00 4646428.00 L 7601636.00 4582728.00  z"/>
<path id="N" d="M 8697640.00 4582728.00 L 8728944.00 4582728.00 L 8728944.00 4558704.00 L 8697640.00 4558704.00 L 8698732.00 4436036.00 L 8702008.00 4430212.00 L 8710380.00 4426572.00 L 8728944.00 4427300.00 L 8732220.00 4400000.00 L 8721300.00 4398180.00 L 8699824.00 4398180.00 L 8682716.00 4402912.00 L 8671796.00 4413468.00 L 8667792.00 4429484.00 L 8666700.00 4558704.00 L 8643768.00 4558704.00 L 8643768.00 4582728.00 L 8666700.00 4582728.00 L 8666700.00 4627864.00 L 8697640.00 4646428.00 L 8697640.00 4582728.00  z"/>
<path id="N" d="M 11215952.00 8540272.00 L 11226508.00 8532264.00 L 11231422.00 8520252.00 L 11232150.00 8450000.00 L 11216680.00 8450000.00 L 11216316.00 8512972.00 L 11212494.00 8523346.00 L 11203758.00 8528988.00 L 11191746.00 8529170.00 L 11180644.00 8523528.00 L 11174638.00 8510788.00 L 11173546.00 8450000.00 L 11158076.00 8450000.00 L 11158076.00 8541364.00 L 11171908.00 8541364.00 L 11172454.00 8528988.00 L 11177550.00 8534448.00 L 11191200.00 8541910.00 L 11215952.00 8540272.00  z"/>
<path id="N" d="M 9435307.00 10376961.00 L 9441648.00 10361654.00 L 9441648.00 8941654.00 L 9435307.00 8926347.00 L 9420000.00 8920006.00 L 9404693.00 8926347.00 L 9398352.00 8941654.00 L 9398352.00 10340006.00 L 5576766.00 10340006.00 L 5576766.00 8941654.00 L 5570425.00 8926347.00 L 5555118.00 8920006.00 L 5539811.00 8926347.00 L 5533470.00 8941654.00 L 5533470.00 10361654.00 L 5539811.00 10376961.00 L 5555118.00 10383302.00 L 9420000.00 10383302.00 L 9435307.00 10376961.00  z"/>
<path id="N" d="M 11665307.00 8395307.00 L 11671648.00 8380000.00 L 11671648.00 6427559.00 L 11665307.00 6412252.00 L 11650000.00 6405911.00 L 10650000.00 6405911.00 L 10634693.00 6412252.00 L 10628352.00 6427559.00 L 10628352.00 8380000.00 L 10634693.00 8395307.00 L 10650000.00 8401648.00 L 11650000.00 8401648.00 L 11665307.00 8395307.00  zM 11628352.00 8358352.00 L 10671648.00 8358352.00 L 10671648.00 6449207.00 L 11628352.00 6449207.00 L 11628352.00 8358352.00  z"/>
<path id="N" d="M 7975100.00 4585640.00 L 7996940.00 4576540.00 L 7985292.00 4548512.00 L 7971460.00 4553608.00 L 7957264.00 4553972.00 L 7944888.00 4548148.00 L 7935424.00 4535408.00 L 7929600.00 4509200.00 L 7928872.00 4400000.00 L 7897932.00 4400000.00 L 7897932.00 4582728.00 L 7925960.00 4582728.00 L 7926324.00 4555428.00 L 7929600.00 4561252.00 L 7945616.00 4580544.00 L 7961268.00 4586368.00 L 7975100.00 4585640.00  z"/>
<path id="N" d="M 8241912.00 4390172.00 L 8239728.00 4364328.00 L 8234632.00 4346128.00 L 8224440.00 4334844.00 L 8212792.00 4329020.00 L 8196048.00 4326108.00 L 8172024.00 4329748.00 L 8178212.00 4355956.00 L 8187676.00 4353772.00 L 8197504.00 4354136.00 L 8206604.00 4360324.00 L 8210244.00 4375612.00 L 8210972.00 4582728.00 L 8241912.00 4582728.00 L 8241912.00 4390172.00  z"/>
<path id="N" d="M 7942945.00 8750000.00 L 7895770.00 8750000.00 L 7895215.00 9049700.00 L 7889110.00 9044150.00 L 7850815.00 9017510.00 L 7801420.00 8993645.00 L 7801975.00 9039155.00 L 7835830.00 9058025.00 L 7870240.00 9084110.00 L 7893550.00 9108530.00 L 7912420.00 9135725.00 L 7942945.00 9135725.00 L 7942945.00 8750000.00  z"/>
<path id="N" d="M 11253990.00 9150000.00 L 11206815.00 9150000.00 L 11206260.00 9449700.00 L 11200155.00 9444150.00 L 11161860.00 9417510.00 L 11112465.00 9393645.00 L 11113020.00 9439155.00 L 11146875.00 9458025.00 L 11181285.00 9484110.00 L 11204595.00 9508530.00 L 11223465.00 9535725.00 L 11253990.00 9535725.00 L 11253990.00 9150000.00  z"/>
<path id="N" d="M 7201465.00 8750000.00 L 7148185.00 8750000.00 L 6999445.00 9134060.00 L 7054945.00 9134060.00 L 7154845.00 8854340.00 L 7174825.00 8792735.00 L 7183705.00 8821595.00 L 7299700.00 9134060.00 L 7351315.00 9134060.00 L 7201465.00 8750000.00  z"/>
<path id="N" d="M 6067012.00 4622040.00 L 5984020.00 4622040.00 L 5984020.00 4400000.00 L 5950532.00 4400000.00 L 5950532.00 4622040.00 L 5867540.00 4622040.00 L 5867540.00 4651888.00 L 6067012.00 4651888.00 L 6067012.00 4622040.00  z"/>
<path id="N" d="M 6673800.00 4622040.00 L 6590808.00 4622040.00 L 6590808.00 4400000.00 L 6557320.00 4400000.00 L 6557320.00 4622040.00 L 6474328.00 4622040.00 L 6474328.00 4651888.00 L 6673800.00 4651888.00 L 6673800.00 4622040.00  z"/>
<path id="N" d="M 11207430.00 6240000.00 L 11189958.00 6240000.00 L 11141182.00 6365944.00 L 11159382.00 6365944.00 L 11198876.00 6254378.00 L 11239644.00 6365944.00 L 11256570.00 6365944.00 L 11207430.00 6240000.00  z"/>
<path id="N" d="M 8241912.00 4615852.00 L 8210972.00 4615852.00 L 8210972.00 4651888.00 L 8241912.00 4651888.00 L 8241912.00 4615852.00  z"/>
<path id="N" d="M 11036500.00 8558290.00 L 11021030.00 8558290.00 L 11021030.00 8575944.00 L 11036500.00 8575944.00 L 11036500.00 8558290.00  z"/>
<path id="N" d="M 11369014.00 8450000.00 L 11353544.00 8450000.00 L 11353544.00 8575944.00 L 11369014.00 8575944.00 L 11369014.00 8450000.00  z"/>
<path id="N" d="M 11036500.00 8450000.00 L 11021030.00 8450000.00 L 11021030.00 8541364.00 L 11036500.00 8541364.00 L 11036500.00 8450000.00  z"/>
</g>
</svg>
