<svg width="19.99999556mm" height="17.99999956mm" viewBox="0 0 7874014 7086614"  version="1.1" xmlns="http://www.w3.org/2000/svg" xmlns:xlink="http://www.w3.org/1999/xlink">
<desc>
Origin 3750000 11250000 Bound 3937007 3937007 7874014 7086614
</desc>
<g fill-rule="evenodd" fill="rgb(174, 78, 0)" stroke="black" stroke-width="1" transform="translate(0, 7086614) scale(1, -1) translate(-3937007, -3937007)">
<path id="N" d="M 10249991.82 4724395.48 m -536733.43 0 a 536733.43 536733.43 0 1 1 1073466.87 0a 536733.43 536733.43 0 1 1 -1073466.87 0M 10250000.71 4724406.07 m -397100.93 0 a 397100.93 397100.93 0 1 1 794201.86 0a 397100.93 397100.93 0 1 1 -794201.86 0"/>
<path id="N" d="M 8469989.61 5471638.00 m -398426.66 0 a 398426.66 398426.66 0 1 1 796853.32 0a 398426.66 398426.66 0 1 1 -796853.32 0M 8469998.90 5471655.70 m -203916.30 0 a 203916.30 203916.30 0 1 1 407832.60 0a 203916.30 203916.30 0 1 1 -407832.60 0"/>
<path id="N" d="M 5751964.17 8231643.24 m -713446.89 0 a 713446.89 713446.89 0 1 1 1426893.78 0a 713446.89 713446.89 0 1 1 -1426893.78 0M 5751967.28 8231661.12 m -438746.88 0 a 438746.88 438746.88 0 1 1 877493.75 0a 438746.88 438746.88 0 1 1 -877493.75 0"/>
<path id="N" d="M 9219995.17 8231643.24 m -713446.89 0 a 713446.89 713446.89 0 1 1 1426893.78 0a 713446.89 713446.89 0 1 1 -1426893.78 0M 9219998.28 8231661.12 m -438746.88 0 a 438746.88 438746.88 0 1 1 877493.75 0a 438746.88 438746.88 0 1 1 -877493.75 0"/>
<path id="N" d="M 7489989.61 5471638.00 m -398426.66 0 a 398426.66 398426.66 0 1 1 796853.32 0a 398426.66 398426.66 0 1 1 -796853.32 0M 7489998.90 5471655.70 m -203916.30 0 a 203916.30 203916.30 0 1 1 407832.60 0a 203916.30 203916.30 0 1 1 -407832.60 0"/>
<path id="N" d="M 11150002.54 6900006.49 m -373186.19 0 a 373186.19 373186.19 0 1 1 746372.38 0a 373186.19 373186.19 0 1 1 -746372.38 0M 11150001.18 6899997.74 m -224312.26 0 a 224312.26 224312.26 0 1 1 448624.51 0a 224312.26 224312.26 0 1 1 -448624.51 0"/>
<path id="N" d="M 11150002.54 7900006.49 m -373186.19 0 a 373186.19 373186.19 0 1 1 746372.38 0a 373186.19 373186.19 0 1 1 -746372.38 0M 11150001.18 7899997.74 m -224312.26 0 a 224312.26 224312.26 0 1 1 448624.51 0a 224312.26 224312.26 0 1 1 -448624.51 0"/>
<path id="N" d="M 6499989.61 5471638.00 m -398426.66 0 a 398426.66 398426.66 0 1 1 796853.32 0a 398426.66 398426.66 0 1 1 -796853.32 0M 6499998.90 5471655.70 m -203916.30 0 a 203916.30 203916.30 0 1 1 407832.60 0a 203916.30 203916.30 0 1 1 -407832.60 0"/>
</g>
</svg>
